<?xml version="1.0" standalone="no"?>
<!DOCTYPE svg PUBLIC "-//W3C//DTD SVG 1.1//EN" "http://www.w3.org/Graphics/SVG/1.1/DTD/svg11.dtd" >
<svg>
<metadata>
Created by FontForge 20110222 at Fri Nov  8 01:51:43 2013
 By Orthosie Webhosting
Copyright (c) 2002, 2005 Parachute :, www.parachute.gr.  All rights reserved.
</metadata>
<defs>
<font id="PFDinDisplayProRegular" horiz-adv-x="1818" >
  <font-face 
    font-family="PFDinDisplayProRegular"
    font-weight="400"
    font-stretch="normal"
    units-per-em="1000"
    panose-1="2 0 5 6 3 0 0 2 0 4"
    ascent="750"
    descent="-250"
    x-height="495"
    cap-height="689"
    bbox="-171 -279 1760 933"
    underline-thickness="60"
    underline-position="-40"
    unicode-range="U+0020-FB05"
  />
<missing-glyph horiz-adv-x="440" 
d="M0 700h440v-700h-440v700zM360 650h-280l140 -255zM390 95v510l-140 -255zM360 50l-140 255l-140 -255h280zM50 95l140 255l-140 255v-510z" />
    <glyph glyph-name="fj" unicode="fj" horiz-adv-x="478" 
d="M334 419h-162v-419h-85v419h-61v77h61v88q0 66 38 98t92 32h74v-76h-66q-32 0 -42.5 -19t-10.5 -45v-78h247v-548q0 -83 -38 -117.5t-107 -34.5h-49v78h39q40 0 55 17.5t15 68.5v459zM426 643q0 -21 -14.5 -36t-35.5 -15t-35.5 15t-14.5 36t14.5 35.5t35.5 14.5
t35.5 -14.5t14.5 -35.5z" />
    <glyph glyph-name="ffj" unicode="ffj" horiz-adv-x="724" 
d="M580 419h-162v-419h-85v419h-161v-419h-85v419h-61v77h61v68q0 66 38 98t92 32h69v-76h-61q-32 0 -42.5 -19t-10.5 -45v-58h161v88q0 66 38 98t92 32h74v-76h-66q-32 0 -42.5 -19t-10.5 -45v-78h247v-548q0 -83 -38 -117.5t-107 -34.5h-49v78h39q40 0 55 17.5t15 68.5
v459zM672 643q0 -21 -14.5 -36t-35.5 -15t-35.5 15t-14.5 36t14.5 35.5t35.5 14.5t35.5 -14.5t14.5 -35.5z" />
    <glyph glyph-name="ff" unicode="ff" horiz-adv-x="550" 
d="M419 419v-419h-85v419h-162v-419h-85v419h-61v77h61v70q0 66 38 98t92 32h89v-76h-81q-32 0 -42.5 -19t-10.5 -45v-60h162v90q0 66 38 98t92 32h89v-76h-81q-32 0 -42.5 -19t-10.5 -45v-80h134v-77h-134z" />
    <glyph glyph-name="fi" unicode="fi" horiz-adv-x="478" 
d="M334 0v419h-162v-419h-85v419h-61v77h61v88q0 66 38 98t92 32h74v-76h-66q-32 0 -42.5 -19t-10.5 -45v-78h247v-496h-85zM426 643q0 -21 -14.5 -36t-35.5 -15t-35.5 15t-14.5 36t14.5 35.5t35.5 14.5t35.5 -14.5t14.5 -35.5z" />
    <glyph glyph-name="fl" unicode="fl" horiz-adv-x="527" 
d="M418 132q0 -39 17.5 -48.5t58.5 -7.5l2 -78q-14 -2 -26.5 -3t-23.5 -1q-35 0 -56.5 8.5t-34.5 25t-17.5 40t-4.5 53.5v528q-18 5 -35.5 7.5t-41.5 2.5q-84 0 -84 -81v-82h107v-77h-107v-419h-85v419h-61v77h61v80q0 47 14.5 78t38.5 49t55.5 25.5t65.5 7.5q20 0 58 -3
t99 -18v-583z" />
    <glyph glyph-name="ffi" unicode="ffi" horiz-adv-x="724" 
d="M580 0v419h-162v-419h-85v419h-161v-419h-85v419h-61v77h61v68q0 66 38 98t92 32h69v-76h-61q-32 0 -42.5 -19t-10.5 -45v-58h161v88q0 66 38 98t92 32h74v-76h-66q-32 0 -42.5 -19t-10.5 -45v-78h247v-496h-85zM672 643q0 -21 -14.5 -36t-35.5 -15t-35.5 15t-14.5 36
t14.5 35.5t35.5 14.5t35.5 -14.5t14.5 -35.5z" />
    <glyph glyph-name="ffl" unicode="ffl" horiz-adv-x="772" 
d="M663 132q0 -39 17.5 -48.5t58.5 -7.5l2 -78q-14 -2 -26.5 -3t-23.5 -1q-35 0 -56.5 8.5t-34.5 25t-17.5 40t-4.5 53.5v528q-18 5 -35.5 7.5t-41.5 2.5q-84 0 -84 -81v-82h107v-77h-107v-419h-85v419h-160v-419h-85v419h-61v77h61v80q0 66 38 98t92 32h75v-76h-67
q-32 0 -42.5 -19t-10.5 -45v-70h160v80q0 47 14.5 78t38.5 49t55.5 25.5t65.5 7.5q20 0 58 -3t99 -18v-583z" />
    <glyph glyph-name="ft" unicode="ft" horiz-adv-x="597" 
d="M591 12q-29 -10 -60.5 -13.5t-46.5 -3.5q-79 0 -114 36t-35 120v268h-163v-419h-85v419h-61v77h61v90q0 66 38 98t92 32h69v-76h-61q-32 0 -42.5 -19t-10.5 -45v-80h165l20 115h63v-115h138v-77h-138v-242q0 -30 5.5 -49.5t15 -31t23.5 -15.5t32 -4q17 0 37.5 2.5
t43.5 5.5z" />
    <glyph glyph-name=".notdef" horiz-adv-x="440" 
d="M0 700h440v-700h-440v700zM360 650h-280l140 -255zM390 95v510l-140 -255zM360 50l-140 255l-140 -255h280zM50 95l140 255l-140 255v-510z" />
    <glyph glyph-name=".null" horiz-adv-x="0" 
 />
    <glyph glyph-name="nonmarkingreturn" horiz-adv-x="333" 
 />
    <glyph glyph-name="space" unicode=" " horiz-adv-x="240" 
 />
    <glyph glyph-name="exclam" unicode="!" horiz-adv-x="237" 
d="M156 189h-75l-7 507h89zM60 55q0 21 14.5 39t42.5 18q29 0 45 -18t16 -39q0 -25 -16 -42.5t-45 -17.5q-28 0 -42.5 17t-14.5 43z" />
    <glyph glyph-name="quotedbl" unicode="&#x22;" horiz-adv-x="306" 
d="M178 509v187h69v-187h-69zM56 509v187h69v-187h-69z" />
    <glyph glyph-name="numbersign" unicode="#" horiz-adv-x="526" 
d="M398 421l-19 -143h94v-65h-103l-29 -213h-73l30 213h-111l-29 -213h-74l31 213h-90v65h99l20 143h-91v64h100l30 210h69l-28 -210h113l29 210h70l-29 -210h94v-64h-103zM215 421l-19 -143h111l20 143h-112z" />
    <glyph glyph-name="dollar" unicode="$" horiz-adv-x="500" 
d="M283 -1v-97h-60v97q-54 4 -103 23.5t-94 58.5l48 65q41 -31 87.5 -49t94.5 -18q67 0 100.5 29.5t33.5 82.5q0 34 -14 54.5t-36 32.5t-48.5 18.5t-51.5 11.5q-37 8 -72 21t-62.5 35t-44 54t-16.5 79q0 39 13.5 72.5t37.5 58.5t56.5 41t70.5 20v83h60l-2 -82
q45 -2 88.5 -14.5t85.5 -38.5l-39 -74q-38 23 -78 35.5t-82 12.5q-24 0 -47 -7.5t-40 -22t-27.5 -36t-10.5 -50.5q0 -28 13.5 -46t34.5 -30t45.5 -19t45.5 -12q39 -10 75.5 -21.5t65.5 -32.5t46.5 -55t17.5 -88q0 -85 -53 -135t-141 -57h2z" />
    <glyph glyph-name="percent" unicode="%" horiz-adv-x="800" 
d="M332 386q0 -27 -11.5 -48.5t-31 -36.5t-45 -23t-54.5 -8q-30 0 -56 8t-45 23t-30 36.5t-11 48.5v191q0 27 11.5 48.5t31 36.5t45 23t54.5 8q28 0 54 -8t45.5 -23t31 -36.5t11.5 -48.5v-191zM261 567q0 17 -7 28.5t-17.5 19t-23 10.5t-23.5 3t-23 -3t-22.5 -10.5t-17 -19
t-6.5 -28.5v-173q0 -17 6.5 -28.5t17 -18.5t22.5 -10t23 -3t23.5 3t23 10t17.5 18.5t7 28.5v173zM751 112q0 -27 -11.5 -48.5t-31 -36.5t-45 -23t-54.5 -8q-30 0 -56 8t-45 23t-30 36.5t-11 48.5v191q0 27 11.5 48.5t31 36.5t45 23t54.5 8q28 0 54 -8t45.5 -23t31 -36.5
t11.5 -48.5v-191zM680 293q0 17 -7 28.5t-17.5 19t-23 10.5t-23.5 3t-23 -3t-22.5 -10.5t-17 -19t-6.5 -28.5v-173q0 -17 6.5 -28.5t17 -18.5t22.5 -10t23 -3t23.5 3t23 10t17.5 18.5t7 28.5v173zM221 -17h-66l425 730h67z" />
    <glyph glyph-name="ampersand" unicode="&#x26;" horiz-adv-x="831" 
d="M739 -53q-45 20 -93 52.5t-84 67.5q-44 -34 -100.5 -54t-111.5 -20q-45 0 -84.5 12.5t-69 37.5t-46.5 62t-17 86q0 71 45.5 123.5t117.5 93.5q-27 38 -39 68t-12 62q0 31 9.5 58.5t27.5 47t44.5 31t60.5 11.5q32 0 59 -10.5t46.5 -29t30.5 -43t11 -52.5q0 -58 -35.5 -97
t-93.5 -74q35 -51 77.5 -107.5t89.5 -110.5q51 51 82 117.5t31 144.5q0 63 -18.5 120t-55.5 100t-91 68.5t-124 25.5q-64 0 -115.5 -19t-88 -51.5t-56 -75t-19.5 -90.5q0 -34 10 -68.5t32 -68.5l-60 -35q-27 40 -39.5 82.5t-12.5 84.5q0 60 24 116t69 98.5t109 68t143 25.5
q89 0 157 -30t113.5 -82t69 -121t23.5 -147q0 -94 -37.5 -173.5t-97.5 -138.5q36 -34 73.5 -60t79.5 -43zM459 551q0 29 -21.5 48t-50.5 19q-18 0 -30 -7t-19.5 -18.5t-11 -24.5t-3.5 -25q0 -24 11.5 -47.5t31.5 -52.5q40 22 66.5 46t26.5 62zM515 117q-25 27 -50 57
t-47.5 60t-43 59t-36.5 54q-27 -15 -51 -31t-41.5 -35t-28 -40.5t-10.5 -47.5q0 -33 10.5 -58t29 -41.5t43 -25t52.5 -8.5q42 0 86 14t87 43z" />
    <glyph glyph-name="quotesingle" unicode="'" horiz-adv-x="257" 
d="M97 509v187h69v-187h-69z" />
    <glyph glyph-name="parenleft" unicode="(" horiz-adv-x="290" 
d="M238 -120q-37 40 -70.5 88t-59.5 102t-41.5 113t-15.5 122q0 64 15 123.5t40.5 113.5t58.5 101t70 87l46 -28q-32 -41 -57.5 -88.5t-44 -98.5t-28.5 -103t-10 -102q0 -54 10.5 -108t29 -105t44 -98t55.5 -87l-42 -32v0z" />
    <glyph glyph-name="parenright" unicode=")" horiz-adv-x="290" 
d="M20 -88q30 40 55.5 87t44 98t29 105t10.5 108q0 50 -10 102t-28 103t-44 98.5t-57 88.5l45 28q37 -40 70.5 -87t59 -101t40.5 -113.5t15 -123.5q0 -63 -15.5 -122t-41.5 -113t-60 -102t-71 -88z" />
    <glyph glyph-name="asterisk" unicode="*" horiz-adv-x="361" 
d="M300 442q-14 -11 -27.5 -21.5t-28.5 -21.5l-62 104l-63 -105q-14 11 -28 21.5t-28 21.5l78 91q-28 7 -56.5 15t-56.5 15l19 65l111 -47l-10 120h68l-10 -120q27 11 55.5 23t55.5 24l19 -66l-114 -29z" />
    <glyph glyph-name="plus" unicode="+" horiz-adv-x="500" 
d="M282 262v-192h-64v192h-189v64h189v190h64v-190h188v-64h-188z" />
    <glyph glyph-name="comma" unicode="," horiz-adv-x="250" 
d="M64 52q0 22 16 40t44 18q19 0 32 -7.5t21 -19t11.5 -26t3.5 -27.5q0 -28 -9 -53.5t-23.5 -46.5t-33.5 -37.5t-39 -25.5l-30 39q23 17 37 37.5t16 50.5q-21 2 -33.5 18.5t-12.5 39.5z" />
    <glyph glyph-name="hyphen" unicode="-" horiz-adv-x="392" 
d="M52 230v75h288v-75h-288z" />
    <glyph glyph-name="period" unicode="." horiz-adv-x="219" 
d="M53 55q0 21 14.5 39t42.5 18q29 0 45 -18t16 -39q0 -25 -16 -42.5t-45 -17.5q-28 0 -42.5 17t-14.5 43z" />
    <glyph glyph-name="slash" unicode="/" horiz-adv-x="317" 
d="M64 -42h-65l251 767h65z" />
    <glyph glyph-name="zero" unicode="0" horiz-adv-x="500" 
d="M460 172q0 -42 -18.5 -75t-48.5 -55.5t-67.5 -34.5t-75.5 -12q-39 0 -76.5 12t-67 34.5t-48 55.5t-18.5 75v344q0 42 18.5 75.5t48.5 57t67.5 35.5t75.5 12t75.5 -12t67.5 -35.5t48.5 -57t18.5 -75.5v-344zM373 494q0 33 -12 56t-30 37.5t-39.5 20.5t-41.5 6t-41.5 -6
t-39.5 -20.5t-29.5 -37.5t-11.5 -56v-300q0 -33 11.5 -55.5t29.5 -37t39.5 -20.5t41.5 -6t41.5 6t39.5 20.5t30 37t12 55.5v300z" />
    <glyph glyph-name="one" unicode="1" horiz-adv-x="500" 
d="M235 0v583l-94 -77l-46 63l145 120h81v-689h-86z" />
    <glyph glyph-name="two" unicode="2" horiz-adv-x="500" 
d="M458 515q0 -38 -18.5 -73t-46 -65.5t-59 -55.5t-58.5 -43q-19 -13 -43.5 -31t-47 -40t-38 -48t-15.5 -56v-26h324v-77h-414v81q0 42 14 78t38 67t55 57.5t65 49.5q29 18 56.5 39t49.5 43.5t35 46.5t13 49q0 27 -11.5 46.5t-30.5 32t-42.5 18.5t-47.5 6q-42 0 -78 -14.5
t-63 -37.5l-45 65q34 29 81 49t105 20q42 0 82 -10t71 -31.5t50 -56t19 -83.5z" />
    <glyph glyph-name="three" unicode="3" horiz-adv-x="500" 
d="M226 695q37 0 73.5 -9t66 -29.5t47.5 -54.5t18 -83q0 -51 -24.5 -93.5t-72.5 -60.5q24 -10 42.5 -27.5t31 -39.5t19 -47t6.5 -49q0 -52 -18.5 -91t-49 -65.5t-71 -39.5t-85.5 -13q-63 0 -114.5 20.5t-83.5 48.5l46 68q29 -26 69.5 -41t77.5 -15q64 0 102.5 31.5
t38.5 88.5t-31 92t-81 35h-78v77h80q19 0 38.5 7t35 21.5t25 36.5t9.5 52q0 27 -11 46t-29.5 31t-41.5 17t-47 5q-37 0 -75.5 -16t-65.5 -39l-47 66q32 28 84.5 49t115.5 21z" />
    <glyph glyph-name="four" unicode="4" horiz-adv-x="500" 
d="M414 106v-106h-88v106h-300v74q57 126 114.5 254t114.5 255h92l-224 -505h203v206h88v-206h59v-78h-59z" />
    <glyph glyph-name="five" unicode="5" horiz-adv-x="500" 
d="M453 177q0 -42 -17.5 -75.5t-47 -57.5t-68.5 -36.5t-82 -12.5q-65 0 -111.5 20.5t-79.5 49.5l50 69q63 -58 139 -58q14 0 36 4.5t43 17t36 34.5t15 57v89q0 50 -25 74t-65 24q-16 0 -36 -6t-40 -14.5t-37.5 -19t-28.5 -19.5l-81 32v340h380v-81h-291v-196q38 26 76 39
t67 13q39 0 70 -12.5t52.5 -36t33.5 -56t12 -71.5v-111v0z" />
    <glyph glyph-name="six" unicode="6" horiz-adv-x="500" 
d="M44 513q0 43 17 77t45.5 57.5t67 36t80.5 12.5q65 0 110.5 -20.5t78.5 -49.5l-50 -70q-31 28 -64.5 42.5t-72.5 14.5q-19 0 -40.5 -6t-40 -20t-31 -36.5t-12.5 -55.5v-113q48 31 88.5 43.5t70.5 12.5q38 0 68.5 -13t52 -36.5t33 -56t11.5 -71.5v-82q0 -43 -17 -77
t-45.5 -58t-66 -36.5t-78.5 -12.5q-44 0 -81 12t-65 35t-43.5 56.5t-15.5 76.5v338zM368 253q0 52 -25.5 76t-63.5 24q-35 0 -70.5 -15t-76.5 -42v-102q0 -32 11 -54.5t28 -36.5t37.5 -20.5t40.5 -6.5q19 0 40.5 6.5t38.5 21t28.5 36.5t11.5 54v59z" />
    <glyph glyph-name="seven" unicode="7" horiz-adv-x="500" 
d="M203 0h-94l248 609h-229v-103h-83v183h410v-77z" />
    <glyph glyph-name="eight" unicode="8" horiz-adv-x="500" 
d="M249 695q38 0 74.5 -12t65.5 -37t46.5 -61.5t17.5 -85.5q0 -48 -21 -88.5t-62 -59.5q26 -11 44.5 -28t30 -38t17 -44.5t5.5 -45.5q0 -52 -19 -90t-50 -62.5t-70.5 -36.5t-79.5 -12q-44 0 -83.5 12t-69 36t-47 60.5t-17.5 86.5q0 26 8 51t21.5 46.5t32 38.5t39.5 26
q-42 16 -64 57t-22 92q0 48 17.5 84.5t46.5 61t65 37t74 12.5zM250 612q-22 0 -43.5 -7t-38 -21t-26.5 -35t-10 -49q0 -26 10 -47t26.5 -35.5t37.5 -22.5t44 -8q22 0 43.5 8t37.5 23t26 36t10 47q0 27 -9.5 48t-25.5 35t-37.5 21t-44.5 7zM250 307q-26 0 -49 -8t-40 -23
t-27.5 -36.5t-10.5 -48.5q0 -55 33.5 -85t93.5 -30q58 0 92 30t34 87q0 26 -10 47t-27 36t-40 23t-49 8z" />
    <glyph glyph-name="nine" unicode="9" horiz-adv-x="500" 
d="M447 177q0 -43 -17 -77t-45.5 -57t-67 -35.5t-80.5 -12.5q-66 0 -111 20.5t-78 49.5l50 70q31 -28 64.5 -42.5t71.5 -14.5q19 0 40.5 6t40 20t31 36.5t12.5 55.5v116q-49 -29 -88.5 -42t-69.5 -13q-77 0 -121 46t-44 131v77q0 43 17 77.5t45.5 58.5t66 36.5t78.5 12.5
q40 0 77 -12t65.5 -35t45.5 -56.5t17 -76.5v-339zM122 442q0 -53 26 -76.5t64 -23.5q35 0 70.5 15.5t75.5 40.5v99q0 32 -10.5 54t-27.5 36t-37.5 20.5t-40.5 6.5t-41 -6.5t-38.5 -20.5t-29 -36.5t-11.5 -53.5v-55z" />
    <glyph glyph-name="colon" unicode=":" horiz-adv-x="250" 
d="M65 55q0 21 14.5 39t42.5 18q29 0 45 -18t16 -39q0 -25 -16 -42.5t-45 -17.5q-28 0 -42.5 17t-14.5 43zM65 358q0 21 14.5 39t42.5 18q29 0 45 -18t16 -39q0 -25 -16 -42.5t-45 -17.5q-28 0 -42.5 17t-14.5 43z" />
    <glyph glyph-name="semicolon" unicode=";" horiz-adv-x="250" 
d="M65 358q0 21 14.5 39t42.5 18q29 0 45 -18t16 -39q0 -25 -16 -42.5t-45 -17.5q-28 0 -42.5 17t-14.5 43zM60 52q0 22 16 40t44 18q19 0 32 -7.5t21 -19t11.5 -26t3.5 -27.5q0 -28 -9 -53.5t-23.5 -46.5t-33.5 -37.5t-39 -25.5l-30 39q23 17 37 37.5t16 50.5
q-21 2 -33.5 18.5t-12.5 39.5z" />
    <glyph glyph-name="less" unicode="&#x3c;" horiz-adv-x="500" 
d="M453 63l-407 202v60l407 203v-71l-326 -162l326 -161v-71z" />
    <glyph glyph-name="equal" unicode="=" horiz-adv-x="500" 
d="M29 357v67h441v-67h-441zM29 165v67h441v-67h-441z" />
    <glyph glyph-name="greater" unicode="&#x3e;" horiz-adv-x="500" 
d="M46 134l326 161l-326 162v71l407 -203v-60l-407 -202v71z" />
    <glyph glyph-name="question" unicode="?" horiz-adv-x="459" 
d="M217 700q40 0 74.5 -13.5t60.5 -36.5t41 -55.5t15 -69.5q0 -43 -21.5 -80.5t-48 -73t-48 -69t-21.5 -67.5v-45h-86v42q0 35 9.5 62.5t23.5 50t30.5 42.5t30.5 40t23.5 41.5t9.5 48.5q0 42 -28.5 70.5t-73.5 28.5q-38 0 -73.5 -12.5t-61.5 -34.5l-44 70q44 33 90 47t98 14
zM171 55q0 21 14.5 39t42.5 18q29 0 45 -18t16 -39q0 -25 -16 -42.5t-45 -17.5q-28 0 -42.5 17t-14.5 43z" />
    <glyph glyph-name="at" unicode="@" horiz-adv-x="832" 
d="M803 371q0 -53 -15.5 -93t-39 -66t-52.5 -39t-56 -13q-45 0 -73.5 14.5t-43.5 37.5q-32 -17 -68 -32t-74 -15q-56 0 -89.5 32t-33.5 87q0 33 14.5 55t36 36t45.5 20t44 6h110v23q0 43 -26.5 59t-66.5 16q-19 0 -44 -6t-55 -30l-37 50q38 30 72 40.5t66 10.5
q75 0 117.5 -35t42.5 -105v-150q0 -29 16 -41t45 -12q18 0 36 9t32.5 28t23.5 47.5t9 66.5q0 60 -20.5 113t-59 92.5t-93 62t-122.5 22.5t-129 -24t-106.5 -65.5t-72 -98t-26.5 -121.5q0 -66 23.5 -122t65 -97t98.5 -64t125 -23q29 0 58.5 5.5t69.5 21.5l22 -61
q-48 -19 -86 -23.5t-64 -4.5q-81 0 -150 27.5t-119.5 76t-78.5 116t-28 147.5t32 148t86 117.5t126.5 77.5t153.5 28q85 0 151.5 -28t112.5 -76t70.5 -112t24.5 -136zM508 341h-99q-12 0 -26 -1.5t-26 -7.5t-20 -17.5t-8 -30.5q0 -27 18 -41t47 -14q15 0 30.5 4t30.5 10.5
t28.5 14t24.5 13.5v70z" />
    <glyph glyph-name="A" unicode="A" horiz-adv-x="597" 
d="M490 0l-54 155h-274l-53 -155h-96l240 689h93l241 -689h-97zM297 563l-50 -160l-55 -164h215l-55 164l-51 160h-4z" />
    <glyph glyph-name="B" unicode="B" horiz-adv-x="593" 
d="M550 202q0 -37 -12.5 -73t-37 -64.5t-61.5 -46.5t-85 -18h-297v689h286q47 0 83.5 -15t61.5 -40t38 -58t13 -69q0 -41 -19 -80.5t-66 -65.5q50 -26 73 -70t23 -89zM448 505q0 54 -34.5 77t-88.5 23h-175v-203h183q23 0 44 6.5t36.5 19.5t25 32.5t9.5 44.5zM459 202
q0 28 -10.5 49.5t-28 36.5t-40 23t-46.5 8h-184v-236h186q61 0 92 31t31 88z" />
    <glyph glyph-name="C" unicode="C" horiz-adv-x="527" 
d="M303 696q56 0 105 -15t88 -47l-46 -72q-27 23 -67.5 36t-79.5 13q-29 0 -57 -9t-50 -28t-35.5 -49t-13.5 -73v-215q0 -42 14 -72.5t36 -49.5t49.5 -28t54.5 -9q39 0 79.5 11t72.5 37l44 -71q-32 -26 -83 -44t-111 -18q-50 0 -95.5 15.5t-79.5 44.5t-54 71t-20 95v252
q0 52 20.5 93.5t54.5 71t79 45t95 15.5z" />
    <glyph glyph-name="D" unicode="D" horiz-adv-x="605" 
d="M552 224q0 -50 -18.5 -91.5t-50.5 -71t-75 -45.5t-92 -16h-258v689h259q49 0 92 -15.5t75 -44.5t50 -71t18 -94v-240zM458 448q0 43 -14 73t-37 49t-52.5 27t-59.5 8h-145v-523h145q28 0 57.5 8t52.5 27t38 48.5t15 73.5v209z" />
    <glyph glyph-name="E" unicode="E" horiz-adv-x="557" 
d="M61 0v689h460v-84h-368v-219h315v-83h-315v-220h368v-83h-460z" />
    <glyph glyph-name="F" unicode="F" horiz-adv-x="535" 
d="M153 605v-218h315v-84h-315v-303h-92v689h460v-84h-368z" />
    <glyph glyph-name="G" unicode="G" horiz-adv-x="580" 
d="M531 83q-21 -24 -48 -41.5t-56.5 -28t-60 -15.5t-58.5 -5q-50 0 -96 15.5t-81 44.5t-56 71t-21 95v252q0 52 21 93.5t57 71t83.5 45t100.5 15.5q57 0 105.5 -15t87.5 -47l-46 -72q-27 23 -67.5 36t-79.5 13q-32 0 -62 -9t-54 -28t-38.5 -49t-14.5 -73v-215
q0 -42 13.5 -72.5t36 -49.5t51.5 -28t60 -9q23 0 59 6.5t73 34.5v161h-110v83h201v-280v0z" />
    <glyph glyph-name="H" unicode="H" horiz-adv-x="617" 
d="M469 0v307h-323v-307h-92v689h92v-298h323v298h94v-689h-94z" />
    <glyph glyph-name="I" unicode="I" horiz-adv-x="252" 
d="M80 0v689h92v-689h-92z" />
    <glyph glyph-name="J" unicode="J" horiz-adv-x="521" 
d="M440 222q0 -53 -18.5 -95.5t-51 -72t-75.5 -45.5t-91 -16q-47 0 -99.5 13t-89.5 39l43 74q35 -22 67.5 -31.5t63.5 -9.5q35 0 64.5 9t50.5 28.5t32.5 50.5t11.5 76v447h92v-467v0z" />
    <glyph glyph-name="K" unicode="K" horiz-adv-x="572" 
d="M156 331l292 358h111l-222 -272l245 -417h-108l-199 341l-126 -150v-191h-92v689h92v-358h7z" />
    <glyph glyph-name="L" unicode="L" horiz-adv-x="535" 
d="M66 0v689h92v-606h368v-83h-460z" />
    <glyph glyph-name="M" unicode="M" horiz-adv-x="742" 
d="M378 225l85 183l137 281h85v-689h-92v469h-5l-63 -133l-116 -234h-69l-110 215l-75 152h-5v-469h-92v689h88l139 -281l87 -183h6z" />
    <glyph glyph-name="N" unicode="N" horiz-adv-x="645" 
d="M494 173v516h92v-689h-89l-241 360l-98 151h-7v-511h-92v689h87l249 -373l92 -143h7z" />
    <glyph glyph-name="O" unicode="O" horiz-adv-x="613" 
d="M561 225q0 -53 -19.5 -96t-54 -73t-81 -46.5t-100.5 -16.5q-56 0 -103 16.5t-80.5 46.5t-52 73t-18.5 96v238q0 52 18.5 95t52 73.5t80.5 47.5t103 17q55 0 102 -17t81 -47.5t53 -73.5t19 -95v-238zM468 452q0 42 -13 72t-35 49.5t-51.5 28.5t-62.5 9t-62.5 -9t-51 -28.5
t-34.5 -49.5t-13 -72v-216q0 -42 13 -72t35 -49t51.5 -28t61.5 -9q33 0 62 9t51.5 28t35.5 49t13 72v216z" />
    <glyph glyph-name="P" unicode="P" horiz-adv-x="554" 
d="M535 483q0 -37 -13.5 -73.5t-38.5 -66t-61 -48t-82 -18.5h-194v-277h-92v689h286q50 0 86.5 -18.5t60.5 -48t36 -66t12 -73.5zM444 483q0 56 -34.5 89t-88.5 33h-175v-243h175q54 0 88.5 32t34.5 89z" />
    <glyph glyph-name="Q" unicode="Q" horiz-adv-x="628" 
d="M445 -175q-92 -11 -135 25t-43 99v47q-47 6 -86 24.5t-66.5 48t-42.5 69t-15 87.5v238q0 52 18.5 95t52 73.5t80.5 47.5t103 17q55 0 102 -17t81 -47.5t53 -73.5t19 -95v-238q0 -48 -16 -88t-45 -69.5t-68.5 -48t-85.5 -23.5v-19q0 -26 5 -42.5t16 -25t29 -11t44 -0.5
v-73zM473 452q0 42 -13 72t-35 49.5t-51.5 28.5t-62.5 9t-62.5 -9t-51 -28.5t-34.5 -49.5t-13 -72v-216q0 -42 13 -72t35 -49t51.5 -28t61.5 -9q33 0 62 9t51.5 28t35.5 49t13 72v216z" />
    <glyph glyph-name="R" unicode="R" horiz-adv-x="572" 
d="M343 689q52 0 89 -18.5t61 -48t35 -66t11 -73.5q0 -29 -8 -57.5t-24 -53.5t-38.5 -45.5t-51.5 -32.5l129 -294h-102l-117 277h-178v-277h-92v689h286zM447 483q0 56 -34.5 89t-88.5 33h-175v-243h175q54 0 88.5 32t34.5 89z" />
    <glyph glyph-name="S" unicode="S" horiz-adv-x="556" 
d="M525 191q0 -46 -17.5 -82.5t-50 -62t-77.5 -39t-100 -13.5q-71 0 -133.5 20t-120.5 65l52 66q46 -32 97.5 -50t105.5 -18q70 0 110 30t40 84q0 34 -15.5 55.5t-40 34.5t-54 20t-57.5 13q-41 8 -79 20.5t-67 34.5t-47 54.5t-18 80.5q0 43 15.5 79.5t44.5 62.5t70 41t93 15
q60 0 117 -11t109 -43l-43 -78q-44 26 -91.5 37t-92.5 11q-27 0 -51 -7t-42 -21.5t-28.5 -36.5t-10.5 -51t15 -47t38 -29.5t50 -18.5t51 -12q43 -10 84 -22.5t73 -34.5t51.5 -57t19.5 -90z" />
    <glyph glyph-name="T" unicode="T" horiz-adv-x="522" 
d="M308 604v-604h-93v604h-199v85h490v-85h-198z" />
    <glyph glyph-name="U" unicode="U" horiz-adv-x="610" 
d="M561 218q0 -53 -20.5 -95t-55.5 -71t-81 -44t-98 -15t-98.5 15t-81 44t-54.5 71t-20 95v471h93v-454q0 -42 13 -72t35 -49t51.5 -28t61.5 -9q31 0 60.5 9t52 28t36 49t13.5 72v454h93v-471v0z" />
    <glyph glyph-name="V" unicode="V" horiz-adv-x="565" 
d="M285 142l70 236l98 311h101l-222 -689h-100l-222 689h101l101 -323l67 -224h6z" />
    <glyph glyph-name="W" unicode="W" horiz-adv-x="862" 
d="M428 524l-52 -216l-80 -308h-104l-182 689h100l78 -317l54 -228h5l55 229l80 316h97l82 -326l53 -219h5l52 222l80 323h100l-182 -689h-104l-81 312l-50 212h-6z" />
    <glyph glyph-name="X" unicode="X" horiz-adv-x="550" 
d="M435 0l-160 278l-159 -278h-107l214 353l-200 336h107l145 -260l146 260h107l-200 -336l214 -353h-107z" />
    <glyph glyph-name="Y" unicode="Y" horiz-adv-x="537" 
d="M272 364l74 166l78 159h100l-209 -424v-265h-93v264l-210 425h101l80 -164l72 -161h7z" />
    <glyph glyph-name="Z" unicode="Z" horiz-adv-x="523" 
d="M488 610l-344 -527h343v-83h-450v81l340 524h-326v84h437v-79z" />
    <glyph glyph-name="bracketleft" unicode="[" horiz-adv-x="261" 
d="M73 -105v803h169v-56h-94v-691h94v-56h-169z" />
    <glyph glyph-name="backslash" unicode="\" horiz-adv-x="317" 
d="M-1 725h65l251 -767h-65z" />
    <glyph glyph-name="bracketright" unicode="]" horiz-adv-x="261" 
d="M27 -105v56h93v691h-93v56h168v-803h-168z" />
    <glyph glyph-name="asciicircum" unicode="^" horiz-adv-x="500" 
d="M23 328l202 367h60l203 -367h-71l-162 295l-161 -295h-71z" />
    <glyph glyph-name="underscore" unicode="_" horiz-adv-x="500" 
d="M0 -129v60h500v-60h-500z" />
    <glyph glyph-name="grave" unicode="`" horiz-adv-x="491" 
d="M294 551l-100 172l81 25l72 -177z" />
    <glyph glyph-name="a" unicode="a" horiz-adv-x="496" 
d="M360 48q-59 -33 -96.5 -42.5t-67.5 -9.5q-72 0 -115 40t-43 109q0 41 18.5 69t46 45.5t59 25t56.5 7.5h145v38q0 52 -29 72.5t-83 20.5q-26 0 -63.5 -7.5t-75.5 -38.5l-42 65q48 37 97 48t91 11q97 0 143.5 -42.5t46.5 -130.5v-328h-75l-10 46zM363 221h-131
q-16 0 -34.5 -2.5t-34.5 -10t-26.5 -23t-10.5 -40.5q0 -36 24.5 -54t62.5 -18q19 0 39.5 5.5t40 13.5t37.5 17.5t33 17.5v94z" />
    <glyph glyph-name="b" unicode="b" horiz-adv-x="501" 
d="M454 172q0 -85 -46.5 -131t-120.5 -46q-26 0 -63 9t-93 43l-10 -47h-76v716h86v-272q62 35 98 46t62 11q81 0 122 -46t41 -131v-152zM368 313q0 58 -24 81t-64 23q-31 0 -70.5 -18t-78.5 -43v-226q16 -11 36 -21t40.5 -17t39.5 -11t33 -4q39 0 63.5 24t24.5 81v131z" />
    <glyph glyph-name="c" unicode="c" horiz-adv-x="429" 
d="M243 501q43 0 87.5 -11.5t79.5 -49.5l-51 -65q-33 31 -61.5 38.5t-50.5 7.5q-19 0 -39.5 -6t-37 -20t-27 -36.5t-10.5 -54.5v-112q0 -32 10 -54.5t26 -36.5t36.5 -20t41.5 -6q22 0 53.5 9t54.5 32l53 -60q-35 -35 -77.5 -48t-85.5 -13q-44 0 -80 13t-62.5 36t-41 55.5
t-14.5 71.5v147q0 42 16 76t43 58t62.5 36.5t74.5 12.5z" />
    <glyph glyph-name="d" unicode="d" horiz-adv-x="501" 
d="M380 0l-10 52q-59 -35 -94.5 -46t-62.5 -11q-36 0 -66.5 10.5t-52.5 32t-34.5 55t-12.5 79.5v152q0 42 13.5 75t37 55.5t55.5 34.5t68 12q27 0 63.5 -6t85.5 -22v243h85v-716h-75zM370 389q-40 14 -75 22.5t-66 8.5q-40 1 -68 -23.5t-28 -82.5v-137q0 -57 24 -78.5
t64 -21.5q14 0 33 4.5t39 12.5t40 18.5t37 22.5v254z" />
    <glyph glyph-name="e" unicode="e" horiz-adv-x="483" 
d="M133 216v-33q0 -30 10 -50.5t27.5 -34t40 -19.5t46.5 -6q25 0 58 10t64 39l54 -59q-38 -39 -84.5 -53.5t-93.5 -14.5q-42 0 -80 11.5t-66.5 34t-45 56.5t-16.5 79v131q0 44 15 80t41.5 61t63 38.5t80.5 13.5t81 -13t63.5 -37t41 -58.5t14.5 -77.5v-98h-314zM360 305
q0 31 -9 53t-24.5 36.5t-36 21t-43.5 6.5t-43 -7t-36 -21t-25 -35.5t-9 -50.5v-22h226v19z" />
    <glyph glyph-name="f" unicode="f" horiz-adv-x="303" 
d="M172 419v-419h-85v419h-61v77h61v90q0 66 38 98t92 32h89v-76h-81q-32 0 -42.5 -19t-10.5 -45v-80h134v-77h-134z" />
    <glyph glyph-name="g" unicode="g" horiz-adv-x="499" 
d="M209 501q27 0 63.5 -11.5t92.5 -46.5l10 53h76v-526q0 -43 -17.5 -76t-47 -55.5t-67.5 -34t-79 -11.5q-44 0 -91.5 15t-87.5 50l53 63q12 -11 27.5 -20t33 -15t34 -9.5t30.5 -3.5q24 0 46.5 6t40.5 20t28.5 36t10.5 54v58q-50 -31 -89.5 -41.5t-66.5 -10.5
q-73 0 -119.5 45.5t-46.5 130.5v153q0 85 46.5 131t119.5 46zM365 356q-37 27 -78 44t-70 17q-41 0 -64.5 -23t-23.5 -82v-130q0 -57 24 -81.5t64 -23.5q31 0 71.5 14.5t76.5 37.5v227z" />
    <glyph glyph-name="h" unicode="h" horiz-adv-x="497" 
d="M296 501q81 0 120.5 -46t39.5 -131v-324h-86v313q0 58 -25 81t-63 23q-31 0 -71 -15t-78 -40v-362h-86v716h86v-276q60 39 98 50t65 11z" />
    <glyph glyph-name="i" unicode="i" horiz-adv-x="227" 
d="M167 646q0 -22 -16 -38t-38 -16q-21 0 -37 16t-16 38t16 37.5t37 15.5q22 0 38 -15.5t16 -37.5zM71 0v496h85v-496h-85z" />
    <glyph glyph-name="j" unicode="j" horiz-adv-x="243" 
d="M183 646q0 -21 -14.5 -36t-35.5 -15t-35.5 15t-14.5 36t14.5 35.5t35.5 14.5t35.5 -14.5t14.5 -35.5zM91 495h85v-547q0 -83 -38 -117.5t-107 -34.5h-49v78h39q40 0 55 17.5t15 68.5v535z" />
    <glyph glyph-name="k" unicode="k" horiz-adv-x="481" 
d="M46 0v716h85v-390h73q31 0 56 11.5t45 52.5l55 108h96l-60 -126q-14 -29 -30 -49t-46 -31q21 -7 35 -18.5t23 -25.5t15 -30t11 -32l62 -186h-95l-52 159q-8 25 -17.5 41.5t-21 26t-26.5 13t-35 3.5h-88v-243h-85z" />
    <glyph glyph-name="l" unicode="l" horiz-adv-x="277" 
d="M168 132q0 -39 17.5 -48.5t58.5 -7.5l2 -78q-14 -2 -26.5 -3t-23.5 -1q-35 0 -56.5 8.5t-34.5 25t-17.5 40t-4.5 53.5v595h85v-584z" />
    <glyph glyph-name="m" unicode="m" horiz-adv-x="757" 
d="M275 501q45 0 77 -19.5t49 -56.5q30 24 54 39t43 23.5t34 11t29 2.5q71 0 112 -39t41 -123v-339h-86v321q0 50 -19 73t-63 23q-26 0 -57.5 -16t-70.5 -46q2 -9 2.5 -16t0.5 -17v-322h-86v324q0 51 -21.5 72t-53.5 21q-31 0 -60.5 -11.5t-71.5 -40.5v-365h-86v496h76
l9 -57q27 20 48.5 32t39 19t32 9t28.5 2z" />
    <glyph glyph-name="n" unicode="n" horiz-adv-x="497" 
d="M298 501q73 0 114 -46t41 -131v-324h-86v313q0 58 -25 81.5t-63 22.5q-30 0 -70.5 -15.5t-78.5 -39.5v-362h-86v496h76l10 -55q32 20 57.5 32t45.5 18t36 8t29 2z" />
    <glyph glyph-name="o" unicode="o" horiz-adv-x="505" 
d="M458 175q0 -43 -16.5 -76.5t-45 -56.5t-65.5 -35t-79 -12q-43 0 -80 12t-64.5 35t-43.5 56.5t-16 76.5v144q0 43 16.5 76.5t44 57t65 36t79.5 12.5q45 0 82.5 -12.5t65 -36t42.5 -57t15 -76.5v-144zM373 304q0 32 -11 54.5t-28.5 36.5t-38.5 20t-41 6q-21 0 -42 -6
t-38.5 -20t-28.5 -36.5t-11 -54.5v-112q0 -32 9.5 -54.5t25.5 -36.5t38 -20t47 -6q20 0 41 6t38.5 20t28.5 36.5t11 54.5v112z" />
    <glyph glyph-name="p" unicode="p" horiz-adv-x="503" 
d="M125 495l10 -52q59 35 94.5 46t62.5 11q73 0 119.5 -43t46.5 -134v-152q0 -85 -46.5 -131t-127.5 -46q-27 0 -63 5.5t-86 25.5v-223h-85v693h75zM135 106q46 -19 78 -25t63 -6q20 0 37.5 4.5t30.5 16t20.5 31t7.5 48.5v142q0 57 -24 78.5t-64 21.5q-14 0 -33 -5
t-39.5 -13t-40.5 -18.5t-36 -21.5v-253z" />
    <glyph glyph-name="q" unicode="q" horiz-adv-x="497" 
d="M368 -199v244q-57 -32 -93.5 -41t-63.5 -9q-73 0 -119.5 46t-46.5 131v152q0 85 46.5 131t119.5 46q27 0 63 -10t95 -44l10 48h74v-694h-85zM368 364q-39 24 -80.5 39.5t-68.5 15.5q-40 0 -64 -24t-24 -81v-131q0 -58 25 -81.5t63 -22.5q31 0 69.5 13.5t79.5 39.5v232z
" />
    <glyph glyph-name="r" unicode="r" horiz-adv-x="332" 
d="M328 411q-67 -6 -110.5 -23.5t-66.5 -32.5v-355h-86v496h76l9 -73h1q13 13 33 27t43 25.5t49 19t52 7.5v-91z" />
    <glyph glyph-name="s" unicode="s" horiz-adv-x="454" 
d="M425 142q0 -35 -15 -62t-41 -46.5t-62 -29.5t-79 -10q-52 0 -101 13.5t-99 51.5l47 63q37 -31 76 -42.5t85 -11.5q18 0 36.5 4.5t33 13.5t23.5 23.5t9 34.5q0 32 -23 46t-58 20q-38 6 -75.5 13.5t-67.5 22.5t-49 40t-19 66q0 34 14 62t39 47t57.5 29.5t70.5 10.5
q56 0 99 -11.5t83 -40.5l-43 -64q-35 22 -68 31t-71 9q-44 0 -71 -20.5t-27 -51.5q0 -26 22 -39t55 -20.5t71 -14t71 -21.5t55 -42t22 -74z" />
    <glyph glyph-name="t" unicode="t" horiz-adv-x="363" 
d="M356 12q-29 -10 -60.5 -13.5t-46.5 -3.5q-79 0 -114 36t-35 120v268h-70v77h72l20 115h63v-115h138v-77h-138v-242q0 -30 5.5 -49.5t15 -31t23.5 -15.5t32 -4q17 0 37.5 2.5t43.5 5.5z" />
    <glyph glyph-name="u" unicode="u" horiz-adv-x="505" 
d="M382 0l-10 53q-31 -19 -54.5 -30.5t-42 -17.5t-33 -8t-27.5 -2q-79 0 -123 46t-44 131v324h86v-315q0 -58 25.5 -81.5t63.5 -22.5q30 0 69.5 16t79.5 45v358h86v-496h-76z" />
    <glyph glyph-name="v" unicode="v" horiz-adv-x="457" 
d="M234 116l56 183l64 196h93l-176 -495h-84l-177 495h94l65 -194l59 -185h6z" />
    <glyph glyph-name="w" unicode="w" horiz-adv-x="702" 
d="M352 340l-50 -158l-59 -182h-82l-141 496h89l46 -180l47 -186h4l59 181l47 137h87l52 -156l52 -162h5l43 175l48 191h85l-134 -496h-82l-61 185l-51 155h-4z" />
    <glyph glyph-name="x" unicode="x" horiz-adv-x="434" 
d="M325 0l-111 186l-114 -186h-101l168 254l-158 242h103l103 -173l105 173h102l-160 -240l167 -256h-104z" />
    <glyph glyph-name="y" unicode="y" horiz-adv-x="468" 
d="M113 -201l73 210l-42 35l-134 452h93l60 -218l55 -198h3l70 198l75 218h92l-253 -697h-92z" />
    <glyph glyph-name="z" unicode="z" horiz-adv-x="450" 
d="M41 0v68l261 351h-247v76h356v-70l-261 -349h261v-76h-370z" />
    <glyph glyph-name="braceleft" unicode="{" horiz-adv-x="261" 
d="M185 -103q-39 0 -65.5 25t-26.5 82v139q0 53 -19 88t-59 40v51q20 3 34.5 14.5t24.5 29t14.5 40t4.5 46.5v136q0 50 26.5 79t65.5 29h68v-54h-41q-14 0 -22.5 -8t-14 -20.5t-7.5 -28t-2 -30.5v-125q0 -32 -9 -55.5t-21 -39.5t-24.5 -24.5t-20.5 -11.5v-3q8 -3 20.5 -11.5
t24.5 -24.5t21 -39t9 -54v-130q0 -15 2 -30.5t7.5 -28t14 -20.5t22.5 -8h41v-53h-68z" />
    <glyph glyph-name="bar" unicode="|" horiz-adv-x="204" 
d="M70 -162v878h65v-878h-65z" />
    <glyph glyph-name="braceright" unicode="}" horiz-adv-x="261" 
d="M249 271q-40 -5 -58.5 -40t-18.5 -88v-139q0 -49 -26.5 -78t-65.5 -29h-69v53h42q13 0 22 8t14 20.5t7.5 28t2.5 30.5v130q0 31 8.5 54t20.5 39t25 24.5t21 11.5v3q-8 3 -21 11.5t-25 24.5t-20.5 39.5t-8.5 55.5v125q0 15 -0.5 30.5t-5 28t-14 20.5t-26.5 8h-42v50h66
q48 0 71.5 -29.5t23.5 -74.5v-136q0 -24 4.5 -46.5t14 -40t24 -29t34.5 -14.5v-51v0z" />
    <glyph glyph-name="asciitilde" unicode="~" horiz-adv-x="500" 
d="M477 312q-28 -45 -58.5 -66.5t-76.5 -21.5q-20 0 -43.5 9.5t-47.5 21.5t-47.5 21.5t-44.5 9.5q-27 0 -43.5 -12.5t-36.5 -38.5l-53 39q27 46 61.5 65t73.5 19q23 0 47 -9.5t47.5 -21t46 -21t43.5 -9.5q25 0 42 13.5t37 40.5l53 -39v0z" />
    <glyph glyph-name="exclamdown" unicode="&#xa1;" horiz-adv-x="237" 
d="M82 307h75l7 -507h-89zM178 441q0 -21 -14.5 -39t-42.5 -18q-29 0 -45 18t-16 39q0 25 16 42.5t45 17.5q28 0 42.5 -17t14.5 -43z" />
    <glyph glyph-name="cent" unicode="&#xa2;" horiz-adv-x="429" 
d="M221 -4q-39 3 -71 17.5t-55 37t-35.5 53.5t-12.5 67v147q0 39 14 71.5t37.5 55.5t55 37.5t67.5 17.5v101h45v-101q38 -2 76 -14.5t68 -45.5l-51 -65q-26 25 -49.5 34t-43.5 11v-344q21 2 45.5 12t43.5 28l53 -60q-31 -31 -67.5 -44.5t-74.5 -15.5v-113h-45v113zM133 192
q0 -55 26.5 -82t61.5 -33v341q-17 -3 -32.5 -11.5t-28 -22t-20 -33.5t-7.5 -47v-112z" />
    <glyph glyph-name="sterling" unicode="&#xa3;" horiz-adv-x="500" 
d="M56 357h69q-11 40 -26 78.5t-15 80.5q0 34 13 66.5t37 57.5t58.5 40t78.5 15q66 0 113.5 -21t85.5 -74l-64 -51q-29 39 -64 53.5t-70 14.5q-14 0 -30.5 -5.5t-31 -17.5t-24 -31.5t-9.5 -46.5q0 -21 4.5 -41t11 -39.5t13.5 -39t11 -39.5h159v-68h-152q-2 -54 -14 -107
t-47 -106h306v-76h-413v64q36 48 60.5 103.5t26.5 121.5h-87v68z" />
    <glyph glyph-name="currency" unicode="&#xa4;" horiz-adv-x="556" 
d="M40 505q13 14 24.5 25t24.5 24l68 -68q29 19 58 28.5t61 9.5t61 -9.5t58 -28.5l67 68l49 -50l-68 -67q38 -58 38 -118q0 -59 -38 -118q16 -15 34 -32t34 -34l-49 -50l-67 68q-56 -39 -119 -39q-64 0 -119 39l-68 -68q-10 11 -25 25.5t-24 23.5l69 67q-38 59 -38 118
q0 60 38 118zM142 319q0 -27 10.5 -51.5t28.5 -42.5t42 -28.5t52 -10.5t52.5 10.5t42.5 28.5t28.5 42.5t10.5 51.5q0 28 -10.5 52.5t-28.5 42.5t-42.5 28.5t-52.5 10.5t-52 -10.5t-42 -28.5t-28.5 -42.5t-10.5 -52.5z" />
    <glyph glyph-name="yen" unicode="&#xa5;" horiz-adv-x="500" 
d="M46 215h160v49l-15 33h-145v61h118l-148 331h101l132 -319h7l132 319h100l-148 -331h117v-61h-144l-14 -32v-50h158v-57h-158v-158h-93v158h-160v57z" />
    <glyph glyph-name="brokenbar" unicode="&#xa6;" horiz-adv-x="204" 
d="M70 304v412h65v-412h-65zM135 246v-408h-65v408h65z" />
    <glyph glyph-name="section" unicode="&#xa7;" horiz-adv-x="444" 
d="M398 312q0 -39 -14.5 -69t-43.5 -57q12 -14 22.5 -36.5t10.5 -51.5q0 -39 -14 -68.5t-37 -48.5t-53 -28.5t-63 -9.5q-38 0 -73 9.5t-61 28.5l29 62q20 -14 45 -23.5t60 -9.5q18 0 34 4.5t29 14t20.5 23.5t7.5 33q0 16 -4.5 29.5t-16.5 26t-32 24.5t-50 26
q-29 12 -54.5 26.5t-45.5 33t-31.5 43t-11.5 56.5q0 30 13.5 63t49.5 62q-15 16 -24 36t-9 46q0 35 13 62.5t35.5 46.5t52.5 29t64 10q32 0 67 -8.5t59 -22.5l-33 -64q-21 13 -44.5 20.5t-52.5 7.5q-15 0 -30 -4.5t-27.5 -13t-20 -21t-7.5 -29.5q0 -43 51 -72
q35 -20 69 -36.5t61 -36.5t43.5 -46.5t16.5 -66.5zM166 435q-43 -32 -43 -75q0 -28 15.5 -45t38.5 -29t50 -23.5t50 -27.5q23 12 33 31t10 39q0 24 -15.5 43t-39 34.5t-50.5 28t-49 24.5z" />
    <glyph glyph-name="dieresis" unicode="&#xa8;" horiz-adv-x="489" 
d="M386 639q0 -20 -14.5 -34.5t-34.5 -14.5t-34.5 14.5t-14.5 34.5t14.5 34t34.5 14t34.5 -14t14.5 -34zM190 639q0 -20 -14.5 -34.5t-34.5 -14.5t-34 14.5t-14 34.5t14 34t34 14t34.5 -14t14.5 -34z" />
    <glyph glyph-name="copyright" unicode="&#xa9;" horiz-adv-x="803" 
d="M404 -8q-76 0 -139.5 26.5t-110 73.5t-72.5 110.5t-26 138.5t26.5 139.5t73.5 111.5t110.5 73.5t137.5 26.5t138 -26.5t111 -73.5t73.5 -111.5t26.5 -139.5t-26.5 -138.5t-73.5 -110.5t-111 -73.5t-138 -26.5zM404 631q-61 0 -113 -22t-90.5 -61t-60 -92t-21.5 -115
t21.5 -114.5t60 -91t90.5 -60.5t113 -22t113 22t90.5 60.5t60 91t21.5 114.5t-21.5 115t-60 92t-90.5 61t-113 22zM408 558q39 0 73 -10.5t61 -32.5l-32 -50q-19 16 -47 25t-55 9q-20 0 -39.5 -6t-34.5 -19.5t-24.5 -34t-9.5 -50.5v-105q0 -29 9.5 -50t25 -34.5t34.5 -19.5
t38 -6q27 0 55 7.5t50 25.5l31 -49q-22 -18 -57.5 -30.5t-77.5 -12.5q-35 0 -66 10.5t-54.5 31t-37.5 49.5t-14 65v131q0 36 14 65t38 49t55 31t65 11z" />
    <glyph glyph-name="ordfeminine" unicode="&#xaa;" horiz-adv-x="342" 
d="M243 307q-23 -17 -50.5 -26.5t-56.5 -9.5q-52 0 -83 27t-31 75q0 28 13 47.5t32.5 31.5t42 17t40.5 5h92v18q-1 31 -21.5 41.5t-50.5 10.5q-17 0 -40.5 -5t-52.5 -28l-36 53q36 26 69.5 34.5t62.5 8.5q69 0 105 -28.5t36 -88.5v-216h-65zM242 415h-82q-9 0 -20.5 -1.5
t-21.5 -6t-16.5 -12.5t-6.5 -22q0 -19 14.5 -29t37.5 -10q24 0 49.5 10.5t45.5 21.5v49z" />
    <glyph glyph-name="guillemotleft" unicode="&#xab;" horiz-adv-x="459" 
d="M343 46l-127 186l127 186h78l-123 -186l123 -186h-78zM171 46l-127 186l127 186h78l-124 -186l124 -186h-78z" />
    <glyph glyph-name="logicalnot" unicode="&#xac;" horiz-adv-x="500" 
d="M469 70h-64v192h-376v64h441z" />
    <glyph glyph-name="sfthyphen" unicode="&#xad;" horiz-adv-x="392" 
d="M52 230v75h288v-75h-288z" />
    <glyph glyph-name="registered" unicode="&#xae;" horiz-adv-x="560" 
d="M488 492q0 -45 -16 -82.5t-44 -65.5t-66 -43.5t-83 -15.5q-44 0 -82.5 15.5t-66.5 43.5t-44 65.5t-16 82.5t16 83.5t44 66.5t66.5 44t82.5 16q45 0 83 -16t66 -44t44 -66.5t16 -83.5zM448 492q0 37 -13 68.5t-35.5 54.5t-53.5 36t-67 13t-67 -13t-53.5 -36t-35.5 -54.5
t-13 -68.5q0 -36 13 -67.5t35.5 -54t53.5 -35.5t67 -13t67 13t53.5 35.5t35.5 54t13 67.5zM284 472h-42v-101h-41v242h100q30 0 51 -18.5t21 -50.5q0 -23 -13 -40.5t-34 -25.5l56 -107h-47zM242 576v-66h52q17 0 27.5 9t10.5 25q0 32 -37 32h-53z" />
    <glyph glyph-name="macron" unicode="&#xaf;" horiz-adv-x="491" 
d="M127 600v75h268v-75h-268z" />
    <glyph glyph-name="degree" unicode="&#xb0;" horiz-adv-x="382" 
d="M325 568q0 -28 -10.5 -52t-28.5 -42t-42.5 -28.5t-52.5 -10.5t-52.5 10.5t-43 28.5t-29 42t-10.5 52t10.5 52.5t29 42.5t43 28.5t52.5 10.5t52.5 -10.5t42.5 -28.5t28.5 -42.5t10.5 -52.5zM268 568q0 32 -22.5 54.5t-54.5 22.5t-54.5 -22.5t-22.5 -54.5t22.5 -54.5
t54.5 -22.5t54.5 22.5t22.5 54.5z" />
    <glyph glyph-name="plusminus" unicode="&#xb1;" horiz-adv-x="500" 
d="M282 291v-174h-64v174h-184v64h184v174h64v-174h183v-64h-183zM34 0v64h431v-64h-431z" />
    <glyph glyph-name="twosuperior" unicode="&#xb2;" horiz-adv-x="311" 
d="M303 671q0 -21 -9.5 -40t-24.5 -36.5t-33.5 -32.5t-36.5 -27q-14 -9 -32 -20.5t-34 -25t-26.5 -27.5t-10.5 -29v-7h207v-62h-281v56q0 28 10 50.5t26.5 40.5t38 33.5t43.5 30.5q11 7 26.5 17t29.5 22t24 26t10 29q0 26 -24.5 38t-51.5 12q-26 0 -48.5 -9t-42.5 -24
l-39 50q26 20 60 34t72 14q28 0 55 -5.5t47 -19t32.5 -35t12.5 -53.5z" />
    <glyph glyph-name="threesuperior" unicode="&#xb3;" horiz-adv-x="325" 
d="M156 782q25 0 50 -6t44.5 -19.5t31.5 -35t12 -52.5q0 -28 -15.5 -52.5t-47.5 -35.5q38 -17 51.5 -41.5t13.5 -51.5q0 -32 -11.5 -56t-31.5 -40.5t-47 -24.5t-57 -8q-42 0 -77 12.5t-59 30.5l39 53q20 -15 46 -23t47 -8q34 0 56 15.5t22 44.5t-19.5 45t-48.5 16h-53v63h54
q10 0 22 3.5t22 11t16.5 19t6.5 27.5q0 13 -7 22.5t-17.5 15.5t-24 9t-26.5 3q-21 0 -47 -7.5t-46 -23.5l-35 51q23 20 59 31.5t77 11.5z" />
    <glyph glyph-name="acute" unicode="&#xb4;" horiz-adv-x="491" 
d="M193 571l72 177l81 -25l-100 -172z" />
    <glyph glyph-name="mu" unicode="&#xb5;" horiz-adv-x="507" 
d="M372 0v52q-29 -20 -52.5 -31.5t-42 -17t-34 -7t-28.5 -1.5q-50 0 -81 25v-220h-86v696h86v-313q0 -58 25 -81.5t64 -22.5q30 0 67.5 15t81.5 46v356h85v-496h-85z" />
    <glyph glyph-name="mu" unicode="&#x3bc;" horiz-adv-x="507" 
d="M372 0v52q-29 -20 -52.5 -31.5t-42 -17t-34 -7t-28.5 -1.5q-50 0 -81 25v-220h-86v696h86v-313q0 -58 25 -81.5t64 -22.5q30 0 67.5 15t81.5 46v356h85v-496h-85z" />
    <glyph glyph-name="paragraph" unicode="&#xb6;" horiz-adv-x="526" 
d="M461 57q0 -45 -9 -79.5t-31.5 -58.5t-60.5 -37.5t-96 -16.5l-5 70q46 5 72 17t38.5 29.5t15 40.5t2.5 50v634h74v-649zM232 339q-40 0 -74 14t-58.5 39t-38 58.5t-13.5 71.5q0 37 14 70.5t38.5 59t58.5 40t73 14.5h92v-367h-92z" />
    <glyph glyph-name="periodcentered" unicode="&#xb7;" horiz-adv-x="226" 
d="M113 337q26 0 44.5 -19t18.5 -45t-18.5 -44.5t-44.5 -18.5t-44.5 18.5t-18.5 44.5t18.5 45t44.5 19z" />
    <glyph glyph-name="cedilla" unicode="&#xb8;" horiz-adv-x="431" 
d="M265 36l-24 -75q29 -2 48 -10.5t30.5 -21t16.5 -26.5t5 -26q0 -13 -5.5 -27.5t-17.5 -27t-32 -20.5t-48 -8q-17 0 -43.5 3t-51.5 13l16 42q21 -7 41 -9.5t34 -2.5q25 0 37 10.5t12 25.5q0 12 -10.5 26t-39.5 14h-6t-8 -1l-31 18l32 107z" />
    <glyph glyph-name="onesuperior" unicode="&#xb9;" horiz-adv-x="285" 
d="M129 364v328l-52 -39l-39 50l98 76h64v-415h-71z" />
    <glyph glyph-name="ordmasculine" unicode="&#xba;" horiz-adv-x="348" 
d="M320 397q0 -29 -12 -52.5t-32 -40t-46.5 -25t-55.5 -8.5q-30 0 -56.5 8.5t-46 25t-31 40t-11.5 52.5v83q0 28 11.5 51.5t31.5 40.5t46.5 26t56.5 9q31 0 58 -9t46 -26t30 -40.5t11 -51.5v-83zM249 471q0 19 -7 32.5t-17.5 22.5t-23.5 13t-26 4t-26 -4t-24 -13t-18 -22.5
t-7 -32.5v-64q0 -38 22 -54.5t53 -16.5q13 0 26 4t23.5 12.5t17.5 22t7 32.5v64z" />
    <glyph glyph-name="guillemotright" unicode="&#xbb;" horiz-adv-x="459" 
d="M45 46l123 186l-123 186h78l127 -186l-127 -186h-78zM217 46l124 186l-124 186h78l127 -186l-127 -186h-78z" />
    <glyph glyph-name="onequarter" unicode="&#xbc;" horiz-adv-x="800" 
d="M164 274v328l-52 -39l-39 50l98 76h64v-415h-71zM209 -17h-66l425 730h67zM688 61v-61h-73v61h-191v54l149 299h76l-145 -292h111v120h73v-120h38v-61h-38z" />
    <glyph glyph-name="onehalf" unicode="&#xbd;" horiz-adv-x="800" 
d="M152 274v328l-52 -39l-39 50l98 76h64v-415h-71zM172 -17h-66l425 730h67zM738 307q0 -21 -9.5 -40t-24.5 -36.5t-33.5 -32.5t-36.5 -27q-14 -9 -32 -20.5t-34 -25t-26.5 -27.5t-10.5 -29v-7h207v-62h-281v56q0 28 10 50.5t26.5 40.5t38 33.5t43.5 30.5q11 7 26.5 17
t29.5 22t24 26t10 29q0 26 -24.5 38t-51.5 12q-26 0 -48.5 -9t-42.5 -24l-39 50q26 20 60 34t72 14q28 0 55 -5.5t47 -19t32.5 -35t12.5 -53.5z" />
    <glyph glyph-name="threequarters" unicode="&#xbe;" horiz-adv-x="800" 
d="M178 692q25 0 50 -6t44.5 -19.5t31.5 -35t12 -52.5q0 -28 -15.5 -52.5t-47.5 -35.5q38 -17 51.5 -41.5t13.5 -51.5q0 -32 -11.5 -56t-31.5 -40.5t-47 -24.5t-57 -8q-42 0 -77 12.5t-59 30.5l39 53q20 -15 46 -23t47 -8q34 0 56 15.5t22 44.5t-19.5 45t-48.5 16h-53v63h54
q10 0 22 3.5t22 11t16.5 19t6.5 27.5q0 13 -7 22.5t-17.5 15.5t-24 9t-26.5 3q-21 0 -47 -7.5t-46 -23.5l-35 51q23 20 59 31.5t77 11.5zM251 -17h-66l425 730h67zM726 61v-61h-73v61h-191v54l149 299h76l-145 -292h111v120h73v-120h38v-61h-38z" />
    <glyph glyph-name="questiondown" unicode="&#xbf;" horiz-adv-x="459" 
d="M261 -204q-40 0 -74.5 13.5t-60.5 36.5t-41 55t-15 70q0 43 21.5 80.5t48 73t48 69t21.5 67.5v45h86v-42q0 -35 -9.5 -62.5t-23.5 -50t-30.5 -42.5t-30.5 -40t-23.5 -42t-9.5 -48q0 -42 28.5 -70.5t73.5 -28.5q38 0 73.5 12.5t61.5 34.5l44 -70q-44 -33 -90 -47t-98 -14z
M307 441q0 -21 -14.5 -39t-42.5 -18q-29 0 -45 18t-16 39q0 25 16 42.5t45 17.5q28 0 42.5 -17t14.5 -43z" />
    <glyph glyph-name="Agrave" unicode="&#xc0;" horiz-adv-x="597" 
d="M490 0l-54 155h-274l-53 -155h-96l240 689h93l241 -689h-97zM297 563l-50 -160l-55 -164h215l-55 164l-51 160h-4zM292 738l-170 103l59 61l148 -122z" />
    <glyph glyph-name="Aacute" unicode="&#xc1;" horiz-adv-x="597" 
d="M490 0l-54 155h-274l-53 -155h-96l240 689h93l241 -689h-97zM297 563l-50 -160l-55 -164h215l-55 164l-51 160h-4zM250 780l148 122l59 -61l-170 -103z" />
    <glyph glyph-name="Acircumflex" unicode="&#xc2;" horiz-adv-x="597" 
d="M490 0l-54 155h-274l-53 -155h-96l240 689h93l241 -689h-97zM297 563l-50 -160l-55 -164h215l-55 164l-51 160h-4zM300 826l-144 -87l-29 38l150 128h53l143 -126l-30 -39z" />
    <glyph glyph-name="Atilde" unicode="&#xc3;" horiz-adv-x="597" 
d="M490 0l-54 155h-274l-53 -155h-96l240 689h93l241 -689h-97zM297 563l-50 -160l-55 -164h215l-55 164l-51 160h-4zM227 869q18 0 36.5 -7.5t35.5 -16t33 -16t29 -7.5q15 0 30 10.5t31 34.5l52 -29q-22 -46 -48.5 -67.5t-58.5 -21.5q-18 0 -35.5 6.5t-34.5 14.5
t-32.5 14.5t-30.5 6.5q-17 0 -30.5 -8.5t-32.5 -31.5l-52 29q20 42 49 65.5t59 23.5z" />
    <glyph glyph-name="Adieresis" unicode="&#xc4;" horiz-adv-x="597" 
d="M490 0l-54 155h-274l-53 -155h-96l240 689h93l241 -689h-97zM297 563l-50 -160l-55 -164h215l-55 164l-51 160h-4zM447 811q0 -20 -14.5 -34.5t-34.5 -14.5t-34.5 14.5t-14.5 34.5t14.5 34t34.5 14t34.5 -14t14.5 -34zM251 811q0 -20 -14.5 -34.5t-34.5 -14.5t-34 14.5
t-14 34.5t14 34t34 14t34.5 -14t14.5 -34z" />
    <glyph glyph-name="Aring" unicode="&#xc5;" horiz-adv-x="597" 
d="M490 0l-54 155h-274l-53 -155h-96l240 689h93l241 -689h-97zM297 563l-50 -160l-55 -164h215l-55 164l-51 160h-4zM402 812q0 -21 -8 -40t-22 -33t-33 -22t-40 -8t-40 8t-33.5 22t-22.5 33t-8 40t8 40t22.5 32.5t33.5 21.5t40 8t40 -8t33 -21.5t22 -32.5t8 -40zM354 812
q0 23 -16 38.5t-39 15.5t-39.5 -15.5t-16.5 -38.5t16.5 -39t39.5 -16t39 16t16 39z" />
    <glyph glyph-name="AE" unicode="&#xc6;" horiz-adv-x="977" 
d="M491 0v204h-259l-130 -204h-100l444 689h505v-84h-368v-219h315v-83h-315v-220h368v-83h-460zM281 280h210v325z" />
    <glyph glyph-name="Ccedilla" unicode="&#xc7;" horiz-adv-x="527" 
d="M303 696q56 0 105 -15t88 -47l-46 -72q-27 23 -67.5 36t-79.5 13q-29 0 -57 -9t-50 -28t-35.5 -49t-13.5 -73v-215q0 -42 14 -72.5t36 -49.5t49.5 -28t54.5 -9q39 0 79.5 11t72.5 37l44 -71q-31 -25 -80 -42.5t-106 -19.5l-10 -32q29 -2 48 -10.5t30.5 -21t16.5 -26.5
t5 -26q0 -13 -5.5 -27.5t-17.5 -27t-32 -20.5t-48 -8q-17 0 -43.5 3t-51.5 13l16 42q21 -7 41 -9.5t34 -2.5q25 0 37 10.5t12 25.5q0 12 -10.5 26t-39.5 14h-6t-8 -1l-31 18l18 62q-44 5 -82.5 23t-67.5 46.5t-45.5 67.5t-16.5 87v252q0 52 20.5 93.5t54.5 71t79 45t95 15.5
z" />
    <glyph glyph-name="Egrave" unicode="&#xc8;" horiz-adv-x="557" 
d="M61 0v689h460v-84h-368v-219h315v-83h-315v-220h368v-83h-460zM310 738l-170 103l59 61l148 -122z" />
    <glyph glyph-name="Eacute" unicode="&#xc9;" horiz-adv-x="557" 
d="M61 0v689h460v-84h-368v-219h315v-83h-315v-220h368v-83h-460zM230 780l148 122l59 -61l-170 -103z" />
    <glyph glyph-name="Ecircumflex" unicode="&#xca;" horiz-adv-x="557" 
d="M61 0v689h460v-84h-368v-219h315v-83h-315v-220h368v-83h-460zM300 826l-144 -87l-29 38l150 128h53l143 -126l-30 -39z" />
    <glyph glyph-name="Edieresis" unicode="&#xcb;" horiz-adv-x="557" 
d="M61 0v689h460v-84h-368v-219h315v-83h-315v-220h368v-83h-460zM436 809q0 -20 -14.5 -34.5t-34.5 -14.5t-34.5 14.5t-14.5 34.5t14.5 34t34.5 14t34.5 -14t14.5 -34zM240 809q0 -20 -14.5 -34.5t-34.5 -14.5t-34 14.5t-14 34.5t14 34t34 14t34.5 -14t14.5 -34z" />
    <glyph glyph-name="Igrave" unicode="&#xcc;" horiz-adv-x="252" 
d="M80 0v689h92v-689h-92zM126 738l-170 103l59 61l148 -122z" />
    <glyph glyph-name="Iacute" unicode="&#xcd;" horiz-adv-x="252" 
d="M80 0v689h92v-689h-92zM88 780l148 122l59 -61l-170 -103z" />
    <glyph glyph-name="Icircumflex" unicode="&#xce;" horiz-adv-x="252" 
d="M80 0v689h92v-689h-92zM122 826l-144 -87l-29 38l150 128h53l143 -126l-30 -39z" />
    <glyph glyph-name="Idieresis" unicode="&#xcf;" horiz-adv-x="252" 
d="M80 0v689h92v-689h-92zM274 811q0 -20 -14.5 -34.5t-34.5 -14.5t-34.5 14.5t-14.5 34.5t14.5 34t34.5 14t34.5 -14t14.5 -34zM78 811q0 -20 -14.5 -34.5t-34.5 -14.5t-34 14.5t-14 34.5t14 34t34 14t34.5 -14t14.5 -34z" />
    <glyph glyph-name="Eth" unicode="&#xd0;" horiz-adv-x="605" 
d="M6 389h52v300h259q49 0 92 -15.5t75 -44.5t50 -71t18 -94v-240q0 -50 -18.5 -91.5t-50.5 -71t-75 -45.5t-92 -16h-258v321h-52v68zM458 448q0 43 -14 73t-37 49t-52.5 27t-59.5 8h-145v-216h126v-68h-126v-239h145q28 0 57.5 8t52.5 27t38 48.5t15 73.5v209z" />
    <glyph glyph-name="Ntilde" unicode="&#xd1;" horiz-adv-x="645" 
d="M494 173v516h92v-689h-89l-241 360l-98 151h-7v-511h-92v689h87l249 -373l92 -143h7zM250 869q18 0 36.5 -7.5t35.5 -16t33 -16t29 -7.5q15 0 30 10.5t31 34.5l52 -29q-22 -46 -48.5 -67.5t-58.5 -21.5q-18 0 -35.5 6.5t-34.5 14.5t-32.5 14.5t-30.5 6.5
q-17 0 -30.5 -8.5t-32.5 -31.5l-52 29q20 42 49 65.5t59 23.5z" />
    <glyph glyph-name="Ograve" unicode="&#xd2;" horiz-adv-x="613" 
d="M561 225q0 -53 -19.5 -96t-54 -73t-81 -46.5t-100.5 -16.5q-56 0 -103 16.5t-80.5 46.5t-52 73t-18.5 96v238q0 52 18.5 95t52 73.5t80.5 47.5t103 17q55 0 102 -17t81 -47.5t53 -73.5t19 -95v-238zM468 452q0 42 -13 72t-35 49.5t-51.5 28.5t-62.5 9t-62.5 -9t-51 -28.5
t-34.5 -49.5t-13 -72v-216q0 -42 13 -72t35 -49t51.5 -28t61.5 -9q33 0 62 9t51.5 28t35.5 49t13 72v216zM322 738l-170 103l59 61l148 -122z" />
    <glyph glyph-name="Oacute" unicode="&#xd3;" horiz-adv-x="613" 
d="M561 225q0 -53 -19.5 -96t-54 -73t-81 -46.5t-100.5 -16.5q-56 0 -103 16.5t-80.5 46.5t-52 73t-18.5 96v238q0 52 18.5 95t52 73.5t80.5 47.5t103 17q55 0 102 -17t81 -47.5t53 -73.5t19 -95v-238zM468 452q0 42 -13 72t-35 49.5t-51.5 28.5t-62.5 9t-62.5 -9t-51 -28.5
t-34.5 -49.5t-13 -72v-216q0 -42 13 -72t35 -49t51.5 -28t61.5 -9q33 0 62 9t51.5 28t35.5 49t13 72v216zM258 780l148 122l59 -61l-170 -103z" />
    <glyph glyph-name="Ocircumflex" unicode="&#xd4;" horiz-adv-x="613" 
d="M561 225q0 -53 -19.5 -96t-54 -73t-81 -46.5t-100.5 -16.5q-56 0 -103 16.5t-80.5 46.5t-52 73t-18.5 96v238q0 52 18.5 95t52 73.5t80.5 47.5t103 17q55 0 102 -17t81 -47.5t53 -73.5t19 -95v-238zM468 452q0 42 -13 72t-35 49.5t-51.5 28.5t-62.5 9t-62.5 -9t-51 -28.5
t-34.5 -49.5t-13 -72v-216q0 -42 13 -72t35 -49t51.5 -28t61.5 -9q33 0 62 9t51.5 28t35.5 49t13 72v216zM308 826l-144 -87l-29 38l150 128h53l143 -126l-30 -39z" />
    <glyph glyph-name="Otilde" unicode="&#xd5;" horiz-adv-x="613" 
d="M561 225q0 -53 -19.5 -96t-54 -73t-81 -46.5t-100.5 -16.5q-56 0 -103 16.5t-80.5 46.5t-52 73t-18.5 96v238q0 52 18.5 95t52 73.5t80.5 47.5t103 17q55 0 102 -17t81 -47.5t53 -73.5t19 -95v-238zM468 452q0 42 -13 72t-35 49.5t-51.5 28.5t-62.5 9t-62.5 -9t-51 -28.5
t-34.5 -49.5t-13 -72v-216q0 -42 13 -72t35 -49t51.5 -28t61.5 -9q33 0 62 9t51.5 28t35.5 49t13 72v216zM235 869q18 0 36.5 -7.5t35.5 -16t33 -16t29 -7.5q15 0 30 10.5t31 34.5l52 -29q-22 -46 -48.5 -67.5t-58.5 -21.5q-18 0 -35.5 6.5t-34.5 14.5t-32.5 14.5t-30.5 6.5
q-17 0 -30.5 -8.5t-32.5 -31.5l-52 29q20 42 49 65.5t59 23.5z" />
    <glyph glyph-name="Odieresis" unicode="&#xd6;" horiz-adv-x="613" 
d="M561 225q0 -53 -19.5 -96t-54 -73t-81 -46.5t-100.5 -16.5q-56 0 -103 16.5t-80.5 46.5t-52 73t-18.5 96v238q0 52 18.5 95t52 73.5t80.5 47.5t103 17q55 0 102 -17t81 -47.5t53 -73.5t19 -95v-238zM468 452q0 42 -13 72t-35 49.5t-51.5 28.5t-62.5 9t-62.5 -9t-51 -28.5
t-34.5 -49.5t-13 -72v-216q0 -42 13 -72t35 -49t51.5 -28t61.5 -9q33 0 62 9t51.5 28t35.5 49t13 72v216zM455 811q0 -20 -14.5 -34.5t-34.5 -14.5t-34.5 14.5t-14.5 34.5t14.5 34t34.5 14t34.5 -14t14.5 -34zM259 811q0 -20 -14.5 -34.5t-34.5 -14.5t-34 14.5t-14 34.5
t14 34t34 14t34.5 -14t14.5 -34z" />
    <glyph glyph-name="multiply" unicode="&#xd7;" horiz-adv-x="500" 
d="M294 274l164 -164l-45 -45l-164 164l-162 -162l-45 45l162 162l-163 163l45 45l163 -162l161 161l45 -45z" />
    <glyph glyph-name="Oslash" unicode="&#xd8;" horiz-adv-x="613" 
d="M561 225q0 -53 -19.5 -96t-54 -73t-81 -46.5t-100.5 -16.5q-106 0 -174 54l-37 -53l-43 29l43 62q-43 57 -43 140v238q0 52 18.5 95t52 73.5t80.5 47.5t103 17q51 0 95 -15t77 -41l39 56l44 -29l-45 -65q21 -29 33 -63.5t12 -75.5v-238zM468 452q0 35 -11 65l-273 -394
q23 -24 54.5 -34.5t67.5 -10.5q33 0 62 9t51.5 28t35.5 49t13 72v216zM145 236q0 -38 10 -65l272 395q-23 23 -54 34t-67 11q-33 0 -62.5 -9t-51 -28.5t-34.5 -49.5t-13 -72v-216z" />
    <glyph glyph-name="Ugrave" unicode="&#xd9;" horiz-adv-x="610" 
d="M561 218q0 -53 -20.5 -95t-55.5 -71t-81 -44t-98 -15t-98.5 15t-81 44t-54.5 71t-20 95v471h93v-454q0 -42 13 -72t35 -49t51.5 -28t61.5 -9q31 0 60.5 9t52 28t36 49t13.5 72v454h93v-471zM324 738l-170 103l59 61l148 -122z" />
    <glyph glyph-name="Uacute" unicode="&#xda;" horiz-adv-x="610" 
d="M561 218q0 -53 -20.5 -95t-55.5 -71t-81 -44t-98 -15t-98.5 15t-81 44t-54.5 71t-20 95v471h93v-454q0 -42 13 -72t35 -49t51.5 -28t61.5 -9q31 0 60.5 9t52 28t36 49t13.5 72v454h93v-471zM250 780l148 122l59 -61l-170 -103z" />
    <glyph glyph-name="Ucircumflex" unicode="&#xdb;" horiz-adv-x="610" 
d="M561 218q0 -53 -20.5 -95t-55.5 -71t-81 -44t-98 -15t-98.5 15t-81 44t-54.5 71t-20 95v471h93v-454q0 -42 13 -72t35 -49t51.5 -28t61.5 -9q31 0 60.5 9t52 28t36 49t13.5 72v454h93v-471zM305 826l-144 -87l-29 38l150 128h53l143 -126l-30 -39z" />
    <glyph glyph-name="Udieresis" unicode="&#xdc;" horiz-adv-x="610" 
d="M561 218q0 -53 -20.5 -95t-55.5 -71t-81 -44t-98 -15t-98.5 15t-81 44t-54.5 71t-20 95v471h93v-454q0 -42 13 -72t35 -49t51.5 -28t61.5 -9q31 0 60.5 9t52 28t36 49t13.5 72v454h93v-471zM458 811q0 -20 -14.5 -34.5t-34.5 -14.5t-34.5 14.5t-14.5 34.5t14.5 34
t34.5 14t34.5 -14t14.5 -34zM262 811q0 -20 -14.5 -34.5t-34.5 -14.5t-34 14.5t-14 34.5t14 34t34 14t34.5 -14t14.5 -34z" />
    <glyph glyph-name="Yacute" unicode="&#xdd;" horiz-adv-x="537" 
d="M272 364l74 166l78 159h100l-209 -424v-265h-93v264l-210 425h101l80 -164l72 -161h7zM193 780l148 122l59 -61l-170 -103z" />
    <glyph glyph-name="Thorn" unicode="&#xde;" horiz-adv-x="554" 
d="M535 357q0 -37 -13.5 -73.5t-38.5 -66t-61 -48t-82 -18.5h-194v-151h-92v689h92v-126h194q50 0 86.5 -18.5t60.5 -48t36 -66t12 -73.5zM444 357q0 56 -34.5 89t-88.5 33h-175v-243h175q54 0 88.5 32t34.5 89z" />
    <glyph glyph-name="germandbls" unicode="&#xdf;" horiz-adv-x="502" 
d="M135 0h-85v527q0 45 14.5 80t40.5 59t61.5 36.5t77.5 12.5q52 0 88 -16t58 -41t31.5 -55t9.5 -57q0 -14 -3 -32t-10.5 -36t-19.5 -34t-30 -28q23 -9 40 -25.5t28 -37.5t16.5 -44.5t5.5 -45.5v-91q0 -85 -46.5 -131t-119.5 -46q-9 0 -20 0.5t-24 1.5l1 79q9 -1 17 -1.5
t15 -0.5q30 0 48 10t27.5 25.5t12.5 35.5t3 41v83q0 45 -29 71.5t-78 26.5h-18v70h10q25 0 42.5 10.5t29 26t17 33.5t5.5 33q0 19 -6.5 37t-19.5 32.5t-33.5 23.5t-47.5 9q-30 0 -51 -9.5t-33.5 -24.5t-18.5 -34.5t-6 -39.5v-534z" />
    <glyph glyph-name="agrave" unicode="&#xe0;" horiz-adv-x="496" 
d="M360 48q-59 -33 -96.5 -42.5t-67.5 -9.5q-72 0 -115 40t-43 109q0 41 18.5 69t46 45.5t59 25t56.5 7.5h145v38q0 52 -29 72.5t-83 20.5q-26 0 -63.5 -7.5t-75.5 -38.5l-42 65q48 37 97 48t91 11q97 0 143.5 -42.5t46.5 -130.5v-328h-75l-10 46zM363 221h-131
q-16 0 -34.5 -2.5t-34.5 -10t-26.5 -23t-10.5 -40.5q0 -36 24.5 -54t62.5 -18q19 0 39.5 5.5t40 13.5t37.5 17.5t33 17.5v94zM244 551l-100 172l81 25l72 -177z" />
    <glyph glyph-name="aacute" unicode="&#xe1;" horiz-adv-x="496" 
d="M360 48q-59 -33 -96.5 -42.5t-67.5 -9.5q-72 0 -115 40t-43 109q0 41 18.5 69t46 45.5t59 25t56.5 7.5h145v38q0 52 -29 72.5t-83 20.5q-26 0 -63.5 -7.5t-75.5 -38.5l-42 65q48 37 97 48t91 11q97 0 143.5 -42.5t46.5 -130.5v-328h-75l-10 46zM363 221h-131
q-16 0 -34.5 -2.5t-34.5 -10t-26.5 -23t-10.5 -40.5q0 -36 24.5 -54t62.5 -18q19 0 39.5 5.5t40 13.5t37.5 17.5t33 17.5v94zM236 571l72 177l81 -25l-100 -172z" />
    <glyph glyph-name="acircumflex" unicode="&#xe2;" horiz-adv-x="496" 
d="M360 48q-59 -33 -96.5 -42.5t-67.5 -9.5q-72 0 -115 40t-43 109q0 41 18.5 69t46 45.5t59 25t56.5 7.5h145v38q0 52 -29 72.5t-83 20.5q-26 0 -63.5 -7.5t-75.5 -38.5l-42 65q48 37 97 48t91 11q97 0 143.5 -42.5t46.5 -130.5v-328h-75l-10 46zM363 221h-131
q-16 0 -34.5 -2.5t-34.5 -10t-26.5 -23t-10.5 -40.5q0 -36 24.5 -54t62.5 -18q19 0 39.5 5.5t40 13.5t37.5 17.5t33 17.5v94zM252 659l-134 -107l-39 38l150 153h53l143 -151l-40 -39z" />
    <glyph glyph-name="atilde" unicode="&#xe3;" horiz-adv-x="496" 
d="M360 48q-59 -33 -96.5 -42.5t-67.5 -9.5q-72 0 -115 40t-43 109q0 41 18.5 69t46 45.5t59 25t56.5 7.5h145v38q0 52 -29 72.5t-83 20.5q-26 0 -63.5 -7.5t-75.5 -38.5l-42 65q48 37 97 48t91 11q97 0 143.5 -42.5t46.5 -130.5v-328h-75l-10 46zM363 221h-131
q-16 0 -34.5 -2.5t-34.5 -10t-26.5 -23t-10.5 -40.5q0 -36 24.5 -54t62.5 -18q19 0 39.5 5.5t40 13.5t37.5 17.5t33 17.5v94zM186 699q18 0 36.5 -7.5t35.5 -16t33 -16t29 -7.5q15 0 30 10.5t31 34.5l52 -29q-22 -46 -48.5 -67.5t-58.5 -21.5q-18 0 -35.5 6.5t-34.5 14.5
t-32.5 14.5t-30.5 6.5q-17 0 -30.5 -8.5t-32.5 -31.5l-52 29q20 42 49 65.5t59 23.5z" />
    <glyph glyph-name="adieresis" unicode="&#xe4;" horiz-adv-x="496" 
d="M360 48q-59 -33 -96.5 -42.5t-67.5 -9.5q-72 0 -115 40t-43 109q0 41 18.5 69t46 45.5t59 25t56.5 7.5h145v38q0 52 -29 72.5t-83 20.5q-26 0 -63.5 -7.5t-75.5 -38.5l-42 65q48 37 97 48t91 11q97 0 143.5 -42.5t46.5 -130.5v-328h-75l-10 46zM363 221h-131
q-16 0 -34.5 -2.5t-34.5 -10t-26.5 -23t-10.5 -40.5q0 -36 24.5 -54t62.5 -18q19 0 39.5 5.5t40 13.5t37.5 17.5t33 17.5v94zM413 639q0 -20 -14.5 -34.5t-34.5 -14.5t-34.5 14.5t-14.5 34.5t14.5 34t34.5 14t34.5 -14t14.5 -34zM217 639q0 -20 -14.5 -34.5t-34.5 -14.5
t-34 14.5t-14 34.5t14 34t34 14t34.5 -14t14.5 -34z" />
    <glyph glyph-name="aring" unicode="&#xe5;" horiz-adv-x="496" 
d="M360 48q-59 -33 -96.5 -42.5t-67.5 -9.5q-72 0 -115 40t-43 109q0 41 18.5 69t46 45.5t59 25t56.5 7.5h145v38q0 52 -29 72.5t-83 20.5q-26 0 -63.5 -7.5t-75.5 -38.5l-42 65q48 37 97 48t91 11q97 0 143.5 -42.5t46.5 -130.5v-328h-75l-10 46zM363 221h-131
q-16 0 -34.5 -2.5t-34.5 -10t-26.5 -23t-10.5 -40.5q0 -36 24.5 -54t62.5 -18q19 0 39.5 5.5t40 13.5t37.5 17.5t33 17.5v94zM369 644q0 -21 -8 -40t-22 -33t-33 -22t-40 -8t-40 8t-33.5 22t-22.5 33t-8 40t8 40t22.5 32.5t33.5 21.5t40 8t40 -8t33 -21.5t22 -32.5t8 -40z
M321 644q0 23 -16 38.5t-39 15.5t-39.5 -15.5t-16.5 -38.5t16.5 -39t39.5 -16t39 16t16 39z" />
    <glyph glyph-name="ae" unicode="&#xe6;" horiz-adv-x="799" 
d="M450 221v-38q0 -30 10 -50.5t27.5 -34t40 -19.5t46.5 -6q25 0 58 10t64 39l54 -59q-38 -39 -84.5 -53.5t-93.5 -14.5q-55 0 -101 18.5t-75 56.5l-35 -22q-59 -34 -96.5 -43t-67.5 -9q-72 0 -115 40t-43 109q0 41 18.5 69t46 45.5t59 25t56.5 7.5h145v38q-1 28 -10 46
t-24.5 28.5t-36.5 14.5t-46 4q-26 0 -61 -7.5t-73 -38.5l-42 65q48 37 93 48t87 11q57 0 97 -16t64 -45q27 29 65.5 44.5t86.5 15.5q44 0 81 -13t63.5 -37t41 -58.5t14.5 -77.5v-93h-314zM364 221h-131q-16 0 -34.5 -2.5t-34.5 -10t-26.5 -23t-10.5 -40.5q0 -36 24.5 -54
t62.5 -18q19 0 39.5 5.5t40 13.5t37.5 17.5t33 17.5v94zM677 305q0 31 -9 53t-24.5 36.5t-36 21t-43.5 6.5t-43 -7t-36 -21t-25 -35.5t-9 -50.5v-17h226v14z" />
    <glyph glyph-name="ccedilla" unicode="&#xe7;" horiz-adv-x="429" 
d="M243 501q43 0 87.5 -11.5t79.5 -49.5l-51 -65q-33 31 -61.5 38.5t-50.5 7.5q-19 0 -39.5 -6t-37 -20t-27 -36.5t-10.5 -54.5v-112q0 -32 10 -54.5t26 -36.5t36.5 -20t41.5 -6q22 0 53.5 9t54.5 32l53 -60q-33 -33 -73.5 -46.5t-82.5 -14.5l-11 -34q29 -2 48 -10.5
t30.5 -21t16.5 -26.5t5 -26q0 -13 -5.5 -27.5t-17.5 -27t-32 -20.5t-48 -8q-17 0 -43.5 3t-51.5 13l16 42q21 -7 41 -9.5t34 -2.5q25 0 37 10.5t12 25.5q0 12 -10.5 26t-39.5 14h-6t-8 -1l-31 18l19 65q-36 5 -65.5 19.5t-50.5 37t-32.5 52t-11.5 64.5v147q0 42 16 76t43 58
t62.5 36.5t74.5 12.5z" />
    <glyph glyph-name="egrave" unicode="&#xe8;" horiz-adv-x="483" 
d="M133 216v-33q0 -30 10 -50.5t27.5 -34t40 -19.5t46.5 -6q25 0 58 10t64 39l54 -59q-38 -39 -84.5 -53.5t-93.5 -14.5q-42 0 -80 11.5t-66.5 34t-45 56.5t-16.5 79v131q0 44 15 80t41.5 61t63 38.5t80.5 13.5t81 -13t63.5 -37t41 -58.5t14.5 -77.5v-98h-314zM360 305
q0 31 -9 53t-24.5 36.5t-36 21t-43.5 6.5t-43 -7t-36 -21t-25 -35.5t-9 -50.5v-22h226v19zM241 551l-100 172l81 25l72 -177z" />
    <glyph glyph-name="eacute" unicode="&#xe9;" horiz-adv-x="483" 
d="M133 216v-33q0 -30 10 -50.5t27.5 -34t40 -19.5t46.5 -6q25 0 58 10t64 39l54 -59q-38 -39 -84.5 -53.5t-93.5 -14.5q-42 0 -80 11.5t-66.5 34t-45 56.5t-16.5 79v131q0 44 15 80t41.5 61t63 38.5t80.5 13.5t81 -13t63.5 -37t41 -58.5t14.5 -77.5v-98h-314zM360 305
q0 31 -9 53t-24.5 36.5t-36 21t-43.5 6.5t-43 -7t-36 -21t-25 -35.5t-9 -50.5v-22h226v19zM202 571l72 177l81 -25l-100 -172z" />
    <glyph glyph-name="ecircumflex" unicode="&#xea;" horiz-adv-x="483" 
d="M133 216v-33q0 -30 10 -50.5t27.5 -34t40 -19.5t46.5 -6q25 0 58 10t64 39l54 -59q-38 -39 -84.5 -53.5t-93.5 -14.5q-42 0 -80 11.5t-66.5 34t-45 56.5t-16.5 79v131q0 44 15 80t41.5 61t63 38.5t80.5 13.5t81 -13t63.5 -37t41 -58.5t14.5 -77.5v-98h-314zM251 659
l-134 -107l-39 38l150 153h53l143 -151l-40 -39zM360 305q0 31 -9 53t-24.5 36.5t-36 21t-43.5 6.5t-43 -7t-36 -21t-25 -35.5t-9 -50.5v-22h226v19z" />
    <glyph glyph-name="edieresis" unicode="&#xeb;" horiz-adv-x="483" 
d="M133 216v-33q0 -30 10 -50.5t27.5 -34t40 -19.5t46.5 -6q25 0 58 10t64 39l54 -59q-38 -39 -84.5 -53.5t-93.5 -14.5q-42 0 -80 11.5t-66.5 34t-45 56.5t-16.5 79v131q0 44 15 80t41.5 61t63 38.5t80.5 13.5t81 -13t63.5 -37t41 -58.5t14.5 -77.5v-98h-314zM360 305
q0 31 -9 53t-24.5 36.5t-36 21t-43.5 6.5t-43 -7t-36 -21t-25 -35.5t-9 -50.5v-22h226v19zM397 639q0 -20 -14.5 -34.5t-34.5 -14.5t-34.5 14.5t-14.5 34.5t14.5 34t34.5 14t34.5 -14t14.5 -34zM201 639q0 -20 -14.5 -34.5t-34.5 -14.5t-34 14.5t-14 34.5t14 34t34 14
t34.5 -14t14.5 -34z" />
    <glyph glyph-name="igrave" unicode="&#xec;" horiz-adv-x="239" 
d="M77 0v496h85v-496h-85zM94 551l-100 172l81 25l72 -177z" />
    <glyph glyph-name="iacute" unicode="&#xed;" horiz-adv-x="239" 
d="M77 0v496h85v-496h-85zM68 571l72 177l81 -25l-100 -172z" />
    <glyph glyph-name="icircumflex" unicode="&#xee;" horiz-adv-x="326" 
d="M122 0v496h85v-496h-85zM163 659l-134 -107l-39 38l150 153h53l143 -151l-40 -39z" />
    <glyph glyph-name="idieresis" unicode="&#xef;" horiz-adv-x="273" 
d="M94 0v496h85v-496h-85zM283 639q0 -20 -14.5 -34.5t-34.5 -14.5t-34.5 14.5t-14.5 34.5t14.5 34t34.5 14t34.5 -14t14.5 -34zM87 639q0 -20 -14.5 -34.5t-34.5 -14.5t-34 14.5t-14 34.5t14 34t34 14t34.5 -14t14.5 -34z" />
    <glyph glyph-name="eth" unicode="&#xf0;" horiz-adv-x="505" 
d="M245 552l70 49q-15 17 -47 32t-89 24l14 73q59 -5 111 -25.5t79 -55.5l85 59l30 -43l-81 -57q16 -28 24.5 -56.5t12 -60t4 -68.5t0.5 -82v-150q0 -43 -13.5 -79t-40 -62t-65.5 -40.5t-90 -14.5q-43 0 -79.5 12t-63.5 35t-42.5 56.5t-15.5 76.5v107q0 43 15 78.5t42 61.5
t64.5 40.5t82.5 14.5q33 0 66 -10t55 -30l2 1q-2 37 -6.5 70.5t-18.5 53.5l-75 -53zM373 280q0 32 -10.5 54.5t-27 36.5t-37.5 20t-41 6q-25 0 -47.5 -7.5t-39 -22.5t-26.5 -38.5t-10 -55.5v-81q0 -32 9.5 -54.5t25.5 -36.5t38 -20t47 -6q22 0 43.5 6t38 20t27 36.5
t10.5 54.5v88z" />
    <glyph glyph-name="ntilde" unicode="&#xf1;" horiz-adv-x="497" 
d="M298 501q73 0 114 -46t41 -131v-324h-86v313q0 58 -25 81.5t-63 22.5q-30 0 -70.5 -15.5t-78.5 -39.5v-362h-86v496h76l10 -55q32 20 57.5 32t45.5 18t36 8t29 2zM172 699q18 0 36.5 -7.5t35.5 -16t33 -16t29 -7.5q15 0 30 10.5t31 34.5l52 -29q-22 -46 -48.5 -67.5
t-58.5 -21.5q-18 0 -35.5 6.5t-34.5 14.5t-32.5 14.5t-30.5 6.5q-17 0 -30.5 -8.5t-32.5 -31.5l-52 29q20 42 49 65.5t59 23.5z" />
    <glyph glyph-name="ograve" unicode="&#xf2;" horiz-adv-x="505" 
d="M458 175q0 -43 -16.5 -76.5t-45 -56.5t-65.5 -35t-79 -12q-43 0 -80 12t-64.5 35t-43.5 56.5t-16 76.5v144q0 43 16.5 76.5t44 57t65 36t79.5 12.5q45 0 82.5 -12.5t65 -36t42.5 -57t15 -76.5v-144zM373 304q0 32 -11 54.5t-28.5 36.5t-38.5 20t-41 6q-21 0 -42 -6
t-38.5 -20t-28.5 -36.5t-11 -54.5v-112q0 -32 9.5 -54.5t25.5 -36.5t38 -20t47 -6q20 0 41 6t38.5 20t28.5 36.5t11 54.5v112zM252 551l-100 172l81 25l72 -177z" />
    <glyph glyph-name="oacute" unicode="&#xf3;" horiz-adv-x="505" 
d="M458 175q0 -43 -16.5 -76.5t-45 -56.5t-65.5 -35t-79 -12q-43 0 -80 12t-64.5 35t-43.5 56.5t-16 76.5v144q0 43 16.5 76.5t44 57t65 36t79.5 12.5q45 0 82.5 -12.5t65 -36t42.5 -57t15 -76.5v-144zM373 304q0 32 -11 54.5t-28.5 36.5t-38.5 20t-41 6q-21 0 -42 -6
t-38.5 -20t-28.5 -36.5t-11 -54.5v-112q0 -32 9.5 -54.5t25.5 -36.5t38 -20t47 -6q20 0 41 6t38.5 20t28.5 36.5t11 54.5v112zM216 571l72 177l81 -25l-100 -172z" />
    <glyph glyph-name="ocircumflex" unicode="&#xf4;" horiz-adv-x="505" 
d="M458 175q0 -43 -16.5 -76.5t-45 -56.5t-65.5 -35t-79 -12q-43 0 -80 12t-64.5 35t-43.5 56.5t-16 76.5v144q0 43 16.5 76.5t44 57t65 36t79.5 12.5q45 0 82.5 -12.5t65 -36t42.5 -57t15 -76.5v-144zM373 304q0 32 -11 54.5t-28.5 36.5t-38.5 20t-41 6q-21 0 -42 -6
t-38.5 -20t-28.5 -36.5t-11 -54.5v-112q0 -32 9.5 -54.5t25.5 -36.5t38 -20t47 -6q20 0 41 6t38.5 20t28.5 36.5t11 54.5v112zM255 659l-134 -107l-39 38l150 153h53l143 -151l-40 -39z" />
    <glyph glyph-name="otilde" unicode="&#xf5;" horiz-adv-x="505" 
d="M458 175q0 -43 -16.5 -76.5t-45 -56.5t-65.5 -35t-79 -12q-43 0 -80 12t-64.5 35t-43.5 56.5t-16 76.5v144q0 43 16.5 76.5t44 57t65 36t79.5 12.5q45 0 82.5 -12.5t65 -36t42.5 -57t15 -76.5v-144zM373 304q0 32 -11 54.5t-28.5 36.5t-38.5 20t-41 6q-21 0 -42 -6
t-38.5 -20t-28.5 -36.5t-11 -54.5v-112q0 -32 9.5 -54.5t25.5 -36.5t38 -20t47 -6q20 0 41 6t38.5 20t28.5 36.5t11 54.5v112zM194 699q18 0 36.5 -7.5t35.5 -16t33 -16t29 -7.5q15 0 30 10.5t31 34.5l52 -29q-22 -46 -48.5 -67.5t-58.5 -21.5q-18 0 -35.5 6.5t-34.5 14.5
t-32.5 14.5t-30.5 6.5q-17 0 -30.5 -8.5t-32.5 -31.5l-52 29q20 42 49 65.5t59 23.5z" />
    <glyph glyph-name="odieresis" unicode="&#xf6;" horiz-adv-x="505" 
d="M458 175q0 -43 -16.5 -76.5t-45 -56.5t-65.5 -35t-79 -12q-43 0 -80 12t-64.5 35t-43.5 56.5t-16 76.5v144q0 43 16.5 76.5t44 57t65 36t79.5 12.5q45 0 82.5 -12.5t65 -36t42.5 -57t15 -76.5v-144zM373 304q0 32 -11 54.5t-28.5 36.5t-38.5 20t-41 6q-21 0 -42 -6
t-38.5 -20t-28.5 -36.5t-11 -54.5v-112q0 -32 9.5 -54.5t25.5 -36.5t38 -20t47 -6q20 0 41 6t38.5 20t28.5 36.5t11 54.5v112zM402 639q0 -20 -14.5 -34.5t-34.5 -14.5t-34.5 14.5t-14.5 34.5t14.5 34t34.5 14t34.5 -14t14.5 -34zM206 639q0 -20 -14.5 -34.5t-34.5 -14.5
t-34 14.5t-14 34.5t14 34t34 14t34.5 -14t14.5 -34z" />
    <glyph glyph-name="divide" unicode="&#xf7;" horiz-adv-x="500" 
d="M311 473q0 -23 -17 -40t-40 -17q-24 0 -40.5 17t-16.5 40t16.5 40t40.5 17q23 0 40 -17t17 -40zM28 262v63h451v-63h-451zM254 172q23 0 40 -16.5t17 -39.5q0 -24 -17 -40.5t-40 -16.5q-24 0 -40.5 16.5t-16.5 40.5q0 23 16.5 39.5t40.5 16.5z" />
    <glyph glyph-name="oslash" unicode="&#xf8;" horiz-adv-x="505" 
d="M458 175q0 -43 -16.5 -76.5t-45 -56.5t-65.5 -35t-79 -12q-39 0 -73.5 9.5t-61.5 29.5l-32 -42l-37 30l35 45q-17 21 -26 48t-9 60v144q0 43 16.5 76.5t44 57t65 36t79.5 12.5q82 0 136 -40l31 40l38 -27l-35 -45q17 -22 26 -49.5t9 -60.5v-144zM373 304q0 28 -9 49
l-195 -252q16 -14 37.5 -20t47.5 -6q20 0 41 6t38.5 20t28.5 36.5t11 54.5v112zM134 192q0 -30 7 -50l195 251q-18 15 -39.5 21.5t-42.5 6.5t-42 -6t-38.5 -20t-28.5 -36.5t-11 -54.5v-112z" />
    <glyph glyph-name="ugrave" unicode="&#xf9;" horiz-adv-x="505" 
d="M382 0l-10 53q-31 -19 -54.5 -30.5t-42 -17.5t-33 -8t-27.5 -2q-79 0 -123 46t-44 131v324h86v-315q0 -58 25.5 -81.5t63.5 -22.5q30 0 69.5 16t79.5 45v358h86v-496h-76zM248 551l-100 172l81 25l72 -177z" />
    <glyph glyph-name="uacute" unicode="&#xfa;" horiz-adv-x="505" 
d="M382 0l-10 53q-31 -19 -54.5 -30.5t-42 -17.5t-33 -8t-27.5 -2q-79 0 -123 46t-44 131v324h86v-315q0 -58 25.5 -81.5t63.5 -22.5q30 0 69.5 16t79.5 45v358h86v-496h-76zM216 571l72 177l81 -25l-100 -172z" />
    <glyph glyph-name="ucircumflex" unicode="&#xfb;" horiz-adv-x="505" 
d="M382 0l-10 53q-31 -19 -54.5 -30.5t-42 -17.5t-33 -8t-27.5 -2q-79 0 -123 46t-44 131v324h86v-315q0 -58 25.5 -81.5t63.5 -22.5q30 0 69.5 16t79.5 45v358h86v-496h-76zM253 659l-134 -107l-39 38l150 153h53l143 -151l-40 -39z" />
    <glyph glyph-name="udieresis" unicode="&#xfc;" horiz-adv-x="505" 
d="M382 0l-10 53q-31 -19 -54.5 -30.5t-42 -17.5t-33 -8t-27.5 -2q-79 0 -123 46t-44 131v324h86v-315q0 -58 25.5 -81.5t63.5 -22.5q30 0 69.5 16t79.5 45v358h86v-496h-76zM397 639q0 -20 -14.5 -34.5t-34.5 -14.5t-34.5 14.5t-14.5 34.5t14.5 34t34.5 14t34.5 -14
t14.5 -34zM201 639q0 -20 -14.5 -34.5t-34.5 -14.5t-34 14.5t-14 34.5t14 34t34 14t34.5 -14t14.5 -34z" />
    <glyph glyph-name="yacute" unicode="&#xfd;" horiz-adv-x="468" 
d="M113 -201l73 210l-42 35l-134 452h93l60 -218l55 -198h3l70 198l75 218h92l-253 -697h-92zM187 571l72 177l81 -25l-100 -172z" />
    <glyph glyph-name="thorn" unicode="&#xfe;" horiz-adv-x="496" 
d="M132 689v-246q55 35 92.5 46t64.5 11q73 0 119.5 -43t46.5 -134v-152q0 -85 -46.5 -131t-127.5 -46q-27 0 -63 5.5t-86 25.5v-223h-85v887h85zM132 106q46 -19 78 -25t63 -6q20 0 37.5 4.5t30.5 16t20.5 31t7.5 48.5v142q0 57 -24 78.5t-64 21.5q-14 0 -33 -5t-39.5 -13
t-40.5 -18.5t-36 -21.5v-253z" />
    <glyph glyph-name="ydieresis" unicode="&#xff;" horiz-adv-x="468" 
d="M113 -201l73 210l-42 35l-134 452h93l60 -218l55 -198h3l70 198l75 218h92l-253 -697h-92zM381 639q0 -20 -14.5 -34.5t-34.5 -14.5t-34.5 14.5t-14.5 34.5t14.5 34t34.5 14t34.5 -14t14.5 -34zM185 639q0 -20 -14.5 -34.5t-34.5 -14.5t-34 14.5t-14 34.5t14 34t34 14
t34.5 -14t14.5 -34z" />
    <glyph glyph-name="Amacron" unicode="&#x100;" horiz-adv-x="597" 
d="M490 0l-54 155h-274l-53 -155h-96l240 689h93l241 -689h-97zM297 563l-50 -160l-55 -164h215l-55 164l-51 160h-4zM164 780v75h268v-75h-268z" />
    <glyph glyph-name="amacron" unicode="&#x101;" horiz-adv-x="496" 
d="M360 48q-59 -33 -96.5 -42.5t-67.5 -9.5q-72 0 -115 40t-43 109q0 41 18.5 69t46 45.5t59 25t56.5 7.5h145v38q0 52 -29 72.5t-83 20.5q-26 0 -63.5 -7.5t-75.5 -38.5l-42 65q48 37 97 48t91 11q97 0 143.5 -42.5t46.5 -130.5v-328h-75l-10 46zM363 221h-131
q-16 0 -34.5 -2.5t-34.5 -10t-26.5 -23t-10.5 -40.5q0 -36 24.5 -54t62.5 -18q19 0 39.5 5.5t40 13.5t37.5 17.5t33 17.5v94zM127 600v75h268v-75h-268z" />
    <glyph glyph-name="Abreve" unicode="&#x102;" horiz-adv-x="597" 
d="M490 0l-54 155h-274l-53 -155h-96l240 689h93l241 -689h-97zM297 563l-50 -160l-55 -164h215l-55 164l-51 160h-4zM229 860q1 -10 6 -21t14 -20.5t22 -15.5t29 -6q18 0 31.5 6t22.5 15.5t13.5 20.5t4.5 21h71q-2 -20 -9 -42.5t-23.5 -41.5t-43 -32t-67.5 -13t-68.5 13
t-44 32t-24 41.5t-7.5 42.5h73z" />
    <glyph glyph-name="abreve" unicode="&#x103;" horiz-adv-x="496" 
d="M360 48q-59 -33 -96.5 -42.5t-67.5 -9.5q-72 0 -115 40t-43 109q0 41 18.5 69t46 45.5t59 25t56.5 7.5h145v38q0 52 -29 72.5t-83 20.5q-26 0 -63.5 -7.5t-75.5 -38.5l-42 65q48 37 97 48t91 11q97 0 143.5 -42.5t46.5 -130.5v-328h-75l-10 46zM363 221h-131
q-16 0 -34.5 -2.5t-34.5 -10t-26.5 -23t-10.5 -40.5q0 -36 24.5 -54t62.5 -18q19 0 39.5 5.5t40 13.5t37.5 17.5t33 17.5v94zM202 697q1 -10 6 -21t14 -20.5t22 -15.5t29 -6q18 0 31.5 6t22.5 15.5t13.5 20.5t4.5 21h71q-2 -20 -9 -42.5t-23.5 -41.5t-43 -32t-67.5 -13
t-68.5 13t-44 32t-24 41.5t-7.5 42.5h73z" />
    <glyph glyph-name="Aogonek" unicode="&#x104;" horiz-adv-x="597" 
d="M453 -92q0 20 8.5 42t28.5 50l-54 155h-274l-53 -155h-96l240 689h93l241 -689h-37q-32 -45 -32 -77q0 -21 12.5 -32.5t35.5 -11.5q12 0 25 5t31 13l21 -52q-20 -11 -44 -18t-49 -7q-43 0 -70 26t-27 62zM297 563l-50 -160l-55 -164h215l-55 164l-51 160h-4z" />
    <glyph glyph-name="aogonek" unicode="&#x105;" horiz-adv-x="496" 
d="M360 48q-59 -33 -96.5 -42.5t-67.5 -9.5q-72 0 -115 40t-43 109q0 41 18.5 69t46 45.5t59 25t56.5 7.5h145v38q0 52 -29 72.5t-83 20.5q-26 0 -63.5 -7.5t-75.5 -38.5l-42 65q48 37 97 48t91 11q97 0 143.5 -42.5t46.5 -130.5v-328h-15q-32 -45 -32 -77q0 -21 12.5 -32.5
t35.5 -11.5q12 0 25 5t31 13l21 -52q-20 -11 -44 -18t-49 -7q-43 0 -70 26t-27 62q0 20 8.5 42t28.5 50l-10 46zM363 221h-131q-16 0 -34.5 -2.5t-34.5 -10t-26.5 -23t-10.5 -40.5q0 -36 24.5 -54t62.5 -18q19 0 39.5 5.5t40 13.5t37.5 17.5t33 17.5v94z" />
    <glyph glyph-name="Cacute" unicode="&#x106;" horiz-adv-x="527" 
d="M303 696q56 0 105 -15t88 -47l-46 -72q-27 23 -67.5 36t-79.5 13q-29 0 -57 -9t-50 -28t-35.5 -49t-13.5 -73v-215q0 -42 14 -72.5t36 -49.5t49.5 -28t54.5 -9q39 0 79.5 11t72.5 37l44 -71q-32 -26 -83 -44t-111 -18q-50 0 -95.5 15.5t-79.5 44.5t-54 71t-20 95v252
q0 52 20.5 93.5t54.5 71t79 45t95 15.5zM230 780l148 122l59 -61l-170 -103z" />
    <glyph glyph-name="cacute" unicode="&#x107;" horiz-adv-x="429" 
d="M243 501q43 0 87.5 -11.5t79.5 -49.5l-51 -65q-33 31 -61.5 38.5t-50.5 7.5q-19 0 -39.5 -6t-37 -20t-27 -36.5t-10.5 -54.5v-112q0 -32 10 -54.5t26 -36.5t36.5 -20t41.5 -6q22 0 53.5 9t54.5 32l53 -60q-35 -35 -77.5 -48t-85.5 -13q-44 0 -80 13t-62.5 36t-41 55.5
t-14.5 71.5v147q0 42 16 76t43 58t62.5 36.5t74.5 12.5zM193 571l72 177l81 -25l-100 -172z" />
    <glyph glyph-name="Ccircumflex" unicode="&#x108;" horiz-adv-x="527" 
d="M303 696q56 0 105 -15t88 -47l-46 -72q-27 23 -67.5 36t-79.5 13q-29 0 -57 -9t-50 -28t-35.5 -49t-13.5 -73v-215q0 -42 14 -72.5t36 -49.5t49.5 -28t54.5 -9q39 0 79.5 11t72.5 37l44 -71q-32 -26 -83 -44t-111 -18q-50 0 -95.5 15.5t-79.5 44.5t-54 71t-20 95v252
q0 52 20.5 93.5t54.5 71t79 45t95 15.5zM300 826l-144 -87l-29 38l150 128h53l143 -126l-30 -39z" />
    <glyph glyph-name="ccircumflex" unicode="&#x109;" horiz-adv-x="429" 
d="M243 501q43 0 87.5 -11.5t79.5 -49.5l-51 -65q-33 31 -61.5 38.5t-50.5 7.5q-19 0 -39.5 -6t-37 -20t-27 -36.5t-10.5 -54.5v-112q0 -32 10 -54.5t26 -36.5t36.5 -20t41.5 -6q22 0 53.5 9t54.5 32l53 -60q-35 -35 -77.5 -48t-85.5 -13q-44 0 -80 13t-62.5 36t-41 55.5
t-14.5 71.5v147q0 42 16 76t43 58t62.5 36.5t74.5 12.5zM244 659l-134 -107l-39 38l150 153h53l143 -151l-40 -39z" />
    <glyph glyph-name="Cdotaccent" unicode="&#x10a;" horiz-adv-x="527" 
d="M303 696q56 0 105 -15t88 -47l-46 -72q-27 23 -67.5 36t-79.5 13q-29 0 -57 -9t-50 -28t-35.5 -49t-13.5 -73v-215q0 -42 14 -72.5t36 -49.5t49.5 -28t54.5 -9q39 0 79.5 11t72.5 37l44 -71q-32 -26 -83 -44t-111 -18q-50 0 -95.5 15.5t-79.5 44.5t-54 71t-20 95v252
q0 52 20.5 93.5t54.5 71t79 45t95 15.5zM240 814q0 19 13 35.5t39 16.5q27 0 41.5 -16.5t14.5 -35.5q0 -23 -14.5 -39t-41.5 -16q-26 0 -39 15.5t-13 39.5z" />
    <glyph glyph-name="cdotaccent" unicode="&#x10b;" horiz-adv-x="429" 
d="M243 501q43 0 87.5 -11.5t79.5 -49.5l-51 -65q-33 31 -61.5 38.5t-50.5 7.5q-19 0 -39.5 -6t-37 -20t-27 -36.5t-10.5 -54.5v-112q0 -32 10 -54.5t26 -36.5t36.5 -20t41.5 -6q22 0 53.5 9t54.5 32l53 -60q-35 -35 -77.5 -48t-85.5 -13q-44 0 -80 13t-62.5 36t-41 55.5
t-14.5 71.5v147q0 42 16 76t43 58t62.5 36.5t74.5 12.5zM187 644q0 19 13 35.5t39 16.5q27 0 41.5 -16.5t14.5 -35.5q0 -23 -14.5 -39t-41.5 -16q-26 0 -39 15.5t-13 39.5z" />
    <glyph glyph-name="Ccaron" unicode="&#x10c;" horiz-adv-x="527" 
d="M303 696q56 0 105 -15t88 -47l-46 -72q-27 23 -67.5 36t-79.5 13q-29 0 -57 -9t-50 -28t-35.5 -49t-13.5 -73v-215q0 -42 14 -72.5t36 -49.5t49.5 -28t54.5 -9q39 0 79.5 11t72.5 37l44 -71q-32 -26 -83 -44t-111 -18q-50 0 -95.5 15.5t-79.5 44.5t-54 71t-20 95v252
q0 52 20.5 93.5t54.5 71t79 45t95 15.5zM434 908l30 -39l-143 -127h-53l-150 129l29 38l144 -87z" />
    <glyph glyph-name="ccaron" unicode="&#x10d;" horiz-adv-x="429" 
d="M243 501q43 0 87.5 -11.5t79.5 -49.5l-51 -65q-33 31 -61.5 38.5t-50.5 7.5q-19 0 -39.5 -6t-37 -20t-27 -36.5t-10.5 -54.5v-112q0 -32 10 -54.5t26 -36.5t36.5 -20t41.5 -6q22 0 53.5 9t54.5 32l53 -60q-35 -35 -77.5 -48t-85.5 -13q-44 0 -80 13t-62.5 36t-41 55.5
t-14.5 71.5v147q0 42 16 76t43 58t62.5 36.5t74.5 12.5zM370 743l40 -39l-143 -151h-53l-150 153l39 38l134 -107z" />
    <glyph glyph-name="Dcaron" unicode="&#x10e;" horiz-adv-x="605" 
d="M552 224q0 -50 -18.5 -91.5t-50.5 -71t-75 -45.5t-92 -16h-258v689h259q49 0 92 -15.5t75 -44.5t50 -71t18 -94v-240zM458 448q0 43 -14 73t-37 49t-52.5 27t-59.5 8h-145v-523h145q28 0 57.5 8t52.5 27t38 48.5t15 73.5v209zM418 908l30 -39l-143 -127h-53l-150 129
l29 38l144 -87z" />
    <glyph glyph-name="dcaron" unicode="&#x10f;" horiz-adv-x="615" 
d="M499 678q0 22 16 40t44 18q19 0 32 -7.5t21 -19t11.5 -26t3.5 -27.5q0 -28 -8.5 -51.5t-23 -43t-33 -34.5t-38.5 -24l-30 39q23 17 36 32.5t15 45.5q-21 2 -33.5 18.5t-12.5 39.5zM380 0l-10 52q-59 -35 -94.5 -46t-62.5 -11q-36 0 -66.5 10.5t-52.5 32t-34.5 55
t-12.5 79.5v152q0 42 13.5 75t37 55.5t55.5 34.5t68 12q27 0 63.5 -6t85.5 -22v243h85v-716h-75zM370 389q-40 14 -75 22.5t-66 8.5q-40 1 -68 -23.5t-28 -82.5v-137q0 -57 24 -78.5t64 -21.5q14 0 33 4.5t39 12.5t40 18.5t37 22.5v254z" />
    <glyph glyph-name="Dcroat" unicode="&#x110;" horiz-adv-x="605" 
d="M6 389h52v300h259q49 0 92 -15.5t75 -44.5t50 -71t18 -94v-240q0 -50 -18.5 -91.5t-50.5 -71t-75 -45.5t-92 -16h-258v321h-52v68zM458 448q0 43 -14 73t-37 49t-52.5 27t-59.5 8h-145v-216h126v-68h-126v-239h145q28 0 57.5 8t52.5 27t38 48.5t15 73.5v209z" />
    <glyph glyph-name="dcroat" unicode="&#x111;" horiz-adv-x="501" 
d="M208 640h162v76h85v-76h45v-68h-45v-572h-75l-10 52q-59 -35 -94.5 -46t-62.5 -11q-36 0 -66.5 10.5t-52.5 32t-34.5 55t-12.5 79.5v152q0 42 13.5 75t37 55.5t55.5 34.5t68 12q27 0 63.5 -6t85.5 -22v99h-162v68zM370 389q-40 14 -75 22.5t-66 8.5q-40 1 -68 -23.5
t-28 -82.5v-137q0 -57 24 -78.5t64 -21.5q14 0 33 4.5t39 12.5t40 18.5t37 22.5v254z" />
    <glyph glyph-name="Emacron" unicode="&#x112;" horiz-adv-x="557" 
d="M61 0v689h460v-84h-368v-219h315v-83h-315v-220h368v-83h-460zM165 780v75h268v-75h-268z" />
    <glyph glyph-name="emacron" unicode="&#x113;" horiz-adv-x="483" 
d="M133 216v-33q0 -30 10 -50.5t27.5 -34t40 -19.5t46.5 -6q25 0 58 10t64 39l54 -59q-38 -39 -84.5 -53.5t-93.5 -14.5q-42 0 -80 11.5t-66.5 34t-45 56.5t-16.5 79v131q0 44 15 80t41.5 61t63 38.5t80.5 13.5t81 -13t63.5 -37t41 -58.5t14.5 -77.5v-98h-314zM360 305
q0 31 -9 53t-24.5 36.5t-36 21t-43.5 6.5t-43 -7t-36 -21t-25 -35.5t-9 -50.5v-22h226v19zM119 600v75h268v-75h-268z" />
    <glyph glyph-name="Ebreve" unicode="&#x114;" horiz-adv-x="557" 
d="M61 0v689h460v-84h-368v-219h315v-83h-315v-220h368v-83h-460zM229 860q1 -10 6 -21t14 -20.5t22 -15.5t29 -6q18 0 31.5 6t22.5 15.5t13.5 20.5t4.5 21h71q-2 -20 -9 -42.5t-23.5 -41.5t-43 -32t-67.5 -13t-68.5 13t-44 32t-24 41.5t-7.5 42.5h73z" />
    <glyph glyph-name="ebreve" unicode="&#x115;" horiz-adv-x="483" 
d="M133 216v-33q0 -30 10 -50.5t27.5 -34t40 -19.5t46.5 -6q25 0 58 10t64 39l54 -59q-38 -39 -84.5 -53.5t-93.5 -14.5q-42 0 -80 11.5t-66.5 34t-45 56.5t-16.5 79v131q0 44 15 80t41.5 61t63 38.5t80.5 13.5t81 -13t63.5 -37t41 -58.5t14.5 -77.5v-98h-314zM360 305
q0 31 -9 53t-24.5 36.5t-36 21t-43.5 6.5t-43 -7t-36 -21t-25 -35.5t-9 -50.5v-22h226v19zM180 697q1 -10 6 -21t14 -20.5t22 -15.5t29 -6q18 0 31.5 6t22.5 15.5t13.5 20.5t4.5 21h71q-2 -20 -9 -42.5t-23.5 -41.5t-43 -32t-67.5 -13t-68.5 13t-44 32t-24 41.5t-7.5 42.5
h73z" />
    <glyph glyph-name="Edotaccent" unicode="&#x116;" horiz-adv-x="557" 
d="M61 0v689h460v-84h-368v-219h315v-83h-315v-220h368v-83h-460zM241 814q0 19 13 35.5t39 16.5q27 0 41.5 -16.5t14.5 -35.5q0 -23 -14.5 -39t-41.5 -16q-26 0 -39 15.5t-13 39.5z" />
    <glyph glyph-name="edotaccent" unicode="&#x117;" horiz-adv-x="483" 
d="M133 216v-33q0 -30 10 -50.5t27.5 -34t40 -19.5t46.5 -6q25 0 58 10t64 39l54 -59q-38 -39 -84.5 -53.5t-93.5 -14.5q-42 0 -80 11.5t-66.5 34t-45 56.5t-16.5 79v131q0 44 15 80t41.5 61t63 38.5t80.5 13.5t81 -13t63.5 -37t41 -58.5t14.5 -77.5v-98h-314zM360 305
q0 31 -9 53t-24.5 36.5t-36 21t-43.5 6.5t-43 -7t-36 -21t-25 -35.5t-9 -50.5v-22h226v19zM194 644q0 19 13 35.5t39 16.5q27 0 41.5 -16.5t14.5 -35.5q0 -23 -14.5 -39t-41.5 -16q-26 0 -39 15.5t-13 39.5z" />
    <glyph glyph-name="Eogonek" unicode="&#x118;" horiz-adv-x="557" 
d="M424 -92q0 20 8 41.5t28 50.5h-399v689h460v-84h-368v-219h315v-83h-315v-220h368v-83q-32 -45 -32 -77q0 -21 12.5 -32.5t35.5 -11.5q12 0 25 5t31 13l21 -52q-20 -11 -44 -18t-49 -7q-43 0 -70 26t-27 62z" />
    <glyph glyph-name="eogonek" unicode="&#x119;" horiz-adv-x="483" 
d="M309 -52q0 25 13 54q-17 -4 -33.5 -5.5t-33.5 -1.5q-42 0 -80 11.5t-66.5 34t-45 56.5t-16.5 79v131q0 44 15 80t41.5 61t63 38.5t80.5 13.5t81 -13t63.5 -37t41 -58.5t14.5 -77.5v-98h-314v-33q0 -30 10 -50.5t27.5 -34t40 -19.5t46.5 -6q25 0 58 10t64 39l54 -59
q-15 -15 -28 -24q-16 -23 -23.5 -41t-7.5 -35q0 -21 12.5 -32.5t35.5 -11.5q12 0 25 5t31 13l21 -52q-20 -11 -44 -18t-49 -7q-43 0 -70 26t-27 62zM360 305q0 31 -9 53t-24.5 36.5t-36 21t-43.5 6.5t-43 -7t-36 -21t-25 -35.5t-9 -50.5v-22h226v19z" />
    <glyph glyph-name="Ecaron" unicode="&#x11a;" horiz-adv-x="557" 
d="M61 0v689h460v-84h-368v-219h315v-83h-315v-220h368v-83h-460zM438 908l30 -39l-143 -127h-53l-150 129l29 38l144 -87z" />
    <glyph glyph-name="ecaron" unicode="&#x11b;" horiz-adv-x="483" 
d="M133 216v-33q0 -30 10 -50.5t27.5 -34t40 -19.5t46.5 -6q25 0 58 10t64 39l54 -59q-38 -39 -84.5 -53.5t-93.5 -14.5q-42 0 -80 11.5t-66.5 34t-45 56.5t-16.5 79v131q0 44 15 80t41.5 61t63 38.5t80.5 13.5t81 -13t63.5 -37t41 -58.5t14.5 -77.5v-98h-314zM381 743
l40 -39l-143 -151h-53l-150 153l39 38l134 -107zM360 305q0 31 -9 53t-24.5 36.5t-36 21t-43.5 6.5t-43 -7t-36 -21t-25 -35.5t-9 -50.5v-22h226v19z" />
    <glyph glyph-name="Gcircumflex" unicode="&#x11c;" horiz-adv-x="580" 
d="M531 83q-21 -24 -48 -41.5t-56.5 -28t-60 -15.5t-58.5 -5q-50 0 -96 15.5t-81 44.5t-56 71t-21 95v252q0 52 21 93.5t57 71t83.5 45t100.5 15.5q57 0 105.5 -15t87.5 -47l-46 -72q-27 23 -67.5 36t-79.5 13q-32 0 -62 -9t-54 -28t-38.5 -49t-14.5 -73v-215
q0 -42 13.5 -72.5t36 -49.5t51.5 -28t60 -9q23 0 59 6.5t73 34.5v161h-110v83h201v-280zM300 826l-144 -87l-29 38l150 128h53l143 -126l-30 -39z" />
    <glyph glyph-name="gcircumflex" unicode="&#x11d;" horiz-adv-x="499" 
d="M209 501q27 0 63.5 -11.5t92.5 -46.5l10 53h76v-526q0 -43 -17.5 -76t-47 -55.5t-67.5 -34t-79 -11.5q-44 0 -91.5 15t-87.5 50l53 63q12 -11 27.5 -20t33 -15t34 -9.5t30.5 -3.5q24 0 46.5 6t40.5 20t28.5 36t10.5 54v58q-50 -31 -89.5 -41.5t-66.5 -10.5
q-73 0 -119.5 45.5t-46.5 130.5v153q0 85 46.5 131t119.5 46zM365 356q-37 27 -78 44t-70 17q-41 0 -64.5 -23t-23.5 -82v-130q0 -57 24 -81.5t64 -23.5q31 0 71.5 14.5t76.5 37.5v227zM252 659l-134 -107l-39 38l150 153h53l143 -151l-40 -39z" />
    <glyph glyph-name="Gbreve" unicode="&#x11e;" horiz-adv-x="580" 
d="M531 83q-21 -24 -48 -41.5t-56.5 -28t-60 -15.5t-58.5 -5q-50 0 -96 15.5t-81 44.5t-56 71t-21 95v252q0 52 21 93.5t57 71t83.5 45t100.5 15.5q57 0 105.5 -15t87.5 -47l-46 -72q-27 23 -67.5 36t-79.5 13q-32 0 -62 -9t-54 -28t-38.5 -49t-14.5 -73v-215
q0 -42 13.5 -72.5t36 -49.5t51.5 -28t60 -9q23 0 59 6.5t73 34.5v161h-110v83h201v-280zM229 860q1 -10 6 -21t14 -20.5t22 -15.5t29 -6q18 0 31.5 6t22.5 15.5t13.5 20.5t4.5 21h71q-2 -20 -9 -42.5t-23.5 -41.5t-43 -32t-67.5 -13t-68.5 13t-44 32t-24 41.5t-7.5 42.5h73z
" />
    <glyph glyph-name="gbreve" unicode="&#x11f;" horiz-adv-x="499" 
d="M209 501q27 0 63.5 -11.5t92.5 -46.5l10 53h76v-526q0 -43 -17.5 -76t-47 -55.5t-67.5 -34t-79 -11.5q-44 0 -91.5 15t-87.5 50l53 63q12 -11 27.5 -20t33 -15t34 -9.5t30.5 -3.5q24 0 46.5 6t40.5 20t28.5 36t10.5 54v58q-50 -31 -89.5 -41.5t-66.5 -10.5
q-73 0 -119.5 45.5t-46.5 130.5v153q0 85 46.5 131t119.5 46zM365 356q-37 27 -78 44t-70 17q-41 0 -64.5 -23t-23.5 -82v-130q0 -57 24 -81.5t64 -23.5q31 0 71.5 14.5t76.5 37.5v227zM200 697q1 -10 6 -21t14 -20.5t22 -15.5t29 -6q18 0 31.5 6t22.5 15.5t13.5 20.5
t4.5 21h71q-2 -20 -9 -42.5t-23.5 -41.5t-43 -32t-67.5 -13t-68.5 13t-44 32t-24 41.5t-7.5 42.5h73z" />
    <glyph glyph-name="Gdotaccent" unicode="&#x120;" horiz-adv-x="580" 
d="M531 83q-21 -24 -48 -41.5t-56.5 -28t-60 -15.5t-58.5 -5q-50 0 -96 15.5t-81 44.5t-56 71t-21 95v252q0 52 21 93.5t57 71t83.5 45t100.5 15.5q57 0 105.5 -15t87.5 -47l-46 -72q-27 23 -67.5 36t-79.5 13q-32 0 -62 -9t-54 -28t-38.5 -49t-14.5 -73v-215
q0 -42 13.5 -72.5t36 -49.5t51.5 -28t60 -9q23 0 59 6.5t73 34.5v161h-110v83h201v-280zM249 814q0 19 13 35.5t39 16.5q27 0 41.5 -16.5t14.5 -35.5q0 -23 -14.5 -39t-41.5 -16q-26 0 -39 15.5t-13 39.5z" />
    <glyph glyph-name="gdotaccent" unicode="&#x121;" horiz-adv-x="499" 
d="M209 501q27 0 63.5 -11.5t92.5 -46.5l10 53h76v-526q0 -43 -17.5 -76t-47 -55.5t-67.5 -34t-79 -11.5q-44 0 -91.5 15t-87.5 50l53 63q12 -11 27.5 -20t33 -15t34 -9.5t30.5 -3.5q24 0 46.5 6t40.5 20t28.5 36t10.5 54v58q-50 -31 -89.5 -41.5t-66.5 -10.5
q-73 0 -119.5 45.5t-46.5 130.5v153q0 85 46.5 131t119.5 46zM365 356q-37 27 -78 44t-70 17q-41 0 -64.5 -23t-23.5 -82v-130q0 -57 24 -81.5t64 -23.5q31 0 71.5 14.5t76.5 37.5v227zM204 644q0 19 13 35.5t39 16.5q27 0 41.5 -16.5t14.5 -35.5q0 -23 -14.5 -39t-41.5 -16
q-26 0 -39 15.5t-13 39.5z" />
    <glyph glyph-name="Gcommaaccent" unicode="&#x122;" horiz-adv-x="580" 
d="M531 83q-21 -24 -48 -41.5t-56.5 -28t-60 -15.5t-58.5 -5q-50 0 -96 15.5t-81 44.5t-56 71t-21 95v252q0 52 21 93.5t57 71t83.5 45t100.5 15.5q57 0 105.5 -15t87.5 -47l-46 -72q-27 23 -67.5 36t-79.5 13q-32 0 -62 -9t-54 -28t-38.5 -49t-14.5 -73v-215
q0 -42 13.5 -72.5t36 -49.5t51.5 -28t60 -9q23 0 59 6.5t73 34.5v161h-110v83h201v-280zM238 -104q0 22 16 40t44 18q19 0 32 -7.5t21 -19t11.5 -26t3.5 -27.5q0 -28 -8.5 -51.5t-23 -43t-33 -34.5t-38.5 -24l-30 39q23 17 36 32.5t15 45.5q-21 2 -33.5 18.5t-12.5 39.5z
" />
    <glyph glyph-name="gcommaaccent" unicode="&#x123;" horiz-adv-x="499" 
d="M333 599q0 -22 -16 -40t-44 -18q-19 0 -32 7.5t-21 19t-11.5 25.5t-3.5 28q0 28 8.5 51.5t22.5 43t33 34.5t39 24l30 -39q-23 -17 -36 -32.5t-15 -45.5q21 -2 33.5 -18.5t12.5 -39.5zM209 501q27 0 63.5 -11.5t92.5 -46.5l10 53h76v-526q0 -43 -17.5 -76t-47 -55.5
t-67.5 -34t-79 -11.5q-44 0 -91.5 15t-87.5 50l53 63q12 -11 27.5 -20t33 -15t34 -9.5t30.5 -3.5q24 0 46.5 6t40.5 20t28.5 36t10.5 54v58q-50 -31 -89.5 -41.5t-66.5 -10.5q-73 0 -119.5 45.5t-46.5 130.5v153q0 85 46.5 131t119.5 46zM365 356q-37 27 -78 44t-70 17
q-41 0 -64.5 -23t-23.5 -82v-130q0 -57 24 -81.5t64 -23.5q31 0 71.5 14.5t76.5 37.5v227z" />
    <glyph glyph-name="Hcircumflex" unicode="&#x124;" horiz-adv-x="617" 
d="M469 0v307h-323v-307h-92v689h92v-298h323v298h94v-689h-94zM301 826l-144 -87l-29 38l150 128h53l143 -126l-30 -39z" />
    <glyph glyph-name="hcircumflex" unicode="&#x125;" horiz-adv-x="497" 
d="M296 501q81 0 120.5 -46t39.5 -131v-324h-86v313q0 58 -25 81t-63 23q-31 0 -71 -15t-78 -40v-362h-86v716h86v-276q60 39 98 50t65 11zM91 826l-144 -87l-29 38l150 128h53l143 -126l-30 -39z" />
    <glyph glyph-name="Hbar" unicode="&#x126;" horiz-adv-x="617" 
d="M14 601h40v88h92v-88h323v88h94v-88h43v-68h-43v-533h-94v307h-323v-307h-92v533h-40v68zM469 391v142h-323v-142h323z" />
    <glyph glyph-name="hbar" unicode="&#x127;" horiz-adv-x="497" 
d="M296 501q81 0 120.5 -46t39.5 -131v-324h-86v313q0 58 -25 81t-63 23q-31 0 -71 -15t-78 -40v-362h-86v573h-47v67h47v76h86v-76h219v-67h-219v-133q60 39 98 50t65 11z" />
    <glyph glyph-name="Itilde" unicode="&#x128;" horiz-adv-x="252" 
d="M80 0v689h92v-689h-92zM59 869q18 0 36.5 -7.5t35.5 -16t33 -16t29 -7.5q15 0 30 10.5t31 34.5l52 -29q-22 -46 -48.5 -67.5t-58.5 -21.5q-18 0 -35.5 6.5t-34.5 14.5t-32.5 14.5t-30.5 6.5q-17 0 -30.5 -8.5t-32.5 -31.5l-52 29q20 42 49 65.5t59 23.5z" />
    <glyph glyph-name="itilde" unicode="&#x129;" horiz-adv-x="335" 
d="M127 0v496h85v-496h-85zM98 699q18 0 36.5 -7.5t35.5 -16t33 -16t29 -7.5q15 0 30 10.5t31 34.5l52 -29q-22 -46 -48.5 -67.5t-58.5 -21.5q-18 0 -35.5 6.5t-34.5 14.5t-32.5 14.5t-30.5 6.5q-17 0 -30.5 -8.5t-32.5 -31.5l-52 29q20 42 49 65.5t59 23.5z" />
    <glyph glyph-name="Imacron" unicode="&#x12a;" horiz-adv-x="252" 
d="M80 0v689h92v-689h-92zM-7 780v75h268v-75h-268z" />
    <glyph glyph-name="imacron" unicode="&#x12b;" horiz-adv-x="258" 
d="M85 0v496h85v-496h-85zM-5 600v75h268v-75h-268z" />
    <glyph glyph-name="Ibreve" unicode="&#x12c;" horiz-adv-x="271" 
d="M70 859q1 -10 6 -21t14 -20.5t22 -15.5t29 -6q18 0 31.5 6t22.5 15.5t13.5 20.5t4.5 21h71q-2 -20 -9 -42.5t-23.5 -41.5t-43 -32t-67.5 -13t-68.5 13t-44 32t-24 41.5t-7.5 42.5h73zM96 0v689h92v-689h-92z" />
    <glyph glyph-name="ibreve" unicode="&#x12d;" horiz-adv-x="277" 
d="M95 0v496h85v-496h-85zM68 703q1 -10 6 -21t14 -20.5t22 -15.5t29 -6q18 0 31.5 6t22.5 15.5t13.5 20.5t4.5 21h71q-2 -20 -9 -42.5t-23.5 -41.5t-43 -32t-67.5 -13t-68.5 13t-44 32t-24 41.5t-7.5 42.5h73z" />
    <glyph glyph-name="Iogonek" unicode="&#x12e;" horiz-adv-x="252" 
d="M60 -92q0 20 8 41.5t28 50.5h-16v689h92v-689h-15q-32 -45 -32 -77q0 -21 12.5 -32.5t35.5 -11.5q12 0 25 5t31 13l21 -52q-20 -11 -44 -18t-49 -7q-43 0 -70 26t-27 62z" />
    <glyph glyph-name="iogonek" unicode="&#x12f;" horiz-adv-x="227" 
d="M47 -91q0 20 8 41.5t28 49.5h-12v496h85v-496h-13q-31 -44 -31 -76q0 -21 12.5 -32.5t35.5 -11.5q12 0 25 5t31 13l21 -52q-20 -11 -44 -18t-49 -7q-43 0 -70 26t-27 62zM167 646q0 -22 -16 -38t-38 -16q-21 0 -37 16t-16 38t16 37.5t37 15.5q22 0 38 -15.5t16 -37.5z
" />
    <glyph glyph-name="Idotaccent" unicode="&#x130;" horiz-adv-x="252" 
d="M80 0v689h92v-689h-92zM75 814q0 19 13 35.5t39 16.5q27 0 41.5 -16.5t14.5 -35.5q0 -23 -14.5 -39t-41.5 -16q-26 0 -39 15.5t-13 39.5z" />
    <glyph glyph-name="dotlessi" unicode="&#x131;" horiz-adv-x="239" 
d="M77 0v496h85v-496h-85z" />
    <glyph glyph-name="IJ" unicode="&#x132;" horiz-adv-x="723" 
d="M81 0v689h92v-689h-92zM649 222q0 -53 -18.5 -95.5t-51 -72t-75.5 -45.5t-91 -16q-47 0 -99.5 13t-89.5 39l43 74q35 -22 67.5 -31.5t63.5 -9.5q35 0 64.5 9t50.5 28.5t32.5 50.5t11.5 76v447h92v-467z" />
    <glyph glyph-name="ij" unicode="&#x133;" horiz-adv-x="408" 
d="M167 646q0 -22 -16 -38t-38 -16q-21 0 -37 16t-16 38t16 37.5t37 15.5q22 0 38 -15.5t16 -37.5zM71 0v496h85v-496h-85zM348 646q0 -21 -14.5 -36t-35.5 -15t-35.5 15t-14.5 36t14.5 35.5t35.5 14.5t35.5 -14.5t14.5 -35.5zM256 495h85v-547q0 -83 -38 -117.5t-107 -34.5
h-49v78h39q40 0 55 17.5t15 68.5v535z" />
    <glyph glyph-name="Jcircumflex" unicode="&#x134;" horiz-adv-x="521" 
d="M440 223q0 -53 -18.5 -95.5t-51 -72t-75.5 -45.5t-91 -16q-47 0 -99.5 13t-89.5 39l43 74q35 -22 67.5 -31.5t63.5 -9.5q35 0 64.5 9t50.5 28.5t32.5 50.5t11.5 76v447h92v-467zM396 828l-144 -87l-29 38l150 128h53l143 -126l-30 -39z" />
    <glyph glyph-name="jcircumflex" unicode="&#x135;" horiz-adv-x="336" 
d="M124 495h85v-548q0 -83 -38 -117.5t-107 -34.5h-49v78h39q40 0 55 17.5t15 68.5v536zM168 659l-134 -107l-39 38l150 153h53l143 -151l-40 -39z" />
    <glyph glyph-name="Kcommaaccent" unicode="&#x136;" horiz-adv-x="572" 
d="M156 331l292 358h111l-222 -272l245 -417h-108l-199 341l-126 -150v-191h-92v689h92v-358h7zM236 -84q0 22 16 40t44 18q19 0 32 -7.5t21 -19t11.5 -26t3.5 -27.5q0 -28 -8.5 -51.5t-23 -43t-33 -34.5t-38.5 -24l-30 39q23 17 36 32.5t15 45.5q-21 2 -33.5 18.5
t-12.5 39.5z" />
    <glyph glyph-name="kcommaaccent" unicode="&#x137;" horiz-adv-x="480" 
d="M63 0v716h85v-390h73q31 0 56 11.5t45 52.5l55 108h96l-60 -126q-14 -29 -30 -49t-46 -31q21 -7 35 -18.5t23 -25.5t15 -30t11 -32l62 -186h-95l-52 159q-8 25 -17.5 41.5t-21 26t-26.5 13t-35 3.5h-88v-243h-85zM190 -104q0 22 16 40t44 18q19 0 32 -7.5t21 -19
t11.5 -26t3.5 -27.5q0 -28 -8.5 -51.5t-23 -43t-33 -34.5t-38.5 -24l-30 39q23 17 36 32.5t15 45.5q-21 2 -33.5 18.5t-12.5 39.5z" />
    <glyph glyph-name="kgreenlandic" unicode="&#x138;" horiz-adv-x="474" 
d="M50 0v496h85v-211h84q14 0 28 1.5t26 8.5t22.5 20.5t18.5 37.5l48 143h88l-49 -144q-12 -36 -28.5 -60.5t-44.5 -32.5q34 -8 50 -34.5t28 -63.5l53 -161h-90l-43 137q-8 24 -17.5 38.5t-21.5 22t-26 10t-31 2.5h-95v-210h-85z" />
    <glyph glyph-name="Lacute" unicode="&#x139;" horiz-adv-x="535" 
d="M66 0v689h92v-606h368v-83h-460zM80 780l148 122l59 -61l-170 -103z" />
    <glyph glyph-name="lacute" unicode="&#x13a;" horiz-adv-x="277" 
d="M168 132q0 -39 17.5 -48.5t58.5 -7.5l2 -78q-14 -2 -26.5 -3t-23.5 -1q-35 0 -56.5 8.5t-34.5 25t-17.5 40t-4.5 53.5v595h85v-584zM90 790l148 122l59 -61l-170 -103z" />
    <glyph glyph-name="Lcommaaccent" unicode="&#x13b;" horiz-adv-x="535" 
d="M66 0v689h92v-606h368v-83h-460zM228 -104q0 22 16 40t44 18q19 0 32 -7.5t21 -19t11.5 -26t3.5 -27.5q0 -28 -8.5 -51.5t-23 -43t-33 -34.5t-38.5 -24l-30 39q23 17 36 32.5t15 45.5q-21 2 -33.5 18.5t-12.5 39.5z" />
    <glyph glyph-name="lcommaaccent" unicode="&#x13c;" horiz-adv-x="277" 
d="M168 132q0 -39 17.5 -48.5t58.5 -7.5l2 -78q-14 -2 -26.5 -3t-23.5 -1q-35 0 -56.5 8.5t-34.5 25t-17.5 40t-4.5 53.5v595h85v-584zM89 -104q0 22 16 40t44 18q19 0 32 -7.5t21 -19t11.5 -26t3.5 -27.5q0 -28 -8.5 -51.5t-23 -43t-33 -34.5t-38.5 -24l-30 39
q23 17 36 32.5t15 45.5q-21 2 -33.5 18.5t-12.5 39.5z" />
    <glyph glyph-name="Lcaron" unicode="&#x13d;" horiz-adv-x="535" 
d="M66 0v689h92v-606h368v-83h-460zM299 639q0 22 16 40t44 18q19 0 32 -7.5t21 -19t11.5 -26t3.5 -27.5q0 -28 -8.5 -51.5t-23 -43t-33 -34.5t-38.5 -24l-30 39q23 17 36 32.5t15 45.5q-21 2 -33.5 18.5t-12.5 39.5z" />
    <glyph glyph-name="lcaron" unicode="&#x13e;" horiz-adv-x="353" 
d="M222 660q0 22 16 40t44 18q19 0 32 -7.5t21 -19t11.5 -26t3.5 -27.5q0 -28 -8.5 -51.5t-23 -43t-33 -34.5t-38.5 -24l-30 39q23 17 36 32.5t15 45.5q-21 2 -33.5 18.5t-12.5 39.5zM168 132q0 -39 17.5 -48.5t58.5 -7.5l2 -78q-14 -2 -26.5 -3t-23.5 -1q-35 0 -56.5 8.5
t-34.5 25t-17.5 40t-4.5 53.5v595h85v-584z" />
    <glyph glyph-name="Ldot" unicode="&#x13f;" horiz-adv-x="535" 
d="M66 0v689h92v-606h368v-83h-460zM290 358q0 19 13 35.5t39 16.5q27 0 41.5 -16.5t14.5 -35.5q0 -23 -14.5 -39t-41.5 -16q-26 0 -39 15.5t-13 39.5z" />
    <glyph glyph-name="ldot" unicode="&#x140;" horiz-adv-x="326" 
d="M215 385q0 19 13 35.5t39 16.5q27 0 41.5 -16.5t14.5 -35.5q0 -23 -14.5 -39t-41.5 -16q-26 0 -39 15.5t-13 39.5zM168 132q0 -39 17.5 -48.5t58.5 -7.5l2 -78q-14 -2 -26.5 -3t-23.5 -1q-35 0 -56.5 8.5t-34.5 25t-17.5 40t-4.5 53.5v595h85v-584z" />
    <glyph glyph-name="Lslash" unicode="&#x141;" horiz-adv-x="535" 
d="M66 0v219l-41 -24l-33 58l74 43v393h92v-340l164 96l33 -58l-197 -115v-189h368v-83h-460z" />
    <glyph glyph-name="lslash" unicode="&#x142;" horiz-adv-x="307" 
d="M183 411l96 55l33 -58l-129 -74v-202q0 -39 17.5 -48.5t58.5 -7.5l2 -78q-14 -2 -26.5 -3t-23.5 -1q-35 0 -56.5 8.5t-34.5 25t-17.5 40t-4.5 53.5v164l-70 -40l-33 58l103 59v354h85v-305z" />
    <glyph glyph-name="Nacute" unicode="&#x143;" horiz-adv-x="645" 
d="M494 173v516h92v-689h-89l-241 360l-98 151h-7v-511h-92v689h87l249 -373l92 -143h7zM280 780l148 122l59 -61l-170 -103z" />
    <glyph glyph-name="nacute" unicode="&#x144;" horiz-adv-x="497" 
d="M298 501q73 0 114 -46t41 -131v-324h-86v313q0 58 -25 81.5t-63 22.5q-30 0 -70.5 -15.5t-78.5 -39.5v-362h-86v496h76l10 -55q32 20 57.5 32t45.5 18t36 8t29 2zM193 571l72 177l81 -25l-100 -172z" />
    <glyph glyph-name="Ncommaaccent" unicode="&#x145;" horiz-adv-x="645" 
d="M494 173v516h92v-689h-89l-241 360l-98 151h-7v-511h-92v689h87l249 -373l92 -143h7zM268 -84q0 22 16 40t44 18q19 0 32 -7.5t21 -19t11.5 -26t3.5 -27.5q0 -28 -8.5 -51.5t-23 -43t-33 -34.5t-38.5 -24l-30 39q23 17 36 32.5t15 45.5q-21 2 -33.5 18.5t-12.5 39.5z" />
    <glyph glyph-name="ncommaaccent" unicode="&#x146;" horiz-adv-x="497" 
d="M298 501q73 0 114 -46t41 -131v-324h-86v313q0 58 -25 81.5t-63 22.5q-30 0 -70.5 -15.5t-78.5 -39.5v-362h-86v496h76l10 -55q32 20 57.5 32t45.5 18t36 8t29 2zM184 -104q0 22 16 40t44 18q19 0 32 -7.5t21 -19t11.5 -26t3.5 -27.5q0 -28 -8.5 -51.5t-23 -43t-33 -34.5
t-38.5 -24l-30 39q23 17 36 32.5t15 45.5q-21 2 -33.5 18.5t-12.5 39.5z" />
    <glyph glyph-name="Ncaron" unicode="&#x147;" horiz-adv-x="645" 
d="M494 173v516h92v-689h-89l-241 360l-98 151h-7v-511h-92v689h87l249 -373l92 -143h7zM462 908l30 -39l-143 -127h-53l-150 129l29 38l144 -87z" />
    <glyph glyph-name="ncaron" unicode="&#x148;" horiz-adv-x="497" 
d="M298 501q73 0 114 -46t41 -131v-324h-86v313q0 58 -25 81.5t-63 22.5q-30 0 -70.5 -15.5t-78.5 -39.5v-362h-86v496h76l10 -55q32 20 57.5 32t45.5 18t36 8t29 2zM363 743l40 -39l-143 -151h-53l-150 153l39 38l134 -107z" />
    <glyph glyph-name="napostrophe" unicode="&#x149;" horiz-adv-x="593" 
d="M394 501q73 0 114 -46t41 -131v-324h-86v313q0 58 -25 81.5t-63 22.5q-30 0 -70.5 -15.5t-78.5 -39.5v-362h-86v496h76l10 -55q32 20 57.5 32t45.5 18t36 8t29 2zM5 623q0 22 16 40t44 18q19 0 32 -7.5t21 -19t11.5 -26t3.5 -27.5q0 -28 -8.5 -51.5t-23 -43t-33 -34.5
t-38.5 -24l-30 39q23 17 36 32.5t15 45.5q-21 2 -33.5 18.5t-12.5 39.5z" />
    <glyph glyph-name="Eng" unicode="&#x14a;" horiz-adv-x="645" 
d="M494 173v516h92v-751q0 -56 -29.5 -81t-72.5 -25t-88 21l22 60q14 -3 24.5 -5.5t19.5 -2.5q21 0 29.5 11t8.5 37v44l-244 363l-98 151h-7v-511h-92v689h87l249 -373l92 -143h7z" />
    <glyph glyph-name="eng" unicode="&#x14b;" horiz-adv-x="497" 
d="M298 501q73 0 114 -46t41 -131v-386q0 -56 -29.5 -81t-72.5 -25t-88 21l22 60q14 -3 24.5 -5.5t19.5 -2.5q21 0 29.5 11t8.5 37v360q0 59 -25 81.5t-63 22.5q-30 0 -70.5 -15.5t-78.5 -39.5v-362h-86v496h76l10 -55q32 20 57.5 32t45.5 18t36 8t29 2z" />
    <glyph glyph-name="Omacron" unicode="&#x14c;" horiz-adv-x="613" 
d="M561 225q0 -53 -19.5 -96t-54 -73t-81 -46.5t-100.5 -16.5q-56 0 -103 16.5t-80.5 46.5t-52 73t-18.5 96v238q0 52 18.5 95t52 73.5t80.5 47.5t103 17q55 0 102 -17t81 -47.5t53 -73.5t19 -95v-238zM468 452q0 42 -13 72t-35 49.5t-51.5 28.5t-62.5 9t-62.5 -9t-51 -28.5
t-34.5 -49.5t-13 -72v-216q0 -42 13 -72t35 -49t51.5 -28t61.5 -9q33 0 62 9t51.5 28t35.5 49t13 72v216zM169 780v75h268v-75h-268z" />
    <glyph glyph-name="omacron" unicode="&#x14d;" horiz-adv-x="505" 
d="M458 175q0 -43 -16.5 -76.5t-45 -56.5t-65.5 -35t-79 -12q-43 0 -80 12t-64.5 35t-43.5 56.5t-16 76.5v144q0 43 16.5 76.5t44 57t65 36t79.5 12.5q45 0 82.5 -12.5t65 -36t42.5 -57t15 -76.5v-144zM373 304q0 32 -11 54.5t-28.5 36.5t-38.5 20t-41 6q-21 0 -42 -6
t-38.5 -20t-28.5 -36.5t-11 -54.5v-112q0 -32 9.5 -54.5t25.5 -36.5t38 -20t47 -6q20 0 41 6t38.5 20t28.5 36.5t11 54.5v112zM117 600v75h268v-75h-268z" />
    <glyph glyph-name="Obreve" unicode="&#x14e;" horiz-adv-x="613" 
d="M561 225q0 -53 -19.5 -96t-54 -73t-81 -46.5t-100.5 -16.5q-56 0 -103 16.5t-80.5 46.5t-52 73t-18.5 96v238q0 52 18.5 95t52 73.5t80.5 47.5t103 17q55 0 102 -17t81 -47.5t53 -73.5t19 -95v-238zM468 452q0 42 -13 72t-35 49.5t-51.5 28.5t-62.5 9t-62.5 -9t-51 -28.5
t-34.5 -49.5t-13 -72v-216q0 -42 13 -72t35 -49t51.5 -28t61.5 -9q33 0 62 9t51.5 28t35.5 49t13 72v216zM239 860q1 -10 6 -21t14 -20.5t22 -15.5t29 -6q18 0 31.5 6t22.5 15.5t13.5 20.5t4.5 21h71q-2 -20 -9 -42.5t-23.5 -41.5t-43 -32t-67.5 -13t-68.5 13t-44 32
t-24 41.5t-7.5 42.5h73z" />
    <glyph glyph-name="obreve" unicode="&#x14f;" horiz-adv-x="505" 
d="M458 175q0 -43 -16.5 -76.5t-45 -56.5t-65.5 -35t-79 -12q-43 0 -80 12t-64.5 35t-43.5 56.5t-16 76.5v144q0 43 16.5 76.5t44 57t65 36t79.5 12.5q45 0 82.5 -12.5t65 -36t42.5 -57t15 -76.5v-144zM373 304q0 32 -11 54.5t-28.5 36.5t-38.5 20t-41 6q-21 0 -42 -6
t-38.5 -20t-28.5 -36.5t-11 -54.5v-112q0 -32 9.5 -54.5t25.5 -36.5t38 -20t47 -6q20 0 41 6t38.5 20t28.5 36.5t11 54.5v112zM184 697q1 -10 6 -21t14 -20.5t22 -15.5t29 -6q18 0 31.5 6t22.5 15.5t13.5 20.5t4.5 21h71q-2 -20 -9 -42.5t-23.5 -41.5t-43 -32t-67.5 -13
t-68.5 13t-44 32t-24 41.5t-7.5 42.5h73z" />
    <glyph glyph-name="Ohungarumlaut" unicode="&#x150;" horiz-adv-x="613" 
d="M561 225q0 -53 -19.5 -96t-54 -73t-81 -46.5t-100.5 -16.5q-56 0 -103 16.5t-80.5 46.5t-52 73t-18.5 96v238q0 52 18.5 95t52 73.5t80.5 47.5t103 17q55 0 102 -17t81 -47.5t53 -73.5t19 -95v-238zM468 452q0 42 -13 72t-35 49.5t-51.5 28.5t-62.5 9t-62.5 -9t-51 -28.5
t-34.5 -49.5t-13 -72v-216q0 -42 13 -72t35 -49t51.5 -28t61.5 -9q33 0 62 9t51.5 28t35.5 49t13 72v216zM328 780l148 122l59 -61l-170 -103zM175 780l148 122l59 -61l-170 -103z" />
    <glyph glyph-name="ohungarumlaut" unicode="&#x151;" horiz-adv-x="505" 
d="M458 175q0 -43 -16.5 -76.5t-45 -56.5t-65.5 -35t-79 -12q-43 0 -80 12t-64.5 35t-43.5 56.5t-16 76.5v144q0 43 16.5 76.5t44 57t65 36t79.5 12.5q45 0 82.5 -12.5t65 -36t42.5 -57t15 -76.5v-144zM373 304q0 32 -11 54.5t-28.5 36.5t-38.5 20t-41 6q-21 0 -42 -6
t-38.5 -20t-28.5 -36.5t-11 -54.5v-112q0 -32 9.5 -54.5t25.5 -36.5t38 -20t47 -6q20 0 41 6t38.5 20t28.5 36.5t11 54.5v112zM153 571l72 177l81 -25l-100 -172zM283 571l72 177l81 -25l-100 -172z" />
    <glyph glyph-name="OE" unicode="&#x152;" horiz-adv-x="880" 
d="M384 0q-35 -7 -78 -7q-56 0 -103 16.5t-80.5 46.5t-52 73t-18.5 96v238q0 52 18.5 95t52 73.5t80.5 47.5t103 17q20 0 40 -1.5t38 -5.5h460v-84h-368v-219h315v-83h-315v-220h368v-83h-460zM306 78q21 0 40.5 2.5t37.5 9.5v509q-18 7 -37.5 9.5t-40.5 2.5q-33 0 -62.5 -9
t-51 -28.5t-34.5 -49.5t-13 -72v-216q0 -42 13 -72t35 -49t51.5 -28t61.5 -9z" />
    <glyph glyph-name="oe" unicode="&#x153;" horiz-adv-x="809" 
d="M459 216v-33q0 -30 10 -50.5t27.5 -34t40 -19.5t46.5 -6q25 0 58 10t64 39l54 -59q-38 -39 -84.5 -53.5t-93.5 -14.5q-51 0 -94 16t-72 48q-29 -32 -71.5 -48t-91.5 -16q-43 0 -80 12t-64.5 35t-43.5 56.5t-16 76.5v144q0 43 16.5 76.5t44 57t65 36t79.5 12.5
q53 0 95 -16.5t69 -48.5q27 31 67 47.5t89 16.5q44 0 81 -13t63.5 -37t41 -58.5t14.5 -77.5v-98h-314zM373 307q-1 31 -12 53t-28.5 35.5t-38 19.5t-40.5 6q-21 0 -42 -6t-38.5 -20t-28.5 -36.5t-11 -54.5v-112q0 -32 9.5 -54.5t25.5 -36.5t38 -20t47 -6q19 0 40 6t38 19
t28.5 34t12.5 51v122zM686 305q0 31 -9 53t-24.5 36.5t-36 21t-43.5 6.5t-43 -7t-36 -21t-25 -35.5t-9 -50.5v-22h226v19z" />
    <glyph glyph-name="Racute" unicode="&#x154;" horiz-adv-x="572" 
d="M343 689q52 0 89 -18.5t61 -48t35 -66t11 -73.5q0 -29 -8 -57.5t-24 -53.5t-38.5 -45.5t-51.5 -32.5l129 -294h-102l-117 277h-178v-277h-92v689h286zM447 483q0 56 -34.5 89t-88.5 33h-175v-243h175q54 0 88.5 32t34.5 89zM230 780l148 122l59 -61l-170 -103z" />
    <glyph glyph-name="racute" unicode="&#x155;" horiz-adv-x="332" 
d="M328 411q-67 -6 -110.5 -23.5t-66.5 -32.5v-355h-86v496h76l9 -73h1q13 13 33 27t43 25.5t49 19t52 7.5v-91zM121 571l72 177l81 -25l-100 -172z" />
    <glyph glyph-name="Rcommaaccent" unicode="&#x156;" horiz-adv-x="572" 
d="M343 689q52 0 89 -18.5t61 -48t35 -66t11 -73.5q0 -29 -8 -57.5t-24 -53.5t-38.5 -45.5t-51.5 -32.5l129 -294h-102l-117 277h-178v-277h-92v689h286zM447 483q0 56 -34.5 89t-88.5 33h-175v-243h175q54 0 88.5 32t34.5 89zM217 -84q0 22 16 40t44 18q19 0 32 -7.5
t21 -19t11.5 -26t3.5 -27.5q0 -28 -8.5 -51.5t-23 -43t-33 -34.5t-38.5 -24l-30 39q23 17 36 32.5t15 45.5q-21 2 -33.5 18.5t-12.5 39.5z" />
    <glyph glyph-name="rcommaaccent" unicode="&#x157;" horiz-adv-x="332" 
d="M328 411q-67 -6 -110.5 -23.5t-66.5 -32.5v-355h-86v496h76l9 -73h1q13 13 33 27t43 25.5t49 19t52 7.5v-91zM41 -104q0 22 16 40t44 18q19 0 32 -7.5t21 -19t11.5 -26t3.5 -27.5q0 -28 -8.5 -51.5t-23 -43t-33 -34.5t-38.5 -24l-30 39q23 17 36 32.5t15 45.5
q-21 2 -33.5 18.5t-12.5 39.5z" />
    <glyph glyph-name="Rcaron" unicode="&#x158;" horiz-adv-x="572" 
d="M343 689q52 0 89 -18.5t61 -48t35 -66t11 -73.5q0 -29 -8 -57.5t-24 -53.5t-38.5 -45.5t-51.5 -32.5l129 -294h-102l-117 277h-178v-277h-92v689h286zM447 483q0 56 -34.5 89t-88.5 33h-175v-243h175q54 0 88.5 32t34.5 89zM407 908l30 -39l-143 -127h-53l-150 129l29 38
l144 -87z" />
    <glyph glyph-name="rcaron" unicode="&#x159;" horiz-adv-x="332" 
d="M328 411q-67 -6 -110.5 -23.5t-66.5 -32.5v-355h-86v496h76l9 -73h1q13 13 33 27t43 25.5t49 19t52 7.5v-91zM300 743l40 -39l-143 -151h-53l-150 153l39 38l134 -107z" />
    <glyph glyph-name="Sacute" unicode="&#x15a;" horiz-adv-x="556" 
d="M525 191q0 -46 -17.5 -82.5t-50 -62t-77.5 -39t-100 -13.5q-71 0 -133.5 20t-120.5 65l52 66q46 -32 97.5 -50t105.5 -18q70 0 110 30t40 84q0 34 -15.5 55.5t-40 34.5t-54 20t-57.5 13q-41 8 -79 20.5t-67 34.5t-47 54.5t-18 80.5q0 43 15.5 79.5t44.5 62.5t70 41t93 15
q60 0 117 -11t109 -43l-43 -78q-44 26 -91.5 37t-92.5 11q-27 0 -51 -7t-42 -21.5t-28.5 -36.5t-10.5 -51t15 -47t38 -29.5t50 -18.5t51 -12q43 -10 84 -22.5t73 -34.5t51.5 -57t19.5 -90zM220 780l148 122l59 -61l-170 -103z" />
    <glyph glyph-name="sacute" unicode="&#x15b;" horiz-adv-x="454" 
d="M425 142q0 -35 -15 -62t-41 -46.5t-62 -29.5t-79 -10q-52 0 -101 13.5t-99 51.5l47 63q37 -31 76 -42.5t85 -11.5q18 0 36.5 4.5t33 13.5t23.5 23.5t9 34.5q0 32 -23 46t-58 20q-38 6 -75.5 13.5t-67.5 22.5t-49 40t-19 66q0 34 14 62t39 47t57.5 29.5t70.5 10.5
q56 0 99 -11.5t83 -40.5l-43 -64q-35 22 -68 31t-71 9q-44 0 -71 -20.5t-27 -51.5q0 -26 22 -39t55 -20.5t71 -14t71 -21.5t55 -42t22 -74zM193 571l72 177l81 -25l-100 -172z" />
    <glyph glyph-name="Scircumflex" unicode="&#x15c;" horiz-adv-x="556" 
d="M525 191q0 -46 -17.5 -82.5t-50 -62t-77.5 -39t-100 -13.5q-71 0 -133.5 20t-120.5 65l52 66q46 -32 97.5 -50t105.5 -18q70 0 110 30t40 84q0 34 -15.5 55.5t-40 34.5t-54 20t-57.5 13q-41 8 -79 20.5t-67 34.5t-47 54.5t-18 80.5q0 43 15.5 79.5t44.5 62.5t70 41t93 15
q60 0 117 -11t109 -43l-43 -78q-44 26 -91.5 37t-92.5 11q-27 0 -51 -7t-42 -21.5t-28.5 -36.5t-10.5 -51t15 -47t38 -29.5t50 -18.5t51 -12q43 -10 84 -22.5t73 -34.5t51.5 -57t19.5 -90zM279 826l-144 -87l-29 38l150 128h53l143 -126l-30 -39z" />
    <glyph glyph-name="scircumflex" unicode="&#x15d;" horiz-adv-x="454" 
d="M425 142q0 -35 -15 -62t-41 -46.5t-62 -29.5t-79 -10q-52 0 -101 13.5t-99 51.5l47 63q37 -31 76 -42.5t85 -11.5q18 0 36.5 4.5t33 13.5t23.5 23.5t9 34.5q0 32 -23 46t-58 20q-38 6 -75.5 13.5t-67.5 22.5t-49 40t-19 66q0 34 14 62t39 47t57.5 29.5t70.5 10.5
q56 0 99 -11.5t83 -40.5l-43 -64q-35 22 -68 31t-71 9q-44 0 -71 -20.5t-27 -51.5q0 -26 22 -39t55 -20.5t71 -14t71 -21.5t55 -42t22 -74zM232 659l-134 -107l-39 38l150 153h53l143 -151l-40 -39z" />
    <glyph glyph-name="Scedilla" unicode="&#x15e;" horiz-adv-x="556" 
d="M525 191q0 -45 -16.5 -81t-47.5 -61t-74 -39.5t-95 -15.5l-10 -33q29 -2 48 -10.5t30.5 -21t16.5 -26.5t5 -26q0 -13 -5.5 -27.5t-17.5 -27t-32 -20.5t-48 -8q-17 0 -43.5 3t-51.5 13l16 42q21 -7 41 -9.5t34 -2.5q25 0 37 10.5t12 25.5q0 12 -10.5 26t-39.5 14h-6t-8 -1
l-31 18l18 62q-60 4 -115 24t-106 60l52 66q46 -32 97.5 -50t105.5 -18q70 0 110 30t40 84q0 34 -15.5 55.5t-40 34.5t-54 20t-57.5 13q-41 8 -79 20.5t-67 34.5t-47 54.5t-18 80.5q0 43 15.5 79.5t44.5 62.5t70 41t93 15q60 0 117 -11t109 -43l-43 -78q-44 26 -91.5 37
t-92.5 11q-27 0 -51 -7t-42 -21.5t-28.5 -36.5t-10.5 -51t15 -47t38 -29.5t50 -18.5t51 -12q43 -10 84 -22.5t73 -34.5t51.5 -57t19.5 -90z" />
    <glyph glyph-name="scedilla" unicode="&#x15f;" horiz-adv-x="454" 
d="M425 142q0 -33 -13.5 -59.5t-37.5 -45t-57.5 -29.5t-73.5 -13l-10 -34q29 -2 48 -10.5t30.5 -21t16.5 -26.5t5 -26q0 -13 -5.5 -27.5t-17.5 -27t-32 -20.5t-48 -8q-17 0 -43.5 3t-51.5 13l16 42q21 -7 41 -9.5t34 -2.5q25 0 37 10.5t12 25.5q0 12 -10.5 26t-39.5 14h-6
t-8 -1l-31 18l18 62q-44 3 -86 17t-84 47l47 63q37 -31 76 -42.5t85 -11.5q18 0 36.5 4.5t33 13.5t23.5 23.5t9 34.5q0 32 -23 46t-58 20q-38 6 -75.5 13.5t-67.5 22.5t-49 40t-19 66q0 34 14 62t39 47t57.5 29.5t70.5 10.5q56 0 99 -11.5t83 -40.5l-43 -64q-35 22 -68 31
t-71 9q-44 0 -71 -20.5t-27 -51.5q0 -26 22 -39t55 -20.5t71 -14t71 -21.5t55 -42t22 -74z" />
    <glyph glyph-name="Scaron" unicode="&#x160;" horiz-adv-x="556" 
d="M525 191q0 -46 -17.5 -82.5t-50 -62t-77.5 -39t-100 -13.5q-71 0 -133.5 20t-120.5 65l52 66q46 -32 97.5 -50t105.5 -18q70 0 110 30t40 84q0 34 -15.5 55.5t-40 34.5t-54 20t-57.5 13q-41 8 -79 20.5t-67 34.5t-47 54.5t-18 80.5q0 43 15.5 79.5t44.5 62.5t70 41t93 15
q60 0 117 -11t109 -43l-43 -78q-44 26 -91.5 37t-92.5 11q-27 0 -51 -7t-42 -21.5t-28.5 -36.5t-10.5 -51t15 -47t38 -29.5t50 -18.5t51 -12q43 -10 84 -22.5t73 -34.5t51.5 -57t19.5 -90zM429 908l30 -39l-143 -127h-53l-150 129l29 38l144 -87z" />
    <glyph glyph-name="scaron" unicode="&#x161;" horiz-adv-x="454" 
d="M425 142q0 -35 -15 -62t-41 -46.5t-62 -29.5t-79 -10q-52 0 -101 13.5t-99 51.5l47 63q37 -31 76 -42.5t85 -11.5q18 0 36.5 4.5t33 13.5t23.5 23.5t9 34.5q0 32 -23 46t-58 20q-38 6 -75.5 13.5t-67.5 22.5t-49 40t-19 66q0 34 14 62t39 47t57.5 29.5t70.5 10.5
q56 0 99 -11.5t83 -40.5l-43 -64q-35 22 -68 31t-71 9q-44 0 -71 -20.5t-27 -51.5q0 -26 22 -39t55 -20.5t71 -14t71 -21.5t55 -42t22 -74zM368 743l40 -39l-143 -151h-53l-150 153l39 38l134 -107z" />
    <glyph glyph-name="Tcommaaccent" unicode="&#x162;" horiz-adv-x="522" 
d="M308 604v-604h-93v604h-199v85h490v-85h-198zM200 -104q0 22 16 40t44 18q19 0 32 -7.5t21 -19t11.5 -26t3.5 -27.5q0 -28 -8.5 -51.5t-23 -43t-33 -34.5t-38.5 -24l-30 39q23 17 36 32.5t15 45.5q-21 2 -33.5 18.5t-12.5 39.5z" />
    <glyph glyph-name="tcommaaccent" unicode="&#x163;" horiz-adv-x="363" 
d="M356 12q-29 -10 -60.5 -13.5t-46.5 -3.5q-79 0 -114 36t-35 120v268h-70v77h72l20 115h63v-115h138v-77h-138v-242q0 -30 5.5 -49.5t15 -31t23.5 -15.5t32 -4q17 0 37.5 2.5t43.5 5.5zM110 -104q0 22 16 40t44 18q19 0 32 -7.5t21 -19t11.5 -26t3.5 -27.5
q0 -28 -8.5 -51.5t-23 -43t-33 -34.5t-38.5 -24l-30 39q23 17 36 32.5t15 45.5q-21 2 -33.5 18.5t-12.5 39.5z" />
    <glyph glyph-name="Tcaron" unicode="&#x164;" horiz-adv-x="522" 
d="M308 604v-604h-93v604h-199v85h490v-85h-198zM408 908l30 -39l-143 -127h-53l-150 129l29 38l144 -87z" />
    <glyph glyph-name="tcaron" unicode="&#x165;" horiz-adv-x="368" 
d="M244 715q0 22 16 40t44 18q19 0 32 -7.5t21 -19t11.5 -26t3.5 -27.5q0 -28 -8.5 -51.5t-23 -43t-33 -34.5t-38.5 -24l-30 39q23 17 36 32.5t15 45.5q-21 2 -33.5 18.5t-12.5 39.5zM356 12q-29 -10 -60.5 -13.5t-46.5 -3.5q-79 0 -114 36t-35 120v268h-70v77h72l20 115h63
v-115h138v-77h-138v-242q0 -30 5.5 -49.5t15 -31t23.5 -15.5t32 -4q17 0 37.5 2.5t43.5 5.5z" />
    <glyph glyph-name="Tbar" unicode="&#x166;" horiz-adv-x="522" 
d="M308 604v-201h146v-70h-146v-333h-93v333h-149v70h149v201h-199v85h490v-85h-198z" />
    <glyph glyph-name="tbar" unicode="&#x167;" horiz-adv-x="363" 
d="M356 12q-29 -10 -60.5 -13.5t-46.5 -3.5q-79 0 -114 36t-35 120v93h-70v67h70v108h-70v77h72l20 115h63v-115h138v-77h-138v-108h138v-67h-138v-67q0 -30 5.5 -49.5t15 -31t23.5 -15.5t32 -4q17 0 37.5 2.5t43.5 5.5z" />
    <glyph glyph-name="Utilde" unicode="&#x168;" horiz-adv-x="610" 
d="M561 218q0 -53 -20.5 -95t-55.5 -71t-81 -44t-98 -15t-98.5 15t-81 44t-54.5 71t-20 95v471h93v-454q0 -42 13 -72t35 -49t51.5 -28t61.5 -9q31 0 60.5 9t52 28t36 49t13.5 72v454h93v-471zM236 869q18 0 36.5 -7.5t35.5 -16t33 -16t29 -7.5q15 0 30 10.5t31 34.5l52 -29
q-22 -46 -48.5 -67.5t-58.5 -21.5q-18 0 -35.5 6.5t-34.5 14.5t-32.5 14.5t-30.5 6.5q-17 0 -30.5 -8.5t-32.5 -31.5l-52 29q20 42 49 65.5t59 23.5z" />
    <glyph glyph-name="utilde" unicode="&#x169;" horiz-adv-x="505" 
d="M382 0l-10 53q-31 -19 -54.5 -30.5t-42 -17.5t-33 -8t-27.5 -2q-79 0 -123 46t-44 131v324h86v-315q0 -58 25.5 -81.5t63.5 -22.5q30 0 69.5 16t79.5 45v358h86v-496h-76zM181 699q18 0 36.5 -7.5t35.5 -16t33 -16t29 -7.5q15 0 30 10.5t31 34.5l52 -29
q-22 -46 -48.5 -67.5t-58.5 -21.5q-18 0 -35.5 6.5t-34.5 14.5t-32.5 14.5t-30.5 6.5q-17 0 -30.5 -8.5t-32.5 -31.5l-52 29q20 42 49 65.5t59 23.5z" />
    <glyph glyph-name="Umacron" unicode="&#x16a;" horiz-adv-x="610" 
d="M561 218q0 -53 -20.5 -95t-55.5 -71t-81 -44t-98 -15t-98.5 15t-81 44t-54.5 71t-20 95v471h93v-454q0 -42 13 -72t35 -49t51.5 -28t61.5 -9q31 0 60.5 9t52 28t36 49t13.5 72v454h93v-471zM170 780v75h268v-75h-268z" />
    <glyph glyph-name="umacron" unicode="&#x16b;" horiz-adv-x="505" 
d="M382 0l-10 53q-31 -19 -54.5 -30.5t-42 -17.5t-33 -8t-27.5 -2q-79 0 -123 46t-44 131v324h86v-315q0 -58 25.5 -81.5t63.5 -22.5q30 0 69.5 16t79.5 45v358h86v-496h-76zM121 600v75h268v-75h-268z" />
    <glyph glyph-name="Ubreve" unicode="&#x16c;" horiz-adv-x="610" 
d="M561 218q0 -53 -20.5 -95t-55.5 -71t-81 -44t-98 -15t-98.5 15t-81 44t-54.5 71t-20 95v471h93v-454q0 -42 13 -72t35 -49t51.5 -28t61.5 -9q31 0 60.5 9t52 28t36 49t13.5 72v454h93v-471zM238 847q1 -10 6 -21t14 -20.5t22 -15.5t29 -6q18 0 31.5 6t22.5 15.5
t13.5 20.5t4.5 21h71q-2 -20 -9 -42.5t-23.5 -41.5t-43 -32t-67.5 -13t-68.5 13t-44 32t-24 41.5t-7.5 42.5h73z" />
    <glyph glyph-name="ubreve" unicode="&#x16d;" horiz-adv-x="505" 
d="M382 0l-10 53q-31 -19 -54.5 -30.5t-42 -17.5t-33 -8t-27.5 -2q-79 0 -123 46t-44 131v324h86v-315q0 -58 25.5 -81.5t63.5 -22.5q30 0 69.5 16t79.5 45v358h86v-496h-76zM187 697q1 -10 6 -21t14 -20.5t22 -15.5t29 -6q18 0 31.5 6t22.5 15.5t13.5 20.5t4.5 21h71
q-2 -20 -9 -42.5t-23.5 -41.5t-43 -32t-67.5 -13t-68.5 13t-44 32t-24 41.5t-7.5 42.5h73z" />
    <glyph glyph-name="Uring" unicode="&#x16e;" horiz-adv-x="610" 
d="M561 218q0 -53 -20.5 -95t-55.5 -71t-81 -44t-98 -15t-98.5 15t-81 44t-54.5 71t-20 95v471h93v-454q0 -42 13 -72t35 -49t51.5 -28t61.5 -9q31 0 60.5 9t52 28t36 49t13.5 72v454h93v-471zM416 806q0 -21 -8 -40t-22 -33t-33 -22t-40 -8t-40 8t-33.5 22t-22.5 33t-8 40
t8 40t22.5 32.5t33.5 21.5t40 8t40 -8t33 -21.5t22 -32.5t8 -40zM368 806q0 23 -16 38.5t-39 15.5t-39.5 -15.5t-16.5 -38.5t16.5 -39t39.5 -16t39 16t16 39z" />
    <glyph glyph-name="uring" unicode="&#x16f;" horiz-adv-x="505" 
d="M382 0l-10 53q-31 -19 -54.5 -30.5t-42 -17.5t-33 -8t-27.5 -2q-79 0 -123 46t-44 131v324h86v-315q0 -58 25.5 -81.5t63.5 -22.5q30 0 69.5 16t79.5 45v358h86v-496h-76zM358 644q0 -21 -8 -40t-22 -33t-33 -22t-40 -8t-40 8t-33.5 22t-22.5 33t-8 40t8 40t22.5 32.5
t33.5 21.5t40 8t40 -8t33 -21.5t22 -32.5t8 -40zM310 644q0 23 -16 38.5t-39 15.5t-39.5 -15.5t-16.5 -38.5t16.5 -39t39.5 -16t39 16t16 39z" />
    <glyph glyph-name="Uhungarumlaut" unicode="&#x170;" horiz-adv-x="610" 
d="M561 218q0 -53 -20.5 -95t-55.5 -71t-81 -44t-98 -15t-98.5 15t-81 44t-54.5 71t-20 95v471h93v-454q0 -42 13 -72t35 -49t51.5 -28t61.5 -9q31 0 60.5 9t52 28t36 49t13.5 72v454h93v-471zM340 780l148 122l59 -61l-170 -103zM187 780l148 122l59 -61l-170 -103z" />
    <glyph glyph-name="uhungarumlaut" unicode="&#x171;" horiz-adv-x="505" 
d="M382 0l-10 53q-31 -19 -54.5 -30.5t-42 -17.5t-33 -8t-27.5 -2q-79 0 -123 46t-44 131v324h86v-315q0 -58 25.5 -81.5t63.5 -22.5q30 0 69.5 16t79.5 45v358h86v-496h-76zM156 571l72 177l81 -25l-100 -172zM286 571l72 177l81 -25l-100 -172z" />
    <glyph glyph-name="Uogonek" unicode="&#x172;" horiz-adv-x="610" 
d="M248 -90q0 19 7 38.5t24 45.5q-48 4 -89 20.5t-72 45t-48.5 68.5t-17.5 90v471h93v-454q0 -42 13 -72t35 -49t51.5 -28t61.5 -9q31 0 60.5 9t52 28t36 49t13.5 72v454h93v-471q0 -49 -17.5 -88t-47.5 -67.5t-70 -46t-86 -21.5q-14 -20 -20.5 -37t-6.5 -33
q0 -21 12.5 -32.5t35.5 -11.5q12 0 25 5t31 13l21 -52q-20 -11 -44 -18t-49 -7q-43 0 -70 26t-27 62z" />
    <glyph glyph-name="uogonek" unicode="&#x173;" horiz-adv-x="505" 
d="M345 -90q0 20 8 41.5t28 50.5l-9 51q-31 -19 -54.5 -30.5t-42 -17.5t-33 -8t-27.5 -2q-79 0 -123 46t-44 131v324h86v-315q0 -58 25.5 -81.5t63.5 -22.5q30 0 69.5 16t79.5 45v358h86v-496h-18q-30 -43 -30 -75q0 -21 12.5 -32.5t35.5 -11.5q12 0 25 5t31 13l21 -52
q-20 -11 -44 -18t-49 -7q-43 0 -70 26t-27 62z" />
    <glyph glyph-name="Wcircumflex" unicode="&#x174;" horiz-adv-x="862" 
d="M428 524l-52 -216l-80 -308h-104l-182 689h100l78 -317l54 -228h5l55 229l80 316h97l82 -326l53 -219h5l52 222l80 323h100l-182 -689h-104l-81 312l-50 212h-6zM431 826l-144 -87l-29 38l150 128h53l143 -126l-30 -39z" />
    <glyph glyph-name="wcircumflex" unicode="&#x175;" horiz-adv-x="702" 
d="M352 340l-50 -158l-59 -182h-82l-141 496h89l46 -180l47 -186h4l59 181l47 137h87l52 -156l52 -162h5l43 175l48 191h85l-134 -496h-82l-61 185l-51 155h-4zM352 659l-134 -107l-39 38l150 153h53l143 -151l-40 -39z" />
    <glyph glyph-name="Ycircumflex" unicode="&#x176;" horiz-adv-x="537" 
d="M272 364l74 166l78 159h100l-209 -424v-265h-93v264l-210 425h101l80 -164l72 -161h7zM268 826l-144 -87l-29 38l150 128h53l143 -126l-30 -39z" />
    <glyph glyph-name="ycircumflex" unicode="&#x177;" horiz-adv-x="468" 
d="M113 -201l73 210l-42 35l-134 452h93l60 -218l55 -198h3l70 198l75 218h92l-253 -697h-92zM227 659l-134 -107l-39 38l150 153h53l143 -151l-40 -39z" />
    <glyph glyph-name="Ydieresis" unicode="&#x178;" horiz-adv-x="537" 
d="M272 364l74 166l78 159h100l-209 -424v-265h-93v264l-210 425h101l80 -164l72 -161h7zM415 811q0 -20 -14.5 -34.5t-34.5 -14.5t-34.5 14.5t-14.5 34.5t14.5 34t34.5 14t34.5 -14t14.5 -34zM219 811q0 -20 -14.5 -34.5t-34.5 -14.5t-34 14.5t-14 34.5t14 34t34 14
t34.5 -14t14.5 -34z" />
    <glyph glyph-name="Zacute" unicode="&#x179;" horiz-adv-x="523" 
d="M488 610l-344 -527h343v-83h-450v81l340 524h-326v84h437v-79zM201 780l148 122l59 -61l-170 -103z" />
    <glyph glyph-name="zacute" unicode="&#x17a;" horiz-adv-x="450" 
d="M41 0v68l261 351h-247v76h356v-70l-261 -349h261v-76h-370zM193 571l72 177l81 -25l-100 -172z" />
    <glyph glyph-name="Zdotaccent" unicode="&#x17b;" horiz-adv-x="523" 
d="M488 610l-344 -527h343v-83h-450v81l340 524h-326v84h437v-79zM222 814q0 19 13 35.5t39 16.5q27 0 41.5 -16.5t14.5 -35.5q0 -23 -14.5 -39t-41.5 -16q-26 0 -39 15.5t-13 39.5z" />
    <glyph glyph-name="zdotaccent" unicode="&#x17c;" horiz-adv-x="450" 
d="M41 0v68l261 351h-247v76h356v-70l-261 -349h261v-76h-370zM188 644q0 19 13 35.5t39 16.5q27 0 41.5 -16.5t14.5 -35.5q0 -23 -14.5 -39t-41.5 -16q-26 0 -39 15.5t-13 39.5z" />
    <glyph glyph-name="Zcaron" unicode="&#x17d;" horiz-adv-x="523" 
d="M488 610l-344 -527h343v-83h-450v81l340 524h-326v84h437v-79zM405 908l30 -39l-143 -127h-53l-150 129l29 38l144 -87z" />
    <glyph glyph-name="zcaron" unicode="&#x17e;" horiz-adv-x="450" 
d="M41 0v68l261 351h-247v76h356v-70l-261 -349h261v-76h-370zM364 743l40 -39l-143 -151h-53l-150 153l39 38l134 -107z" />
    <glyph glyph-name="florin" unicode="&#x192;" horiz-adv-x="500" 
d="M120 420h98l11 73q5 34 16 71t32.5 67t55 49.5t83.5 19.5q23 0 44 -4t36 -10l-19 -75q-14 5 -32.5 7.5t-32.5 2.5q-23 0 -39.5 -10t-27.5 -27.5t-18 -39.5t-10 -46l-11 -78h106l1 -69h-117l-32 -228q-6 -48 -18 -87t-32 -67t-49.5 -43.5t-70.5 -15.5q-21 0 -47.5 5.5
t-47.5 13.5l25 67q33 -13 60 -13q42 0 62 38t29 101l33 229h-87z" />
    <glyph glyph-name="Ohorn" unicode="&#x1a0;" horiz-adv-x="613" 
d="M561 225q0 -53 -19.5 -96t-54 -73t-81 -46.5t-100.5 -16.5q-56 0 -103 16.5t-80.5 46.5t-52 73t-18.5 96v238q0 52 18.5 95t52 73.5t80.5 47.5t103 17q45 0 84 -11.5t71 -31.5q40 1 55 22t15 78v21h77v-33q0 -60 -20 -97.5t-64 -52.5q17 -27 27 -59t10 -69v-238zM468 452
q0 42 -13 72t-35 49.5t-51.5 28.5t-62.5 9t-62.5 -9t-51 -28.5t-34.5 -49.5t-13 -72v-216q0 -42 13 -72t35 -49t51.5 -28t61.5 -9q33 0 62 9t51.5 28t35.5 49t13 72v216z" />
    <glyph glyph-name="ohorn" unicode="&#x1a1;" horiz-adv-x="547" 
d="M458 175q0 -43 -16.5 -76.5t-45 -56.5t-65.5 -35t-79 -12q-43 0 -80 12t-64.5 35t-43.5 56.5t-16 76.5v144q0 43 16.5 76.5t44 57t65 36t79.5 12.5q87 0 143 -45q36 2 50 23.5t14 76.5v21h77v-33q0 -63 -22.5 -101t-70.5 -52q14 -33 14 -72v-144zM373 304q0 32 -11 54.5
t-28.5 36.5t-38.5 20t-41 6q-21 0 -42 -6t-38.5 -20t-28.5 -36.5t-11 -54.5v-112q0 -32 9.5 -54.5t25.5 -36.5t38 -20t47 -6q20 0 41 6t38.5 20t28.5 36.5t11 54.5v112z" />
    <glyph glyph-name="Uhorn" unicode="&#x1af;" horiz-adv-x="667" 
d="M561 218q0 -53 -20.5 -95t-55.5 -71t-81 -44t-98 -15t-98.5 15t-81 44t-54.5 71t-20 95v471h93v-454q0 -42 13 -72t35 -49t51.5 -28t61.5 -9q31 0 60.5 9t52 28t36 49t13.5 72v454h93v-35q29 5 41 26.5t12 72.5v21h77v-33q0 -74 -31 -113.5t-99 -45.5v-364v0z" />
    <glyph glyph-name="uhorn" unicode="&#x1b0;" horiz-adv-x="578" 
d="M382 0l-10 53q-31 -19 -54.5 -30.5t-42 -17.5t-33 -8t-27.5 -2q-79 0 -123 46t-44 131v324h86v-315q0 -58 25.5 -81.5t63.5 -22.5q30 0 69.5 16t79.5 45v358h86v-38q27 5 37.5 27.5t10.5 70.5v21h77v-33q0 -72 -30 -111.5t-95 -47.5v-385h-76z" />
    <glyph glyph-name="AEacute" unicode="&#x1fc;" horiz-adv-x="977" 
d="M491 0v204h-259l-130 -204h-100l444 689h505v-84h-368v-219h315v-83h-315v-220h368v-83h-460zM281 280h210v325zM611 780l148 122l59 -61l-170 -103z" />
    <glyph glyph-name="aeacute" unicode="&#x1fd;" horiz-adv-x="799" 
d="M450 221v-38q0 -30 10 -50.5t27.5 -34t40 -19.5t46.5 -6q25 0 58 10t64 39l54 -59q-38 -39 -84.5 -53.5t-93.5 -14.5q-55 0 -101 18.5t-75 56.5l-35 -22q-59 -34 -96.5 -43t-67.5 -9q-72 0 -115 40t-43 109q0 41 18.5 69t46 45.5t59 25t56.5 7.5h145v38q-1 28 -10 46
t-24.5 28.5t-36.5 14.5t-46 4q-26 0 -61 -7.5t-73 -38.5l-42 65q48 37 93 48t87 11q57 0 97 -16t64 -45q27 29 65.5 44.5t86.5 15.5q44 0 81 -13t63.5 -37t41 -58.5t14.5 -77.5v-93h-314zM364 221h-131q-16 0 -34.5 -2.5t-34.5 -10t-26.5 -23t-10.5 -40.5q0 -36 24.5 -54
t62.5 -18q19 0 39.5 5.5t40 13.5t37.5 17.5t33 17.5v94zM677 305q0 31 -9 53t-24.5 36.5t-36 21t-43.5 6.5t-43 -7t-36 -21t-25 -35.5t-9 -50.5v-17h226v14zM393 571l72 177l81 -25l-100 -172z" />
    <glyph glyph-name="Oslashacute" unicode="&#x1fe;" horiz-adv-x="613" 
d="M561 225q0 -53 -19.5 -96t-54 -73t-81 -46.5t-100.5 -16.5q-106 0 -174 54l-37 -53l-43 29l43 62q-43 57 -43 140v238q0 52 18.5 95t52 73.5t80.5 47.5t103 17q51 0 95 -15t77 -41l39 56l44 -29l-45 -65q21 -29 33 -63.5t12 -75.5v-238zM468 452q0 35 -11 65l-273 -394
q23 -24 54.5 -34.5t67.5 -10.5q33 0 62 9t51.5 28t35.5 49t13 72v216zM145 236q0 -38 10 -65l272 395q-23 23 -54 34t-67 11q-33 0 -62.5 -9t-51 -28.5t-34.5 -49.5t-13 -72v-216zM250 780l148 122l59 -61l-170 -103z" />
    <glyph glyph-name="oslashacute" unicode="&#x1ff;" horiz-adv-x="505" 
d="M458 175q0 -43 -16.5 -76.5t-45 -56.5t-65.5 -35t-79 -12q-39 0 -73.5 9.5t-61.5 29.5l-32 -42l-37 30l35 45q-17 21 -26 48t-9 60v144q0 43 16.5 76.5t44 57t65 36t79.5 12.5q82 0 136 -40l31 40l38 -27l-35 -45q17 -22 26 -49.5t9 -60.5v-144zM373 304q0 28 -9 49
l-195 -252q16 -14 37.5 -20t47.5 -6q20 0 41 6t38.5 20t28.5 36.5t11 54.5v112zM134 192q0 -30 7 -50l195 251q-18 15 -39.5 21.5t-42.5 6.5t-42 -6t-38.5 -20t-28.5 -36.5t-11 -54.5v-112zM216 571l72 177l81 -25l-100 -172z" />
    <glyph glyph-name="Scommaaccent" unicode="&#x218;" horiz-adv-x="556" 
d="M525 191q0 -46 -17.5 -82.5t-50 -62t-77.5 -39t-100 -13.5q-71 0 -133.5 20t-120.5 65l52 66q46 -32 97.5 -50t105.5 -18q70 0 110 30t40 84q0 34 -15.5 55.5t-40 34.5t-54 20t-57.5 13q-41 8 -79 20.5t-67 34.5t-47 54.5t-18 80.5q0 43 15.5 79.5t44.5 62.5t70 41t93 15
q60 0 117 -11t109 -43l-43 -78q-44 26 -91.5 37t-92.5 11q-27 0 -51 -7t-42 -21.5t-28.5 -36.5t-10.5 -51t15 -47t38 -29.5t50 -18.5t51 -12q43 -10 84 -22.5t73 -34.5t51.5 -57t19.5 -90zM216 -104q0 22 16 40t44 18q19 0 32 -7.5t21 -19t11.5 -26t3.5 -27.5
q0 -28 -8.5 -51.5t-23 -43t-33 -34.5t-38.5 -24l-30 39q23 17 36 32.5t15 45.5q-21 2 -33.5 18.5t-12.5 39.5z" />
    <glyph glyph-name="scommaaccent" unicode="&#x219;" horiz-adv-x="454" 
d="M425 142q0 -35 -15 -62t-41 -46.5t-62 -29.5t-79 -10q-52 0 -101 13.5t-99 51.5l47 63q37 -31 76 -42.5t85 -11.5q18 0 36.5 4.5t33 13.5t23.5 23.5t9 34.5q0 32 -23 46t-58 20q-38 6 -75.5 13.5t-67.5 22.5t-49 40t-19 66q0 34 14 62t39 47t57.5 29.5t70.5 10.5
q56 0 99 -11.5t83 -40.5l-43 -64q-35 22 -68 31t-71 9q-44 0 -71 -20.5t-27 -51.5q0 -26 22 -39t55 -20.5t71 -14t71 -21.5t55 -42t22 -74zM168 -104q0 22 16 40t44 18q19 0 32 -7.5t21 -19t11.5 -26t3.5 -27.5q0 -28 -8.5 -51.5t-23 -43t-33 -34.5t-38.5 -24l-30 39
q23 17 36 32.5t15 45.5q-21 2 -33.5 18.5t-12.5 39.5z" />
    <glyph glyph-name="schwa" unicode="&#x259;" horiz-adv-x="483" 
d="M357 280v33q0 59 -32.5 84.5t-81.5 25.5q-25 0 -61 -10t-67 -39l-51 59q44 41 88 54.5t93 13.5q42 0 78 -11.5t63 -34t42 -56.5t15 -79v-131q0 -44 -15 -80t-41.5 -61t-63 -38.5t-80.5 -13.5t-81 13t-63.5 37t-41 58.5t-14.5 77.5v98h314zM130 191q0 -62 33 -89.5
t80 -27.5q22 0 42.5 7t36.5 21t25 35.5t9 50.5v22h-226v-19z" />
    <glyph glyph-name="primemod" unicode="&#x2b9;" horiz-adv-x="270" 
d="M242 670l-138 -266l-57 18l99 272z" />
    <glyph glyph-name="circumflex" unicode="&#x2c6;" horiz-adv-x="491" 
d="M252 659l-134 -107l-39 38l150 153h53l143 -151l-40 -39z" />
    <glyph glyph-name="caron" unicode="&#x2c7;" horiz-adv-x="491" 
d="M385 743l40 -39l-143 -151h-53l-150 153l39 38l134 -107z" />
    <glyph glyph-name="breve" unicode="&#x2d8;" horiz-adv-x="511" 
d="M200 697q1 -10 6 -21t14 -20.5t22 -15.5t29 -6q18 0 31.5 6t22.5 15.5t13.5 20.5t4.5 21h71q-2 -20 -9 -42.5t-23.5 -41.5t-43 -32t-67.5 -13t-68.5 13t-44 32t-24 41.5t-7.5 42.5h73z" />
    <glyph glyph-name="dotaccent" unicode="&#x2d9;" horiz-adv-x="491" 
d="M194 644q0 19 13 35.5t39 16.5q27 0 41.5 -16.5t14.5 -35.5q0 -23 -14.5 -39t-41.5 -16q-26 0 -39 15.5t-13 39.5z" />
    <glyph glyph-name="ring" unicode="&#x2da;" horiz-adv-x="491" 
d="M359 644q0 -21 -8 -40t-22 -33t-33 -22t-40 -8t-40 8t-33.5 22t-22.5 33t-8 40t8 40t22.5 32.5t33.5 21.5t40 8t40 -8t33 -21.5t22 -32.5t8 -40zM311 644q0 23 -16 38.5t-39 15.5t-39.5 -15.5t-16.5 -38.5t16.5 -39t39.5 -16t39 16t16 39z" />
    <glyph glyph-name="ogonek" unicode="&#x2db;" horiz-adv-x="281" 
d="M59 -92q0 20 8.5 42.5t29.5 51.5h58l1 -2q-32 -45 -32 -77q0 -21 12.5 -32.5t35.5 -11.5q12 0 25 5t31 13l21 -52q-20 -11 -44 -18t-49 -7q-43 0 -70 26t-27 62z" />
    <glyph glyph-name="tilde" unicode="&#x2dc;" horiz-adv-x="491" 
d="M175 699q18 0 36.5 -7.5t35.5 -16t33 -16t29 -7.5q15 0 30 10.5t31 34.5l52 -29q-22 -46 -48.5 -67.5t-58.5 -21.5q-18 0 -35.5 6.5t-34.5 14.5t-32.5 14.5t-30.5 6.5q-17 0 -30.5 -8.5t-32.5 -31.5l-52 29q20 42 49 65.5t59 23.5z" />
    <glyph glyph-name="hungarumlaut" unicode="&#x2dd;" horiz-adv-x="563" 
d="M153 571l72 177l81 -25l-100 -172zM283 571l72 177l81 -25l-100 -172z" />
    <glyph glyph-name="tonos" unicode="&#x384;" horiz-adv-x="491" 
d="M193 571l72 177l81 -25l-100 -172z" />
    <glyph glyph-name="dieresistonos" unicode="&#x385;" horiz-adv-x="489" 
d="M408 639q0 -20 -14.5 -34.5t-34.5 -14.5t-34.5 14.5t-14.5 34.5t14.5 34t34.5 14t34.5 -14t14.5 -34zM186 639q0 -20 -14.5 -34.5t-34.5 -14.5t-34 14.5t-14 34.5t14 34t34 14t34.5 -14t14.5 -34zM179 571l72 177l81 -25l-100 -172z" />
    <glyph glyph-name="Alphatonos" unicode="&#x386;" horiz-adv-x="597" 
d="M490 0l-54 155h-274l-53 -155h-96l240 689h93l241 -689h-97zM297 563l-50 -160l-55 -164h215l-55 164l-51 160h-4zM-25 541l72 177l81 -25l-100 -172z" />
    <glyph glyph-name="anoteleia" unicode="&#x387;" horiz-adv-x="250" 
d="M65 358q0 21 14.5 39t42.5 18q29 0 45 -18t16 -39q0 -25 -16 -42.5t-45 -17.5q-28 0 -42.5 17t-14.5 43z" />
    <glyph glyph-name="Epsilontonos" unicode="&#x388;" horiz-adv-x="557" 
d="M61 0v689h460v-84h-368v-219h315v-83h-315v-220h368v-83h-460zM-130 541l72 177l81 -25l-100 -172z" />
    <glyph glyph-name="Etatonos" unicode="&#x389;" horiz-adv-x="617" 
d="M469 0v307h-323v-307h-92v689h92v-298h323v298h94v-689h-94zM-141 541l72 177l81 -25l-100 -172z" />
    <glyph glyph-name="Iotatonos" unicode="&#x38a;" horiz-adv-x="252" 
d="M80 0v689h92v-689h-92zM-114 541l72 177l81 -25l-100 -172z" />
    <glyph glyph-name="Omicrontonos" unicode="&#x38c;" horiz-adv-x="613" 
d="M561 225q0 -53 -19.5 -96t-54 -73t-81 -46.5t-100.5 -16.5q-56 0 -103 16.5t-80.5 46.5t-52 73t-18.5 96v238q0 52 18.5 95t52 73.5t80.5 47.5t103 17q55 0 102 -17t81 -47.5t53 -73.5t19 -95v-238zM468 452q0 42 -13 72t-35 49.5t-51.5 28.5t-62.5 9t-62.5 -9t-51 -28.5
t-34.5 -49.5t-13 -72v-216q0 -42 13 -72t35 -49t51.5 -28t61.5 -9q33 0 62 9t51.5 28t35.5 49t13 72v216zM-105 541l72 177l81 -25l-100 -172z" />
    <glyph glyph-name="Upsilontonos" unicode="&#x38e;" horiz-adv-x="537" 
d="M272 364l74 166l78 159h100l-209 -424v-265h-93v264l-210 425h101l80 -164l72 -161h7zM-156 541l72 177l81 -25l-100 -172z" />
    <glyph glyph-name="Omegatonos" unicode="&#x38f;" horiz-adv-x="621" 
d="M362 0v101q21 6 41 18.5t35.5 31t24.5 44t9 58.5v200q0 42 -13 71.5t-35 49t-51.5 28.5t-61.5 9q-33 0 -62.5 -9t-51.5 -28.5t-35 -49t-13 -71.5v-200q0 -33 9.5 -58.5t25 -44t35.5 -31t41 -18.5v-101h-217v82h91q-35 28 -56.5 68.5t-21.5 93.5v224q0 52 20 94t54.5 72
t81 46t99.5 16q52 0 98.5 -16t81 -46t54.5 -72t20 -94v-224q0 -53 -21 -93.5t-56 -68.5h92v-82h-218zM-98 541l72 177l81 -25l-100 -172z" />
    <glyph glyph-name="iotadieresistonos" unicode="&#x390;" horiz-adv-x="239" 
d="M77 0v496h85v-496h-85zM295 639q0 -20 -14.5 -34.5t-34.5 -14.5t-34.5 14.5t-14.5 34.5t14.5 34t34.5 14t34.5 -14t14.5 -34zM73 639q0 -20 -14.5 -34.5t-34.5 -14.5t-34 14.5t-14 34.5t14 34t34 14t34.5 -14t14.5 -34zM66 571l72 177l81 -25l-100 -172z" />
    <glyph glyph-name="Alpha" unicode="&#x391;" horiz-adv-x="597" 
d="M490 0l-54 155h-274l-53 -155h-96l240 689h93l241 -689h-97zM297 563l-50 -160l-55 -164h215l-55 164l-51 160h-4z" />
    <glyph glyph-name="Beta" unicode="&#x392;" horiz-adv-x="593" 
d="M550 202q0 -37 -12.5 -73t-37 -64.5t-61.5 -46.5t-85 -18h-297v689h286q47 0 83.5 -15t61.5 -40t38 -58t13 -69q0 -41 -19 -80.5t-66 -65.5q50 -26 73 -70t23 -89zM448 505q0 54 -34.5 77t-88.5 23h-175v-203h183q23 0 44 6.5t36.5 19.5t25 32.5t9.5 44.5zM459 202
q0 28 -10.5 49.5t-28 36.5t-40 23t-46.5 8h-184v-236h186q61 0 92 31t31 88z" />
    <glyph glyph-name="Gamma" unicode="&#x393;" horiz-adv-x="513" 
d="M153 605v-605h-92v689h460v-84h-368z" />
    <glyph glyph-name="Delta" unicode="&#x394;" horiz-adv-x="597" 
d="M13 0l240 689h93l241 -689h-574zM296 560l-74 -229l-83 -247h320l-80 238l-77 238h-6z" />
    <glyph glyph-name="Delta" unicode="&#x2206;" horiz-adv-x="597" 
d="M13 0l240 689h93l241 -689h-574zM296 560l-74 -229l-83 -247h320l-80 238l-77 238h-6z" />
    <glyph glyph-name="Epsilon" unicode="&#x395;" horiz-adv-x="557" 
d="M61 0v689h460v-84h-368v-219h315v-83h-315v-220h368v-83h-460z" />
    <glyph glyph-name="Zeta" unicode="&#x396;" horiz-adv-x="523" 
d="M488 610l-344 -527h343v-83h-450v81l340 524h-326v84h437v-79z" />
    <glyph glyph-name="Eta" unicode="&#x397;" horiz-adv-x="617" 
d="M469 0v307h-323v-307h-92v689h92v-298h323v298h94v-689h-94z" />
    <glyph glyph-name="Theta" unicode="&#x398;" horiz-adv-x="610" 
d="M428 303h-241v89h241v-89zM561 225q0 -53 -19.5 -96t-54 -73t-81 -46.5t-100.5 -16.5q-56 0 -103 16.5t-80.5 46.5t-52 73t-18.5 96v238q0 52 18.5 95t52 73.5t80.5 47.5t103 17q55 0 102 -17t81 -47.5t53 -73.5t19 -95v-238zM468 452q0 42 -13 72t-35 49.5t-51.5 28.5
t-62.5 9t-62.5 -9t-51 -28.5t-34.5 -49.5t-13 -72v-216q0 -42 13 -72t35 -49t51.5 -28t61.5 -9q33 0 62 9t51.5 28t35.5 49t13 72v216z" />
    <glyph glyph-name="Iota" unicode="&#x399;" horiz-adv-x="252" 
d="M80 0v689h92v-689h-92z" />
    <glyph glyph-name="Kappa" unicode="&#x39a;" horiz-adv-x="572" 
d="M156 331l292 358h111l-222 -272l245 -417h-108l-199 341l-126 -150v-191h-92v689h92v-358h7z" />
    <glyph glyph-name="Lambda" unicode="&#x39b;" horiz-adv-x="597" 
d="M295 559l-78 -241l-108 -318h-96l240 689h93l241 -689h-97l-107 314l-80 245h-8z" />
    <glyph glyph-name="Mu" unicode="&#x39c;" horiz-adv-x="742" 
d="M378 225l85 183l137 281h85v-689h-92v469h-5l-63 -133l-116 -234h-69l-110 215l-75 152h-5v-469h-92v689h88l139 -281l87 -183h6z" />
    <glyph glyph-name="Nu" unicode="&#x39d;" horiz-adv-x="645" 
d="M494 173v516h92v-689h-89l-241 360l-98 151h-7v-511h-92v689h87l249 -373l92 -143h7z" />
    <glyph glyph-name="Xi" unicode="&#x39e;" horiz-adv-x="541" 
d="M43 0v83h180v223h-126v84h126v214h-180v85h451v-85h-186v-214h132v-84h-132v-223h186v-83h-451z" />
    <glyph glyph-name="Omicron" unicode="&#x39f;" horiz-adv-x="613" 
d="M561 225q0 -53 -19.5 -96t-54 -73t-81 -46.5t-100.5 -16.5q-56 0 -103 16.5t-80.5 46.5t-52 73t-18.5 96v238q0 52 18.5 95t52 73.5t80.5 47.5t103 17q55 0 102 -17t81 -47.5t53 -73.5t19 -95v-238zM468 452q0 42 -13 72t-35 49.5t-51.5 28.5t-62.5 9t-62.5 -9t-51 -28.5
t-34.5 -49.5t-13 -72v-216q0 -42 13 -72t35 -49t51.5 -28t61.5 -9q33 0 62 9t51.5 28t35.5 49t13 72v216z" />
    <glyph glyph-name="Pi" unicode="&#x3a0;" horiz-adv-x="617" 
d="M469 0v605h-323v-605h-92v689h509v-689h-94z" />
    <glyph glyph-name="Rho" unicode="&#x3a1;" horiz-adv-x="554" 
d="M535 483q0 -37 -13.5 -73.5t-38.5 -66t-61 -48t-82 -18.5h-194v-277h-92v689h286q50 0 86.5 -18.5t60.5 -48t36 -66t12 -73.5zM444 483q0 56 -34.5 89t-88.5 33h-175v-243h175q54 0 88.5 32t34.5 89z" />
    <glyph glyph-name="Sigma" unicode="&#x3a3;" horiz-adv-x="503" 
d="M31 0v80l166 278l-166 254v77h432v-85h-321l162 -246l-168 -276h336v-82h-441z" />
    <glyph glyph-name="Tau" unicode="&#x3a4;" horiz-adv-x="522" 
d="M308 604v-604h-93v604h-199v85h490v-85h-198z" />
    <glyph glyph-name="Upsilon" unicode="&#x3a5;" horiz-adv-x="537" 
d="M272 364l74 166l78 159h100l-209 -424v-265h-93v264l-210 425h101l80 -164l72 -161h7z" />
    <glyph glyph-name="Phi" unicode="&#x3a6;" horiz-adv-x="772" 
d="M433 0h-93v56q-67 2 -119 23t-87.5 55.5t-54 80.5t-18.5 99v97q0 51 19.5 96t55.5 79.5t87.5 56t116.5 23.5v30h93v-30q65 -2 116.5 -23t87.5 -55.5t55.5 -80t19.5 -96.5v-94q0 -53 -18.5 -99.5t-54 -81.5t-87.5 -56.5t-119 -23.5v-56zM154 319q0 -41 14 -73.5
t38.5 -55.5t58.5 -35.5t75 -13.5v440q-42 -1 -76 -14.5t-58.5 -36.5t-38 -55.5t-13.5 -72.5v-83zM619 402q0 40 -13.5 72.5t-38 55.5t-58.5 36.5t-76 14.5v-440q40 1 74.5 13.5t59 35.5t38.5 55.5t14 73.5v83z" />
    <glyph glyph-name="Chi" unicode="&#x3a7;" horiz-adv-x="550" 
d="M435 0l-160 278l-159 -278h-107l214 353l-200 336h107l145 -260l146 260h107l-200 -336l214 -353h-107z" />
    <glyph glyph-name="Psi" unicode="&#x3a8;" horiz-adv-x="745" 
d="M691 370q0 -52 -23 -94t-61 -73t-87 -49t-100 -21v-133h-93v134q-52 1 -101 19t-86.5 49.5t-60 75t-22.5 95.5v316h90v-307q0 -41 17.5 -71.5t44.5 -50.5t58.5 -31t59.5 -12v476h93v-476q27 1 58.5 11t58.5 30t45.5 49.5t18.5 70.5v311h90v-319v0z" />
    <glyph glyph-name="Omega" unicode="&#x3a9;" horiz-adv-x="621" 
d="M362 0v101q21 6 41 18.5t35.5 31t24.5 44t9 58.5v200q0 42 -13 71.5t-35 49t-51.5 28.5t-61.5 9q-33 0 -62.5 -9t-51.5 -28.5t-35 -49t-13 -71.5v-200q0 -33 9.5 -58.5t25 -44t35.5 -31t41 -18.5v-101h-217v82h91q-35 28 -56.5 68.5t-21.5 93.5v224q0 52 20 94t54.5 72
t81 46t99.5 16q52 0 98.5 -16t81 -46t54.5 -72t20 -94v-224q0 -53 -21 -93.5t-56 -68.5h92v-82h-218z" />
    <glyph glyph-name="Iotadieresis" unicode="&#x3aa;" horiz-adv-x="252" 
d="M80 0v689h92v-689h-92zM271 804q0 -20 -14.5 -34.5t-34.5 -14.5t-34.5 14.5t-14.5 34.5t14.5 34t34.5 14t34.5 -14t14.5 -34zM75 804q0 -20 -14.5 -34.5t-34.5 -14.5t-34 14.5t-14 34.5t14 34t34 14t34.5 -14t14.5 -34z" />
    <glyph glyph-name="Upsilondieresis" unicode="&#x3ab;" horiz-adv-x="537" 
d="M272 364l74 166l78 159h100l-209 -424v-265h-93v264l-210 425h101l80 -164l72 -161h7zM417 806q0 -20 -14.5 -34.5t-34.5 -14.5t-34.5 14.5t-14.5 34.5t14.5 34t34.5 14t34.5 -14t14.5 -34zM221 806q0 -20 -14.5 -34.5t-34.5 -14.5t-34 14.5t-14 34.5t14 34t34 14
t34.5 -14t14.5 -34z" />
    <glyph glyph-name="alphatonos" unicode="&#x3ac;" horiz-adv-x="501" 
d="M378 0l-10 45q-57 -32 -93.5 -41t-63.5 -9q-73 0 -119.5 46t-46.5 131v152q0 85 46.5 131t119.5 46q27 0 63 -10t95 -44l10 48h74v-495h-75zM368 364q-39 24 -80.5 39.5t-68.5 15.5q-40 0 -64 -24t-24 -81v-131q0 -58 25 -81.5t63 -22.5q31 0 69.5 13.5t79.5 39.5v232z
M211 571l72 177l81 -25l-100 -172z" />
    <glyph glyph-name="epsilontonos" unicode="&#x3ad;" horiz-adv-x="424" 
d="M416 58q-39 -35 -83 -48.5t-92 -13.5q-93 0 -142.5 41t-49.5 107q0 11 3.5 27t12.5 33t23.5 32t36.5 24q-23 9 -37 21t-21 25.5t-9 26.5t-2 24q0 27 12 53t35 46.5t57 32.5t78 12q48 0 91.5 -14t78.5 -47l-51 -59q-26 23 -56.5 31.5t-59.5 8.5q-42 0 -71.5 -17t-29.5 -50
q0 -29 21.5 -45t61.5 -16h81v-71h-88q-40 0 -62 -21t-22 -56q0 -28 27 -49.5t86 -21.5q29 0 61 8.5t58 34.5zM184 571l72 177l81 -25l-100 -172z" />
    <glyph glyph-name="etatonos" unicode="&#x3ae;" horiz-adv-x="497" 
d="M298 501q73 0 114 -46t41 -131v-324h-86v313q0 58 -25 81.5t-63 22.5q-30 0 -70.5 -15.5t-78.5 -39.5v-362h-86v496h76l10 -55q32 20 57.5 32t45.5 18t36 8t29 2zM193 571l72 177l81 -25l-100 -172z" />
    <glyph glyph-name="iotatonos" unicode="&#x3af;" horiz-adv-x="239" 
d="M77 0v496h85v-496h-85zM91 571l72 177l81 -25l-100 -172z" />
    <glyph glyph-name="upsilondieresistonos" unicode="&#x3b0;" horiz-adv-x="502" 
d="M455 171q0 -43 -18 -76t-47 -55t-66 -33.5t-75 -11.5t-74.5 11.5t-65.5 33.5t-46.5 55t-17.5 76v325h86v-304q0 -32 9.5 -54.5t26 -36.5t38 -20t46.5 -6q20 0 41 6t38 20t28 36.5t11 54.5v304h86v-325zM410 639q0 -20 -14.5 -34.5t-34.5 -14.5t-34.5 14.5t-14.5 34.5
t14.5 34t34.5 14t34.5 -14t14.5 -34zM188 639q0 -20 -14.5 -34.5t-34.5 -14.5t-34 14.5t-14 34.5t14 34t34 14t34.5 -14t14.5 -34zM181 571l72 177l81 -25l-100 -172z" />
    <glyph glyph-name="alpha" unicode="&#x3b1;" horiz-adv-x="501" 
d="M378 0l-10 45q-57 -32 -93.5 -41t-63.5 -9q-73 0 -119.5 46t-46.5 131v152q0 85 46.5 131t119.5 46q27 0 63 -10t95 -44l10 48h74v-495h-75zM368 364q-39 24 -80.5 39.5t-68.5 15.5q-40 0 -64 -24t-24 -81v-131q0 -58 25 -81.5t63 -22.5q31 0 69.5 13.5t79.5 39.5v232z
" />
    <glyph glyph-name="beta" unicode="&#x3b2;" horiz-adv-x="502" 
d="M458 172q0 -85 -46.5 -131t-119.5 -46q-27 0 -66.5 10.5t-90.5 40.5l-10 -46h-75v527q0 45 14.5 80t40.5 59t61.5 36.5t77.5 12.5q52 0 88 -16t58 -41t31.5 -55t9.5 -57q0 -14 -3 -32t-10.5 -36t-19.5 -34t-30 -28q23 -9 40 -25.5t28 -37.5t16.5 -44.5t5.5 -45.5v-91z
M372 269q0 45 -29 71.5t-78 26.5h-64v70h56q25 0 42.5 10.5t29 26t17 33.5t5.5 33q0 19 -6.5 37t-19.5 32.5t-33.5 23.5t-47.5 9q-30 0 -51 -9.5t-33.5 -24.5t-18.5 -34.5t-6 -39.5v-407q17 -9 36.5 -17.5t39 -16t38 -12t32.5 -4.5q30 0 48 9.5t27.5 24.5t12.5 34.5t3 40.5
v83z" />
    <glyph glyph-name="gamma" unicode="&#x3b3;" horiz-adv-x="452" 
d="M231 150h4l124 345h89l-175 -464v-231h-85v225l-117 350q-6 18 -11 27.5t-10 14t-12.5 5t-17.5 0.5h-4l-7 69q28 9 50 9q34 0 53 -14t32 -56z" />
    <glyph glyph-name="delta" unicode="&#x3b4;" horiz-adv-x="503" 
d="M458 175q0 -43 -18 -76.5t-47 -56.5t-66 -35t-75 -12q-41 0 -78 12t-65 34.5t-44.5 56t-16.5 76.5v129q0 56 30 101t75 65q-41 23 -54.5 48.5t-13.5 51.5q0 68 48 105.5t124 37.5q51 0 92 -9.5t78 -32.5l-40 -67q-32 19 -59.5 27t-62.5 8q-44 0 -69 -14.5t-25 -48.5
q0 -15 13.5 -28.5t34 -24.5t45.5 -20.5t48 -16.5q66 -20 106 -66.5t40 -115.5v-128zM373 273q0 35 -8.5 59.5t-26 42t-44.5 29t-64 19.5q-19 -8 -36.5 -19.5t-30.5 -29t-21 -41t-8 -55.5v-88q0 -32 11 -55t28.5 -37t38.5 -20.5t42 -6.5q20 0 41 6.5t38.5 20.5t28.5 37t11 55
v83z" />
    <glyph glyph-name="epsilon" unicode="&#x3b5;" horiz-adv-x="424" 
d="M416 58q-39 -35 -83 -48.5t-92 -13.5q-93 0 -142.5 41t-49.5 107q0 11 3.5 27t12.5 33t23.5 32t36.5 24q-23 9 -37 21t-21 25.5t-9 26.5t-2 24q0 27 12 53t35 46.5t57 32.5t78 12q48 0 91.5 -14t78.5 -47l-51 -59q-26 23 -56.5 31.5t-59.5 8.5q-42 0 -71.5 -17t-29.5 -50
q0 -29 21.5 -45t61.5 -16h81v-71h-88q-40 0 -62 -21t-22 -56q0 -28 27 -49.5t86 -21.5q29 0 61 8.5t58 34.5l52 -59v0z" />
    <glyph glyph-name="zeta" unicode="&#x3b6;" horiz-adv-x="402" 
d="M263 -159q3 16 8.5 37t12 42.5t14 42.5t14.5 36q-47 1 -94 10.5t-85.5 32t-65 60t-30.5 94.5q-4 47 13 100t53 109t91 112t128 109h-268v74h379v-71q-68 -49 -126.5 -103t-100.5 -108.5t-64.5 -107t-19.5 -98.5q3 -43 23 -70t51.5 -42t71 -20.5t80.5 -5.5h34l30 -61
q-11 -16 -21.5 -39t-20 -48.5t-17 -52.5t-13.5 -50z" />
    <glyph glyph-name="eta" unicode="&#x3b7;" horiz-adv-x="497" 
d="M298 501q73 0 114 -46t41 -131v-324h-86v313q0 58 -25 81.5t-63 22.5q-30 0 -70.5 -15.5t-78.5 -39.5v-362h-86v496h76l10 -55q32 20 57.5 32t45.5 18t36 8t29 2z" />
    <glyph glyph-name="theta" unicode="&#x3b8;" horiz-adv-x="499" 
d="M455 171q0 -43 -18 -76t-47 -55t-66 -33.5t-75 -11.5t-74.5 11.5t-65.5 33.5t-46.5 55t-17.5 76v362q0 43 17 76t45.5 55.5t65.5 34.5t77 12q42 0 79 -12t65 -34.5t44.5 -55.5t16.5 -76v-362zM369 514q0 32 -11 54.5t-28 36.5t-38 20t-41 6q-21 0 -42 -6t-38.5 -20
t-28.5 -36.5t-11 -54.5v-109h238v109zM131 333v-141q0 -32 11 -54.5t28.5 -36.5t38.5 -20t42 -6q20 0 41 6t38 20t28 36.5t11 54.5v141h-238z" />
    <glyph glyph-name="iota" unicode="&#x3b9;" horiz-adv-x="239" 
d="M77 0v496h85v-496h-85z" />
    <glyph glyph-name="kappa" unicode="&#x3ba;" horiz-adv-x="484" 
d="M50 0v496h85v-211h84q14 0 28 1.5t26 8.5t22.5 20.5t18.5 37.5l48 143h88l-49 -144q-12 -36 -28.5 -60.5t-44.5 -32.5q34 -8 50 -34.5t28 -63.5l53 -161h-90l-43 137q-8 24 -17.5 38.5t-21.5 22t-26 10t-31 2.5h-95v-210h-85z" />
    <glyph glyph-name="lambda" unicode="&#x3bb;" horiz-adv-x="510" 
d="M374 0v365q-40 14 -75 22.5t-66 8.5q-40 1 -68 -23.5t-28 -82.5v-290h-87v300q0 42 13.5 75t37.5 55.5t56 34.5t68 12q27 0 63.5 -6t85.5 -22v66q0 21 -5 42.5t-17.5 38t-33 27t-50.5 10.5q-39 0 -74 -13t-62 -30l-37 69q45 25 86 40.5t97 15.5q95 0 138.5 -53t43.5 -150
v-512h-86z" />
    <glyph glyph-name="nu" unicode="&#x3bd;" horiz-adv-x="457" 
d="M234 116l56 183l64 196h93l-176 -495h-84l-177 495h94l65 -194l59 -185h6z" />
    <glyph glyph-name="xi" unicode="&#x3be;" horiz-adv-x="429" 
d="M278 -160q3 15 8.5 35t12 41t14.5 41t17 36q-51 0 -102 10t-92 35t-66.5 66t-25.5 103q0 19 5 46t17.5 53.5t34.5 50t56 36.5q-29 9 -47.5 26.5t-29 38t-14.5 41.5t-4 37q1 39 17 70.5t43 54t64 35t80 12.5q15 0 35 -1t43 -5t47 -12t45 -21l-37 -69q-38 22 -73 27.5
t-63 5.5q-47 0 -79.5 -24.5t-37.5 -66.5q-4 -30 6 -51.5t28.5 -35.5t43.5 -21t52 -7h102v-69h-123q-29 0 -52.5 -12.5t-40.5 -33.5t-26 -47t-9 -53q0 -51 24 -79.5t60 -43t79 -17.5t82 -3h26l31 -61q-12 -16 -22.5 -38t-20 -47t-17 -51t-12.5 -49z" />
    <glyph glyph-name="omicron" unicode="&#x3bf;" horiz-adv-x="505" 
d="M458 175q0 -43 -16.5 -76.5t-45 -56.5t-65.5 -35t-79 -12q-43 0 -80 12t-64.5 35t-43.5 56.5t-16 76.5v144q0 43 16.5 76.5t44 57t65 36t79.5 12.5q45 0 82.5 -12.5t65 -36t42.5 -57t15 -76.5v-144zM373 304q0 32 -11 54.5t-28.5 36.5t-38.5 20t-41 6q-21 0 -42 -6
t-38.5 -20t-28.5 -36.5t-11 -54.5v-112q0 -32 9.5 -54.5t25.5 -36.5t38 -20t47 -6q20 0 41 6t38.5 20t28.5 36.5t11 54.5v112z" />
    <glyph glyph-name="pi" unicode="&#x3c0;" horiz-adv-x="503" 
d="M371 0v419h-237v-419h-85v495h408v-495h-86z" />
    <glyph glyph-name="rho" unicode="&#x3c1;" horiz-adv-x="496" 
d="M454 172q0 -85 -46.5 -131t-120.5 -46q-26 0 -67 4.5t-89 27.5v-227h-86v523q0 43 18 76t46.5 55.5t65 34.5t74.5 12q37 0 73.5 -12t66 -34.5t47.5 -55.5t18 -76v-151zM249 421q-21 0 -42 -6t-38 -20t-28 -36.5t-11 -54.5l1 -194q38 -20 78 -27t71 -7q38 -1 63 24t25 83
v121q0 32 -11 54.5t-28 36.5t-38 20t-42 6z" />
    <glyph glyph-name="sigma1" unicode="&#x3c2;" horiz-adv-x="454" 
d="M425 142q0 -35 -15 -62t-41 -46.5t-62 -29.5t-79 -10q-52 0 -101 13.5t-99 51.5l47 63q37 -31 76 -42.5t85 -11.5q18 0 36.5 4.5t33 13.5t23.5 23.5t9 34.5q0 32 -23 46t-58 20q-38 6 -75.5 13.5t-67.5 22.5t-49 40t-19 66q0 34 14 62t39 47t57.5 29.5t70.5 10.5
q56 0 99 -11.5t83 -40.5l-43 -64q-35 22 -68 31t-71 9q-44 0 -71 -20.5t-27 -51.5q0 -26 22 -39t55 -20.5t71 -14t71 -21.5t55 -42t22 -74z" />
    <glyph glyph-name="sigma" unicode="&#x3c3;" horiz-adv-x="516" 
d="M404 419q23 -17 36.5 -43t13.5 -57v-148q0 -43 -18 -76t-47 -55t-65.5 -33.5t-74.5 -11.5t-75 11.5t-66 33.5t-46.5 55t-17.5 76v148q0 43 18 76t47.5 55.5t66 34t73.5 11.5h250v-77h-95zM369 300q0 32 -11 54t-28 36t-38 20.5t-42 6.5t-42 -6.5t-38.5 -20.5t-28.5 -36
t-11 -54v-108q0 -32 11 -54.5t28.5 -36.5t38.5 -20t42 -6t42 6t38 20t28 36.5t11 54.5v108z" />
    <glyph glyph-name="tau" unicode="&#x3c4;" horiz-adv-x="384" 
d="M198 177q0 -30 5.5 -49.5t15 -31t23.5 -15.5t32 -4q17 0 37.5 2.5t43.5 5.5l14 -73q-29 -10 -60.5 -13.5t-46.5 -3.5q-79 0 -114 36t-35 120l-1 268h-95v77h328v-77h-147v-242z" />
    <glyph glyph-name="upsilon" unicode="&#x3c5;" horiz-adv-x="502" 
d="M455 171q0 -43 -18 -76t-47 -55t-66 -33.5t-75 -11.5t-74.5 11.5t-65.5 33.5t-46.5 55t-17.5 76v325h86v-304q0 -32 9.5 -54.5t26 -36.5t38 -20t46.5 -6q20 0 41 6t38 20t28 36.5t11 54.5v304h86v-325v0z" />
    <glyph glyph-name="phi" unicode="&#x3c6;" horiz-adv-x="635" 
d="M359 -200h-86v194q-45 0 -86 14t-72 38.5t-49.5 58.5t-18.5 75v141q0 34 12 63t32.5 51.5t46.5 37t55 20.5l17 -78q-29 -9 -53 -37t-24 -76v-102q0 -58 37.5 -91.5t102.5 -34.5v383q85 44 149 44q74 0 121 -46t48 -131l1 -144q0 -44 -21 -78.5t-55 -58.5t-75.5 -36.5
t-81.5 -12.5h-1zM506 313q0 58 -25 81t-63 23q-12 0 -28 -5t-31 -10v-327q31 0 58 6.5t46.5 21t31 38.5t11.5 59v113z" />
    <glyph glyph-name="chi" unicode="&#x3c7;" horiz-adv-x="434" 
d="M325 0l-111 186l-114 -186h-101l168 254l-158 242h103l103 -173l105 173h102l-160 -240l167 -256h-104z" />
    <glyph glyph-name="psi" unicode="&#x3c8;" horiz-adv-x="635" 
d="M586 185q0 -45 -18.5 -80.5t-49.5 -60t-72 -37t-86 -12.5v-195h-85v195q-45 0 -86 13.5t-72 37.5t-49.5 58t-18.5 75v316h85v-291q0 -59 37.5 -94t103.5 -36v421h85v-420q66 0 103.5 34t37.5 95v291h85v-310v0z" />
    <glyph glyph-name="omega" unicode="&#x3c9;" horiz-adv-x="764" 
d="M719 175q0 -43 -15.5 -76.5t-41.5 -56.5t-60.5 -35t-72.5 -12q-47 0 -85.5 20.5t-61.5 59.5q-25 -38 -62 -59t-85 -21q-38 0 -72 12t-60 35t-41.5 56.5t-15.5 76.5v144q0 37 12.5 68t34.5 53.5t50.5 37t60.5 20.5l14 -78q-35 -7 -61 -35.5t-26 -84.5v-104q0 -32 8.5 -55
t23 -37.5t33.5 -21.5t40 -7t39.5 7t32.5 21.5t23 37.5t9 55l1 171h84v-171q0 -53 26.5 -87t78.5 -34q21 0 39.5 7t33 21.5t23 37.5t8.5 55v104q0 54 -24.5 82.5t-58.5 36.5l14 78q31 -6 59 -20.5t49 -37t33.5 -53t12.5 -67.5v-144v0z" />
    <glyph glyph-name="iotadieresis" unicode="&#x3ca;" horiz-adv-x="239" 
d="M77 0v496h85v-496h-85zM275 639q0 -20 -14.5 -34.5t-34.5 -14.5t-34.5 14.5t-14.5 34.5t14.5 34t34.5 14t34.5 -14t14.5 -34zM79 639q0 -20 -14.5 -34.5t-34.5 -14.5t-34 14.5t-14 34.5t14 34t34 14t34.5 -14t14.5 -34z" />
    <glyph glyph-name="upsilondieresis" unicode="&#x3cb;" horiz-adv-x="502" 
d="M455 171q0 -43 -18 -76t-47 -55t-66 -33.5t-75 -11.5t-74.5 11.5t-65.5 33.5t-46.5 55t-17.5 76v325h86v-304q0 -32 9.5 -54.5t26 -36.5t38 -20t46.5 -6q20 0 41 6t38 20t28 36.5t11 54.5v304h86v-325zM395 639q0 -20 -14.5 -34.5t-34.5 -14.5t-34.5 14.5t-14.5 34.5
t14.5 34t34.5 14t34.5 -14t14.5 -34zM199 639q0 -20 -14.5 -34.5t-34.5 -14.5t-34 14.5t-14 34.5t14 34t34 14t34.5 -14t14.5 -34z" />
    <glyph glyph-name="omicrontonos" unicode="&#x3cc;" horiz-adv-x="505" 
d="M215 571l72 177l81 -25l-100 -172zM458 175q0 -43 -16.5 -76.5t-45 -56.5t-65.5 -35t-79 -12q-43 0 -80 12t-64.5 35t-43.5 56.5t-16 76.5v144q0 43 16.5 76.5t44 57t65 36t79.5 12.5q45 0 82.5 -12.5t65 -36t42.5 -57t15 -76.5v-144zM373 304q0 32 -11 54.5t-28.5 36.5
t-38.5 20t-41 6q-21 0 -42 -6t-38.5 -20t-28.5 -36.5t-11 -54.5v-112q0 -32 9.5 -54.5t25.5 -36.5t38 -20t47 -6q20 0 41 6t38.5 20t28.5 36.5t11 54.5v112z" />
    <glyph glyph-name="upsilontonos" unicode="&#x3cd;" horiz-adv-x="502" 
d="M455 171q0 -43 -18 -76t-47 -55t-66 -33.5t-75 -11.5t-74.5 11.5t-65.5 33.5t-46.5 55t-17.5 76v325h86v-304q0 -32 9.5 -54.5t26 -36.5t38 -20t46.5 -6q20 0 41 6t38 20t28 36.5t11 54.5v304h86v-325zM213 571l72 177l81 -25l-100 -172z" />
    <glyph glyph-name="omegatonos" unicode="&#x3ce;" horiz-adv-x="764" 
d="M719 175q0 -43 -15.5 -76.5t-41.5 -56.5t-60.5 -35t-72.5 -12q-47 0 -85.5 20.5t-61.5 59.5q-25 -38 -62 -59t-85 -21q-38 0 -72 12t-60 35t-41.5 56.5t-15.5 76.5v144q0 37 12.5 68t34.5 53.5t50.5 37t60.5 20.5l14 -78q-35 -7 -61 -35.5t-26 -84.5v-104q0 -32 8.5 -55
t23 -37.5t33.5 -21.5t40 -7t39.5 7t32.5 21.5t23 37.5t9 55l1 171h84v-171q0 -53 26.5 -87t78.5 -34q21 0 39.5 7t33 21.5t23 37.5t8.5 55v104q0 54 -24.5 82.5t-58.5 36.5l14 78q31 -6 59 -20.5t49 -37t33.5 -53t12.5 -67.5v-144zM336 571l72 177l81 -25l-100 -172z" />
    <glyph glyph-name="afii10023" unicode="&#x401;" horiz-adv-x="557" 
d="M61 0v689h460v-84h-368v-219h315v-83h-315v-220h368v-83h-460zM443 811q0 -20 -14.5 -34.5t-34.5 -14.5t-34.5 14.5t-14.5 34.5t14.5 34t34.5 14t34.5 -14t14.5 -34zM247 811q0 -20 -14.5 -34.5t-34.5 -14.5t-34 14.5t-14 34.5t14 34t34 14t34.5 -14t14.5 -34z" />
    <glyph glyph-name="afii10051" unicode="&#x402;" horiz-adv-x="714" 
d="M418 -1q44 0 74.5 8.5t50 27.5t28.5 49.5t9 74.5v92q0 42 -9.5 69.5t-27 44.5t-42.5 24t-56 7q-22 0 -44.5 -5.5t-44 -14t-40.5 -19.5t-34 -22v-335h-93v604h-179v85h531v-85h-259v-178q42 26 90 41.5t92 15.5q111 0 160 -58.5t49 -162.5v-114q0 -53 -12 -96t-41 -73
t-78 -46.5t-124 -16.5v83z" />
    <glyph glyph-name="afii10052" unicode="&#x403;" horiz-adv-x="513" 
d="M153 605v-605h-92v689h460v-84h-368zM214 780l148 122l59 -61l-170 -103z" />
    <glyph glyph-name="afii10053" unicode="&#x404;" horiz-adv-x="526" 
d="M303 696q56 0 105 -15t88 -47l-46 -72q-27 23 -67.5 36t-79.5 13q-29 0 -57 -9t-50 -28t-35.5 -49t-13.5 -73v-58h242v-82h-242v-75q0 -42 14 -72.5t36 -49.5t49.5 -28t54.5 -9q39 0 79.5 11t72.5 37l44 -71q-32 -26 -83 -44t-111 -18q-54 0 -99.5 15.5t-79 44.5t-52 71
t-18.5 95v252q0 52 20.5 93.5t54.5 71t79 45t95 15.5z" />
    <glyph glyph-name="afii10054" unicode="&#x405;" horiz-adv-x="556" 
d="M525 191q0 -46 -17.5 -82.5t-50 -62t-77.5 -39t-100 -13.5q-71 0 -133.5 20t-120.5 65l52 66q46 -32 97.5 -50t105.5 -18q70 0 110 30t40 84q0 34 -15.5 55.5t-40 34.5t-54 20t-57.5 13q-41 8 -79 20.5t-67 34.5t-47 54.5t-18 80.5q0 43 15.5 79.5t44.5 62.5t70 41t93 15
q60 0 117 -11t109 -43l-43 -78q-44 26 -91.5 37t-92.5 11q-27 0 -51 -7t-42 -21.5t-28.5 -36.5t-10.5 -51t15 -47t38 -29.5t50 -18.5t51 -12q43 -10 84 -22.5t73 -34.5t51.5 -57t19.5 -90z" />
    <glyph glyph-name="afii10055" unicode="&#x406;" horiz-adv-x="252" 
d="M80 0v689h92v-689h-92z" />
    <glyph glyph-name="afii10056" unicode="&#x407;" horiz-adv-x="252" 
d="M80 0v689h92v-689h-92zM274 818q0 -20 -14.5 -34.5t-34.5 -14.5t-34.5 14.5t-14.5 34.5t14.5 34t34.5 14t34.5 -14t14.5 -34zM78 818q0 -20 -14.5 -34.5t-34.5 -14.5t-34 14.5t-14 34.5t14 34t34 14t34.5 -14t14.5 -34z" />
    <glyph glyph-name="afii10057" unicode="&#x408;" horiz-adv-x="521" 
d="M440 222q0 -53 -18.5 -95.5t-51 -72t-75.5 -45.5t-91 -16q-47 0 -99.5 13t-89.5 39l43 74q35 -22 67.5 -31.5t63.5 -9.5q35 0 64.5 9t50.5 28.5t32.5 50.5t11.5 76v447h92v-467v0z" />
    <glyph glyph-name="afii10058" unicode="&#x409;" horiz-adv-x="915" 
d="M896 204q0 -37 -12 -73.5t-36 -65.5t-60.5 -47t-86.5 -18h-286v605h-176v-218q0 -97 -12 -166t-36 -116.5t-59.5 -78t-81.5 -49.5l-39 74q37 19 63.5 44t43.5 63.5t24.5 95t7.5 139.5v296h359v-284h189q46 0 82.5 -17.5t62 -46t39.5 -64.5t14 -73zM805 204
q0 28 -9.5 49.5t-26.5 36.5t-40 22.5t-50 7.5h-170v-236h173q54 0 88.5 32t34.5 88z" />
    <glyph glyph-name="afii10059" unicode="&#x40a;" horiz-adv-x="924" 
d="M895 204q0 -37 -12 -73.5t-36 -65.5t-60.5 -47t-86.5 -18h-286v317h-268v-317h-92v689h92v-288h268v288h92v-287h191q46 0 82.5 -17t62 -45t39.5 -63.5t14 -72.5zM804 204q0 56 -36.5 84.5t-89.5 28.5h-172v-233h175q54 0 88.5 32t34.5 88z" />
    <glyph glyph-name="afii10060" unicode="&#x40b;" horiz-adv-x="714" 
d="M580 0v237q0 84 -29 121.5t-100 37.5q-22 0 -45.5 -5.5t-46 -14t-42.5 -19.5t-35 -22v-335h-93v604h-179v85h531v-85h-259v-175q18 11 39.5 20.5t44.5 17t46.5 12t45.5 4.5q63 0 104.5 -17t66 -48t34.5 -74.5t10 -95.5v-248h-93z" />
    <glyph glyph-name="afii10061" unicode="&#x40c;" horiz-adv-x="572" 
d="M57 0v689h92v-297h107q16 0 34 3t35.5 13.5t32.5 30.5t26 54l63 196h88l-62 -201q-16 -51 -41 -85t-57 -45q43 -14 67 -49.5t39 -86.5l66 -222h-96l-60 206q-10 34 -24.5 55.5t-31.5 32.5t-36 15t-38 4h-112v-313h-92zM212 780l148 122l59 -61l-170 -103z" />
    <glyph glyph-name="afii10062" unicode="&#x40e;" horiz-adv-x="518" 
d="M310 152q-17 -48 -35 -79t-37 -49.5t-40.5 -25.5t-45.5 -7h-76v87h58q21 0 38.5 9t31.5 39l8 22l-203 541h96l156 -427h5l157 427h92zM199 834q1 -10 6 -21t14 -20.5t22 -15.5t29 -6q18 0 31.5 6t22.5 15.5t13.5 20.5t4.5 21h71q-2 -20 -9 -42.5t-23.5 -41.5t-43 -32
t-67.5 -13t-68.5 13t-44 32t-24 41.5t-7.5 42.5h73z" />
    <glyph glyph-name="afii10145" unicode="&#x40f;" horiz-adv-x="617" 
d="M261 0h-207v689h92v-606h323v606h94v-689h-205v-167h-97v167z" />
    <glyph glyph-name="afii10017" unicode="&#x410;" horiz-adv-x="597" 
d="M490 0l-54 155h-274l-53 -155h-96l240 689h93l241 -689h-97zM297 563l-50 -160l-55 -164h215l-55 164l-51 160h-4z" />
    <glyph glyph-name="afii10018" unicode="&#x411;" horiz-adv-x="563" 
d="M535 204q0 -37 -12 -73.5t-36 -65.5t-60.5 -47t-86.5 -18h-286v689h412v-85h-320v-199h191q49 0 86 -17.5t62 -46t37.5 -64.5t12.5 -73zM444 204q0 28 -9.5 49.5t-26.5 36.5t-40 22.5t-50 7.5h-172v-236h175q54 0 88.5 32t34.5 88z" />
    <glyph glyph-name="afii10019" unicode="&#x412;" horiz-adv-x="593" 
d="M550 202q0 -37 -12.5 -73t-37 -64.5t-61.5 -46.5t-85 -18h-297v689h286q47 0 83.5 -15t61.5 -40t38 -58t13 -69q0 -41 -19 -80.5t-66 -65.5q50 -26 73 -70t23 -89zM448 505q0 54 -34.5 77t-88.5 23h-175v-203h183q23 0 44 6.5t36.5 19.5t25 32.5t9.5 44.5zM459 202
q0 28 -10.5 49.5t-28 36.5t-40 23t-46.5 8h-184v-236h186q61 0 92 31t31 88z" />
    <glyph glyph-name="afii10020" unicode="&#x413;" horiz-adv-x="513" 
d="M153 605v-605h-92v689h460v-84h-368z" />
    <glyph glyph-name="afii10021" unicode="&#x414;" horiz-adv-x="691" 
d="M61 86q23 17 40 41.5t28.5 62.5t18.5 93t10 132l11 274h435l1 -605h56v-233h-90v149h-471v-149h-90v235h51zM253 605l-10 -198q-3 -67 -7 -117t-11 -88.5t-18.5 -67t-30.5 -51.5h334v522h-257z" />
    <glyph glyph-name="afii10022" unicode="&#x415;" horiz-adv-x="557" 
d="M61 0v689h460v-84h-368v-219h315v-83h-315v-220h368v-83h-460z" />
    <glyph glyph-name="afii10024" unicode="&#x416;" horiz-adv-x="884" 
d="M396 313h-84q-20 0 -39 -4t-35.5 -15t-30.5 -32.5t-24 -55.5l-60 -206h-98l67 220q15 51 39.5 87.5t67.5 50.5q-33 11 -58.5 43.5t-39.5 83.5l-64 204h91l62 -196q11 -34 26.5 -54t33 -30.5t35.5 -13.5t35 -3h76v297h92v-297h76q16 0 34.5 3t36 13.5t33 30.5t26.5 54
l62 196h91l-64 -204q-14 -51 -39.5 -83.5t-58.5 -43.5q43 -14 67.5 -50.5t39.5 -87.5l67 -220h-98l-60 206q-10 34 -24 55.5t-30.5 32.5t-35.5 15t-39 4h-84v-313h-92v313z" />
    <glyph glyph-name="afii10025" unicode="&#x417;" horiz-adv-x="508" 
d="M244 695q42 0 80.5 -9.5t68 -30.5t47.5 -54.5t18 -81.5q0 -51 -25 -93.5t-73 -60.5q28 -9 48 -26t33 -38.5t19 -46t6 -48.5q0 -55 -19 -95t-52 -66.5t-78.5 -39t-97.5 -12.5q-31 0 -62 5.5t-58.5 15t-51 22t-39.5 26.5l48 68q14 -11 34.5 -21.5t43 -18t45.5 -12t41 -4.5
q83 0 120 35.5t37 95.5q0 57 -33.5 86.5t-93.5 29.5h-78v77h72q21 0 43.5 7t40.5 21.5t30 36.5t12 52q0 51 -38.5 75t-95.5 24q-18 0 -39.5 -4t-42.5 -11.5t-40 -17t-32 -21.5l-48 68q39 29 88 48t122 19z" />
    <glyph glyph-name="afii10026" unicode="&#x418;" horiz-adv-x="645" 
d="M487 534l-100 -160l-241 -374h-87v689h92v-527h7l88 138l251 389h89v-689h-92v534h-7z" />
    <glyph glyph-name="afii10027" unicode="&#x419;" horiz-adv-x="645" 
d="M242 848q1 -10 6 -21t14 -20.5t22 -15.5t29 -6q18 0 31.5 6t22.5 15.5t13.5 20.5t4.5 21h71q-2 -20 -9 -42.5t-23.5 -41.5t-43 -32t-67.5 -13t-68.5 13t-44 32t-24 41.5t-7.5 42.5h73zM487 534l-100 -160l-241 -374h-87v689h92v-527h7l88 138l251 389h89v-689h-92v534h-7
z" />
    <glyph glyph-name="afii10028" unicode="&#x41a;" horiz-adv-x="572" 
d="M57 0v689h92v-297h107q16 0 34 3t35.5 13.5t32.5 30.5t26 54l63 196h88l-62 -201q-16 -51 -41 -85t-57 -45q43 -14 67 -49.5t39 -86.5l66 -222h-96l-60 206q-10 34 -24.5 55.5t-31.5 32.5t-36 15t-38 4h-112v-313h-92z" />
    <glyph glyph-name="afii10029" unicode="&#x41b;" horiz-adv-x="622" 
d="M230 605v-218q0 -97 -12.5 -166t-37 -116.5t-60.5 -78t-82 -49.5l-40 79q35 18 61.5 42t44 62t26 94t8.5 139v296h424v-689h-94v605h-238z" />
    <glyph glyph-name="afii10030" unicode="&#x41c;" horiz-adv-x="742" 
d="M378 225l85 183l137 281h85v-689h-92v469h-5l-63 -133l-116 -234h-69l-110 215l-75 152h-5v-469h-92v689h88l139 -281l87 -183h6z" />
    <glyph glyph-name="afii10031" unicode="&#x41d;" horiz-adv-x="617" 
d="M469 0v307h-323v-307h-92v689h92v-298h323v298h94v-689h-94z" />
    <glyph glyph-name="afii10032" unicode="&#x41e;" horiz-adv-x="613" 
d="M561 225q0 -53 -19.5 -96t-54 -73t-81 -46.5t-100.5 -16.5q-56 0 -103 16.5t-80.5 46.5t-52 73t-18.5 96v238q0 52 18.5 95t52 73.5t80.5 47.5t103 17q55 0 102 -17t81 -47.5t53 -73.5t19 -95v-238zM468 452q0 42 -13 72t-35 49.5t-51.5 28.5t-62.5 9t-62.5 -9t-51 -28.5
t-34.5 -49.5t-13 -72v-216q0 -42 13 -72t35 -49t51.5 -28t61.5 -9q33 0 62 9t51.5 28t35.5 49t13 72v216z" />
    <glyph glyph-name="afii10033" unicode="&#x41f;" horiz-adv-x="617" 
d="M469 0v605h-323v-605h-92v689h509v-689h-94z" />
    <glyph glyph-name="afii10034" unicode="&#x420;" horiz-adv-x="554" 
d="M535 483q0 -37 -13.5 -73.5t-38.5 -66t-61 -48t-82 -18.5h-194v-277h-92v689h286q50 0 86.5 -18.5t60.5 -48t36 -66t12 -73.5zM444 483q0 56 -34.5 89t-88.5 33h-175v-243h175q54 0 88.5 32t34.5 89z" />
    <glyph glyph-name="afii10035" unicode="&#x421;" horiz-adv-x="527" 
d="M303 696q56 0 105 -15t88 -47l-46 -72q-27 23 -67.5 36t-79.5 13q-29 0 -57 -9t-50 -28t-35.5 -49t-13.5 -73v-215q0 -42 14 -72.5t36 -49.5t49.5 -28t54.5 -9q39 0 79.5 11t72.5 37l44 -71q-32 -26 -83 -44t-111 -18q-50 0 -95.5 15.5t-79.5 44.5t-54 71t-20 95v252
q0 52 20.5 93.5t54.5 71t79 45t95 15.5z" />
    <glyph glyph-name="afii10036" unicode="&#x422;" horiz-adv-x="522" 
d="M308 604v-604h-93v604h-199v85h490v-85h-198z" />
    <glyph glyph-name="afii10037" unicode="&#x423;" horiz-adv-x="518" 
d="M310 152q-17 -48 -35 -79t-37 -49.5t-40.5 -25.5t-45.5 -7h-76v87h58q21 0 38.5 9t31.5 39l8 22l-203 541h96l156 -427h5l157 427h92z" />
    <glyph glyph-name="afii10038" unicode="&#x424;" horiz-adv-x="772" 
d="M433 0h-93v56q-67 2 -119 23t-87.5 55.5t-54 80.5t-18.5 99v97q0 51 19.5 96t55.5 79.5t87.5 56t116.5 23.5v30h93v-30q65 -2 116.5 -23t87.5 -55.5t55.5 -80t19.5 -96.5v-94q0 -53 -18.5 -99.5t-54 -81.5t-87.5 -56.5t-119 -23.5v-56zM154 319q0 -41 14 -73.5
t38.5 -55.5t58.5 -35.5t75 -13.5v440q-42 -1 -76 -14.5t-58.5 -36.5t-38 -55.5t-13.5 -72.5v-83zM619 402q0 40 -13.5 72.5t-38 55.5t-58.5 36.5t-76 14.5v-440q40 1 74.5 13.5t59 35.5t38.5 55.5t14 73.5v83z" />
    <glyph glyph-name="afii10039" unicode="&#x425;" horiz-adv-x="550" 
d="M435 0l-160 278l-159 -278h-107l214 353l-200 336h107l145 -260l146 260h107l-200 -336l214 -353h-107z" />
    <glyph glyph-name="afii10040" unicode="&#x426;" horiz-adv-x="636" 
d="M529 0h-475v689h92v-606h323v606h94v-604l57 -1v-233h-91v149z" />
    <glyph glyph-name="afii10041" unicode="&#x427;" horiz-adv-x="589" 
d="M122 690v-192q0 -84 31 -121.5t108 -37.5q22 0 46.5 5t48 13t44.5 18.5t36 21.5v293h93v-689h-93v302q-18 -11 -40 -20.5t-46 -16t-48 -10.5t-46 -4q-65 0 -108.5 17t-69.5 48t-37.5 74.5t-11.5 95.5v203h93z" />
    <glyph glyph-name="afii10042" unicode="&#x428;" horiz-adv-x="870" 
d="M815 689v-689h-760v689h92v-606h242v606h90v-606h244v606h92z" />
    <glyph glyph-name="afii10043" unicode="&#x429;" horiz-adv-x="886" 
d="M479 83h242v606h94v-604l57 -1v-233h-91v149h-726v689h92v-606h242v606h90v-606z" />
    <glyph glyph-name="afii10044" unicode="&#x42a;" horiz-adv-x="746" 
d="M706 204q0 -37 -12 -73.5t-36 -65.5t-60.5 -47t-86.5 -18h-286v604h-219v85h311v-284h191q46 0 82.5 -17.5t62 -46t39.5 -64.5t14 -73zM615 204q0 28 -9.5 49.5t-26.5 36.5t-40 22.5t-50 7.5h-172v-236h175q54 0 88.5 32t34.5 88z" />
    <glyph glyph-name="afii10045" unicode="&#x42b;" horiz-adv-x="772" 
d="M541 204q0 -37 -12 -73.5t-36 -65.5t-60.5 -47t-86.5 -18h-286v689h92v-284h191q46 0 82.5 -17.5t62 -46t39.5 -64.5t14 -73zM450 204q0 28 -9.5 49.5t-26.5 36.5t-40 22.5t-50 7.5h-172v-236h175q54 0 88.5 32t34.5 88zM620 0v689h92v-689h-92z" />
    <glyph glyph-name="afii10046" unicode="&#x42c;" horiz-adv-x="568" 
d="M541 204q0 -37 -12 -73.5t-36 -65.5t-60.5 -47t-86.5 -18h-286v689h92v-284h191q46 0 82.5 -17.5t62 -46t39.5 -64.5t14 -73zM450 204q0 28 -9.5 49.5t-26.5 36.5t-40 22.5t-50 7.5h-172v-236h175q54 0 88.5 32t34.5 88z" />
    <glyph glyph-name="afii10047" unicode="&#x42d;" horiz-adv-x="524" 
d="M229 696q55 0 99 -13.5t75 -41t48 -70t17 -100.5v-252q0 -53 -20 -95t-54 -71t-79.5 -44.5t-95.5 -15.5q-60 0 -111 18t-83 44l44 71q32 -26 72.5 -37t79.5 -11q31 0 59 9t49 28t33.5 49.5t12.5 72.5v78h-261v82h261v55q0 86 -40.5 122.5t-109.5 36.5q-39 0 -77 -13
t-65 -36l-46 72q39 32 87.5 47t104.5 15z" />
    <glyph glyph-name="afii10048" unicode="&#x42e;" horiz-adv-x="773" 
d="M718 225q0 -53 -16.5 -96t-47 -73t-74 -46.5t-97.5 -16.5q-113 0 -173.5 62.5t-60.5 169.5v82h-96v-307h-92v689h92v-298h96v72q0 52 15.5 95t45.5 73.5t73.5 47.5t99.5 17q55 0 98.5 -17t74 -47.5t46.5 -73.5t16 -95v-238zM625 452q0 84 -38 121.5t-104 37.5
t-103.5 -37.5t-37.5 -121.5v-216q0 -85 38 -121.5t103 -36.5q66 0 104 36.5t38 121.5v216z" />
    <glyph glyph-name="afii10049" unicode="&#x42f;" horiz-adv-x="596" 
d="M61 483q0 42 13 79.5t38.5 65.5t62 44.5t84.5 16.5h284v-689h-92v297h-137q-17 -1 -35 -6t-34 -17t-30 -32.5t-24 -52.5l-54 -189h-94l56 199q13 42 28 70.5t48 44.5q-60 18 -87 62.5t-27 106.5zM149 483q0 -59 36.5 -84t93.5 -25h172v231h-174q-62 0 -95 -31.5
t-33 -90.5z" />
    <glyph glyph-name="afii10065" unicode="&#x430;" horiz-adv-x="496" 
d="M360 48q-59 -33 -96.5 -42.5t-67.5 -9.5q-72 0 -115 40t-43 109q0 41 18.5 69t46 45.5t59 25t56.5 7.5h145v38q0 52 -29 72.5t-83 20.5q-26 0 -63.5 -7.5t-75.5 -38.5l-42 65q48 37 97 48t91 11q97 0 143.5 -42.5t46.5 -130.5v-328h-75l-10 46zM363 221h-131
q-16 0 -34.5 -2.5t-34.5 -10t-26.5 -23t-10.5 -40.5q0 -36 24.5 -54t62.5 -18q19 0 39.5 5.5t40 13.5t37.5 17.5t33 17.5v94z" />
    <glyph glyph-name="afii10066" unicode="&#x431;" horiz-adv-x="506" 
d="M144 428q13 13 30 22t34 14.5t32.5 7.5t26.5 2q94 0 142.5 -48t48.5 -134v-112q0 -43 -16.5 -77.5t-45 -58.5t-65.5 -36.5t-79 -12.5q-96 0 -150 49t-54 136v142q0 43 4.5 87.5t17.5 85t37 75.5t63 59q32 20 70 35t73 29q12 5 20.5 8.5t17.5 7.5t19.5 9t26.5 12l31 -72
q-30 -13 -48 -20.5t-30.5 -12.5t-22.5 -8.5t-23 -9.5q-42 -18 -70 -33t-47 -34t-29 -44.5t-16 -63.5zM373 277q0 65 -32 91t-87 26q-21 0 -42 -7t-38.5 -21.5t-28.5 -37.5t-11 -55v-81q0 -32 9.5 -54.5t25.5 -36.5t38 -20t47 -6q23 0 44.5 6t38 20t26.5 36.5t10 54.5v85z
" />
    <glyph glyph-name="afii10067" unicode="&#x432;" horiz-adv-x="482" 
d="M442 150q0 -27 -10 -54t-29.5 -48.5t-49 -34.5t-68.5 -13h-241v495h239q39 0 67 -11t46.5 -30t27.5 -43.5t9 -51.5t-14 -55t-45 -45q37 -17 52.5 -48.5t15.5 -60.5zM355 150q0 33 -23.5 51.5t-52.5 18.5h-148v-144h139q45 0 65 19.5t20 54.5zM347 358q0 32 -24 46.5
t-53 14.5h-139v-122h144q33 0 52.5 15.5t19.5 45.5z" />
    <glyph glyph-name="afii10068" unicode="&#x433;" horiz-adv-x="400" 
d="M133 419v-419h-87v496h353v-77h-266z" />
    <glyph glyph-name="afii10069" unicode="&#x434;" horiz-adv-x="570" 
d="M210 419l-6 -131q-4 -78 -12.5 -128.5t-30.5 -84.5h246v344h-197zM48 74q18 12 31 28.5t22 41t14 59t8 82.5l12 210h358v-420l41 -1v-201h-81v127h-358v-127h-81v199z" />
    <glyph glyph-name="afii10070" unicode="&#x435;" horiz-adv-x="483" 
d="M133 216v-33q0 -30 10 -50.5t27.5 -34t40 -19.5t46.5 -6q25 0 58 10t64 39l54 -59q-38 -39 -84.5 -53.5t-93.5 -14.5q-42 0 -80 11.5t-66.5 34t-45 56.5t-16.5 79v131q0 44 15 80t41.5 61t63 38.5t80.5 13.5t81 -13t63.5 -37t41 -58.5t14.5 -77.5v-98h-314zM360 305
q0 31 -9 53t-24.5 36.5t-36 21t-43.5 6.5t-43 -7t-36 -21t-25 -35.5t-9 -50.5v-22h226v19z" />
    <glyph glyph-name="afii10072" unicode="&#x436;" horiz-adv-x="701" 
d="M308 0v210h-58q-17 0 -31.5 -2.5t-26.5 -10t-21.5 -22t-16.5 -38.5l-39 -137h-90l49 161q6 18 12 34t15 29t21.5 22t29.5 13q-28 8 -45 32.5t-28 60.5l-45 144h88l44 -143q7 -24 17.5 -37.5t23 -20.5t26.5 -8.5t28 -1.5h47v211h85v-211h47q14 0 28 1.5t26.5 8.5
t22.5 20.5t18 37.5l44 143h88l-45 -144q-11 -36 -28 -60.5t-45 -32.5q34 -8 50.5 -34.5t27.5 -63.5l49 -161h-90l-39 137q-7 24 -16.5 38.5t-21.5 22t-26.5 10t-31.5 2.5h-58v-210h-85z" />
    <glyph glyph-name="afii10073" unicode="&#x437;" horiz-adv-x="424" 
d="M65 117q26 -23 61.5 -34t64.5 -11q32 0 53.5 6.5t35 17t19.5 24t6 27.5q0 35 -26.5 53t-66.5 18h-68v71h70q40 0 62 19.5t22 48.5q0 33 -29 48.5t-66 15.5q-29 0 -60.5 -8.5t-57.5 -31.5l-53 59q35 33 82 47t94 14q43 0 75.5 -11t54 -30t32.5 -43.5t11 -52.5
q0 -11 -2 -25.5t-9.5 -29.5t-21 -28.5t-36.5 -22.5q23 -9 38 -23t23.5 -30t11.5 -31t3 -26q0 -33 -12 -60.5t-36 -48t-60 -32t-84 -11.5t-95.5 13.5t-87.5 48.5z" />
    <glyph glyph-name="afii10074" unicode="&#x438;" horiz-adv-x="511" 
d="M141 138l74 113l165 244h81v-495h-88v358h-5l-75 -115l-164 -243h-79v495h87v-357h4z" />
    <glyph glyph-name="afii10075" unicode="&#x439;" horiz-adv-x="511" 
d="M186 697q1 -10 6 -21t14 -20.5t22 -15.5t29 -6q18 0 31.5 6t22.5 15.5t13.5 20.5t4.5 21h71q-2 -20 -9 -42.5t-23.5 -41.5t-43 -32t-67.5 -13t-68.5 13t-44 32t-24 41.5t-7.5 42.5h73zM141 138l74 113l165 244h81v-495h-88v358h-5l-75 -115l-164 -243h-79v495h87v-357h4z
" />
    <glyph glyph-name="afii10076" unicode="&#x43a;" horiz-adv-x="484" 
d="M50 0v496h85v-211h84q14 0 28 1.5t26 8.5t22.5 20.5t18.5 37.5l48 143h88l-49 -144q-12 -36 -28.5 -60.5t-44.5 -32.5q34 -8 50 -34.5t28 -63.5l53 -161h-90l-43 137q-8 24 -17.5 38.5t-21.5 22t-26 10t-31 2.5h-95v-210h-85z" />
    <glyph glyph-name="afii10077" unicode="&#x43b;" horiz-adv-x="517" 
d="M198 419v-134q0 -77 -12 -128t-33 -84t-50.5 -53t-64.5 -34l-35 69q28 13 49 27t34.5 38.5t20 64.5t6.5 105v205h344v-495h-86v419h-173z" />
    <glyph glyph-name="afii10078" unicode="&#x43c;" horiz-adv-x="606" 
d="M462 313l-54 -102l-79 -140h-59l-65 117l-62 118h-4v-306h-87v495h80l100 -188l69 -134l71 133l104 189h78v-495h-87v313h-5z" />
    <glyph glyph-name="afii10079" unicode="&#x43d;" horiz-adv-x="510" 
d="M373 0v211h-236v-211h-86v495h86v-206h236v206h87v-495h-87z" />
    <glyph glyph-name="afii10080" unicode="&#x43e;" horiz-adv-x="505" 
d="M458 175q0 -43 -16.5 -76.5t-45 -56.5t-65.5 -35t-79 -12q-43 0 -80 12t-64.5 35t-43.5 56.5t-16 76.5v144q0 43 16.5 76.5t44 57t65 36t79.5 12.5q45 0 82.5 -12.5t65 -36t42.5 -57t15 -76.5v-144zM373 304q0 32 -11 54.5t-28.5 36.5t-38.5 20t-41 6q-21 0 -42 -6
t-38.5 -20t-28.5 -36.5t-11 -54.5v-112q0 -32 9.5 -54.5t25.5 -36.5t38 -20t47 -6q20 0 41 6t38.5 20t28.5 36.5t11 54.5v112z" />
    <glyph glyph-name="afii10081" unicode="&#x43f;" horiz-adv-x="505" 
d="M371 0v419h-237v-419h-85v495h408v-495h-86z" />
    <glyph glyph-name="afii10082" unicode="&#x440;" horiz-adv-x="503" 
d="M125 495l10 -52q59 35 94.5 46t62.5 11q73 0 119.5 -43t46.5 -134v-152q0 -85 -46.5 -131t-127.5 -46q-27 0 -63 5.5t-86 25.5v-223h-85v693h75zM135 106q46 -19 78 -25t63 -6q20 0 37.5 4.5t30.5 16t20.5 31t7.5 48.5v142q0 57 -24 78.5t-64 21.5q-14 0 -33 -5
t-39.5 -13t-40.5 -18.5t-36 -21.5v-253z" />
    <glyph glyph-name="afii10083" unicode="&#x441;" horiz-adv-x="429" 
d="M243 501q43 0 87.5 -11.5t79.5 -49.5l-51 -65q-33 31 -61.5 38.5t-50.5 7.5q-19 0 -39.5 -6t-37 -20t-27 -36.5t-10.5 -54.5v-112q0 -32 10 -54.5t26 -36.5t36.5 -20t41.5 -6q22 0 53.5 9t54.5 32l53 -60q-35 -35 -77.5 -48t-85.5 -13q-44 0 -80 13t-62.5 36t-41 55.5
t-14.5 71.5v147q0 42 16 76t43 58t62.5 36.5t74.5 12.5z" />
    <glyph glyph-name="afii10084" unicode="&#x442;" horiz-adv-x="417" 
d="M253 419v-419h-89v419h-153v77h396v-77h-154z" />
    <glyph glyph-name="afii10085" unicode="&#x443;" horiz-adv-x="468" 
d="M113 -201l73 210l-42 35l-134 452h93l60 -218l55 -198h3l70 198l75 218h92l-253 -697h-92z" />
    <glyph glyph-name="afii10086" unicode="&#x444;" horiz-adv-x="630" 
d="M273 -199v193q-61 3 -104 21.5t-70 48t-39.5 67.5t-12.5 79v62q0 44 13.5 85t41.5 72.5t70.5 50.5t100.5 21v188h85v-188q57 -2 99.5 -19.5t70.5 -47t42 -69t14 -83.5v-72q0 -41 -14 -78.5t-42 -67t-70.5 -48.5t-99.5 -22v-193h-85zM273 423q-37 0 -63.5 -13.5
t-43.5 -34.5t-25 -48.5t-8 -56.5v-45q0 -29 6 -55.5t22 -47t43 -34t69 -16.5v351zM358 72q39 0 66 13.5t43.5 34.5t23.5 48.5t7 56.5v45q0 29 -7.5 56.5t-24.5 48.5t-43.5 34.5t-64.5 13.5v-351z" />
    <glyph glyph-name="afii10087" unicode="&#x445;" horiz-adv-x="434" 
d="M325 0l-111 186l-114 -186h-101l168 254l-158 242h103l103 -173l105 173h102l-160 -240l167 -256h-104z" />
    <glyph glyph-name="afii10088" unicode="&#x446;" horiz-adv-x="520" 
d="M412 0h-354v496h84v-420h228v420h82v-421l41 -1v-201h-81v127z" />
    <glyph glyph-name="afii10089" unicode="&#x447;" horiz-adv-x="481" 
d="M188 167q-81 0 -120.5 46t-39.5 131v153h86v-142q0 -58 25 -81t63 -23q31 0 71 15t78 40v191h86v-497h-86v221q-29 -17 -53 -27.5t-44 -16.5t-36.5 -8t-29.5 -2z" />
    <glyph glyph-name="afii10090" unicode="&#x448;" horiz-adv-x="718" 
d="M660 495v-495h-605v495h87v-418h173v418h85v-418h174v418h86z" />
    <glyph glyph-name="afii10091" unicode="&#x449;" horiz-adv-x="721" 
d="M615 0h-565v495h87v-419h173v419h85v-419h174v419h86v-421h41v-202h-81v128z" />
    <glyph glyph-name="afii10092" unicode="&#x44a;" horiz-adv-x="584" 
d="M263 303h131q42 0 74.5 -11.5t54 -31.5t32.5 -47.5t11 -59.5q0 -69 -44.5 -111t-128.5 -42h-216v419h-170v76h256v-192zM481 153q0 28 -21 51.5t-69 23.5h-129v-152h129q43 0 66.5 19.5t23.5 57.5z" />
    <glyph glyph-name="afii10093" unicode="&#x44b;" horiz-adv-x="621" 
d="M488 0v495h83v-495h-83zM354 153q0 28 -21 51.5t-69 23.5h-129v-152h129q43 0 66.5 19.5t23.5 57.5zM136 303h131q42 0 74.5 -11.5t54 -31.5t32.5 -47.5t11 -59.5q0 -69 -44.5 -111t-128.5 -42h-216v496h86v-193z" />
    <glyph glyph-name="afii10094" unicode="&#x44c;" horiz-adv-x="450" 
d="M354 153q0 28 -21 51.5t-69 23.5h-129v-152h129q43 0 66.5 19.5t23.5 57.5zM136 303h131q42 0 74.5 -11.5t54 -31.5t32.5 -47.5t11 -59.5q0 -69 -44.5 -111t-128.5 -42h-216v496h86v-193z" />
    <glyph glyph-name="afii10095" unicode="&#x44d;" horiz-adv-x="429" 
d="M185 -5q-43 0 -87.5 11.5t-79.5 49.5l51 65q16 -16 31.5 -25t29.5 -13.5t27 -6t24 -1.5q19 0 40 5.5t38 19t28.5 35.5t11.5 54v31h-191v73h191v11q0 65 -29 91t-78 26q-11 0 -25.5 -2t-29.5 -7t-29 -13t-26 -19l-53 60q35 35 81.5 48t89.5 13q93 0 139 -49t46 -127v-147
q0 -42 -15 -76t-42 -58t-63.5 -36.5t-79.5 -12.5z" />
    <glyph glyph-name="afii10096" unicode="&#x44e;" horiz-adv-x="638" 
d="M594 175q0 -43 -15 -76.5t-41.5 -56.5t-62 -35t-77.5 -12q-43 0 -78.5 12t-61 35t-40 56.5t-14.5 76.5v36h-73v-211h-86v495h86v-207h73v31q0 43 14.5 76.5t41 57t62 36t77.5 12.5q91 0 143 -48t52 -134v-144zM509 304q0 32 -9.5 54.5t-25 36.5t-35 20t-39.5 6
q-21 0 -40.5 -6t-35 -20t-25 -36.5t-9.5 -54.5v-112q0 -65 29.5 -91t80.5 -26q20 0 39.5 6t35 20t25 36.5t9.5 54.5v112z" />
    <glyph glyph-name="afii10097" unicode="&#x44f;" horiz-adv-x="478" 
d="M45 342q0 32 11 60t31 48.5t48.5 32.5t63.5 12h234v-495h-86v205h-107q-32 0 -57 -15.5t-35 -59.5l-29 -130h-89l32 134q8 30 22.5 55.5t43.5 34.5q-42 13 -62.5 46t-20.5 72zM127 344q0 -38 24.5 -52t60.5 -14h135v141h-138q-32 0 -57 -18t-25 -57z" />
    <glyph glyph-name="afii10071" unicode="&#x451;" horiz-adv-x="483" 
d="M133 216v-33q0 -30 10 -50.5t27.5 -34t40 -19.5t46.5 -6q25 0 58 10t64 39l54 -59q-38 -39 -84.5 -53.5t-93.5 -14.5q-42 0 -80 11.5t-66.5 34t-45 56.5t-16.5 79v131q0 44 15 80t41.5 61t63 38.5t80.5 13.5t81 -13t63.5 -37t41 -58.5t14.5 -77.5v-98h-314zM360 305
q0 31 -9 53t-24.5 36.5t-36 21t-43.5 6.5t-43 -7t-36 -21t-25 -35.5t-9 -50.5v-22h226v19zM398 646q0 -20 -14.5 -34.5t-34.5 -14.5t-34.5 14.5t-14.5 34.5t14.5 34t34.5 14t34.5 -14t14.5 -34zM202 646q0 -20 -14.5 -34.5t-34.5 -14.5t-34 14.5t-14 34.5t14 34t34 14
t34.5 -14t14.5 -34z" />
    <glyph glyph-name="afii10099" unicode="&#x452;" horiz-adv-x="497" 
d="M250 0q24 0 46 5t38.5 18t26.5 34.5t10 53.5l-1 202q0 58 -25 81t-63 23q-31 0 -71 -15t-78 -40v-362h-86v572h-46v68h46v76h86v-76h218v-68h-218v-132q60 39 98 50t65 11q81 0 120.5 -46t39.5 -131v-224q0 -47 -16.5 -81t-45 -56t-65.5 -32.5t-79 -10.5v80z" />
    <glyph glyph-name="afii10100" unicode="&#x453;" horiz-adv-x="400" 
d="M164 571l72 177l81 -25l-100 -172zM133 419v-419h-87v496h353v-77h-266z" />
    <glyph glyph-name="afii10101" unicode="&#x454;" horiz-adv-x="429" 
d="M309 286v-72h-176v-22q0 -32 9 -54.5t24 -36.5t36 -20t45 -6q22 0 53.5 9t54.5 32l53 -60q-35 -35 -77.5 -48t-85.5 -13q-47 0 -84 13t-62.5 36t-38.5 55.5t-13 71.5v147q0 42 15 76t41 58t61.5 36.5t76.5 12.5q43 0 87.5 -11.5t79.5 -49.5l-51 -65q-33 31 -61.5 38.5
t-50.5 7.5t-42 -6t-35.5 -20t-25 -36.5t-9.5 -54.5v-18h176z" />
    <glyph glyph-name="afii10102" unicode="&#x455;" horiz-adv-x="454" 
d="M425 142q0 -35 -15 -62t-41 -46.5t-62 -29.5t-79 -10q-52 0 -101 13.5t-99 51.5l47 63q37 -31 76 -42.5t85 -11.5q18 0 36.5 4.5t33 13.5t23.5 23.5t9 34.5q0 32 -23 46t-58 20q-38 6 -75.5 13.5t-67.5 22.5t-49 40t-19 66q0 34 14 62t39 47t57.5 29.5t70.5 10.5
q56 0 99 -11.5t83 -40.5l-43 -64q-35 22 -68 31t-71 9q-44 0 -71 -20.5t-27 -51.5q0 -26 22 -39t55 -20.5t71 -14t71 -21.5t55 -42t22 -74z" />
    <glyph glyph-name="afii10103" unicode="&#x456;" horiz-adv-x="227" 
d="M167 646q0 -22 -16 -38t-38 -16q-21 0 -37 16t-16 38t16 37.5t37 15.5q22 0 38 -15.5t16 -37.5zM71 0v496h85v-496h-85z" />
    <glyph glyph-name="afii10104" unicode="&#x457;" horiz-adv-x="239" 
d="M268 639q0 -20 -14.5 -34.5t-34.5 -14.5t-34.5 14.5t-14.5 34.5t14.5 34t34.5 14t34.5 -14t14.5 -34zM72 639q0 -20 -14.5 -34.5t-34.5 -14.5t-34 14.5t-14 34.5t14 34t34 14t34.5 -14t14.5 -34zM77 0v496h85v-496h-85z" />
    <glyph glyph-name="afii10105" unicode="&#x458;" horiz-adv-x="243" 
d="M183 646q0 -21 -14.5 -36t-35.5 -15t-35.5 15t-14.5 36t14.5 35.5t35.5 14.5t35.5 -14.5t14.5 -35.5zM91 495h85v-547q0 -83 -38 -117.5t-107 -34.5h-49v78h39q40 0 55 17.5t15 68.5v535z" />
    <glyph glyph-name="afii10106" unicode="&#x459;" horiz-adv-x="734" 
d="M411 303h131q42 0 74.5 -11.5t54 -31.5t32.5 -47.5t11 -59.5q0 -69 -44.5 -111t-128.5 -42h-216v419h-122v-137q0 -69 -10.5 -118t-31 -83t-50.5 -56t-69 -36l-34 64q28 12 50 29t36 42.5t21.5 63t7.5 91.5v217h288v-193zM629 153q0 28 -21 51.5t-69 23.5h-129v-152h129
q43 0 66.5 19.5t23.5 57.5z" />
    <glyph glyph-name="afii10107" unicode="&#x45a;" horiz-adv-x="752" 
d="M430 303h131q42 0 74.5 -11.5t54 -31.5t32.5 -47.5t11 -59.5q0 -69 -44.5 -111t-128.5 -42h-216v229h-197v-229h-86v496h86v-194h197v194h86v-193zM648 153q0 28 -21 51.5t-69 23.5h-129v-152h129q43 0 66.5 19.5t23.5 57.5z" />
    <glyph glyph-name="afii10108" unicode="&#x45b;" horiz-adv-x="497" 
d="M296 501q81 0 120.5 -46t39.5 -131v-324h-86v313q0 58 -25 81t-63 23q-31 0 -71 -15t-78 -40v-362h-86v572h-46v68h46v76h86v-76h218v-68h-218v-132q60 39 98 50t65 11z" />
    <glyph glyph-name="afii10109" unicode="&#x45c;" horiz-adv-x="484" 
d="M184 571l72 177l81 -25l-100 -172zM50 0v496h85v-211h84q14 0 28 1.5t26 8.5t22.5 20.5t18.5 37.5l48 143h88l-49 -144q-12 -36 -28.5 -60.5t-44.5 -32.5q34 -8 50 -34.5t28 -63.5l53 -161h-90l-43 137q-8 24 -17.5 38.5t-21.5 22t-26 10t-31 2.5h-95v-210h-85z" />
    <glyph glyph-name="afii10110" unicode="&#x45e;" horiz-adv-x="468" 
d="M113 -201l73 210l-42 35l-134 452h93l60 -218l55 -198h3l70 198l75 218h92l-253 -697h-92zM168 697q1 -10 6 -21t14 -20.5t22 -15.5t29 -6q18 0 31.5 6t22.5 15.5t13.5 20.5t4.5 21h71q-2 -20 -9 -42.5t-23.5 -41.5t-43 -32t-67.5 -13t-68.5 13t-44 32t-24 41.5
t-7.5 42.5h73z" />
    <glyph glyph-name="afii10193" unicode="&#x45f;" horiz-adv-x="505" 
d="M457 495v-495h-159v-140h-85v140h-164v495h85v-419h238v419h85z" />
    <glyph glyph-name="afii10050" unicode="&#x490;" horiz-adv-x="524" 
d="M153 605v-605h-92v689h366v119h89v-203h-363z" />
    <glyph glyph-name="afii10098" unicode="&#x491;" horiz-adv-x="413" 
d="M322 599h83v-180h-272v-419h-87v496h276v103z" />
    <glyph glyph-name="schwacyrillic" unicode="&#x4d9;" horiz-adv-x="483" 
d="M357 280v33q0 59 -32.5 84.5t-81.5 25.5q-25 0 -61 -10t-67 -39l-51 59q44 41 88 54.5t93 13.5q42 0 78 -11.5t63 -34t42 -56.5t15 -79v-131q0 -44 -15 -80t-41.5 -61t-63 -38.5t-80.5 -13.5t-81 13t-63.5 37t-41 58.5t-14.5 77.5v98h314zM130 191q0 -62 33 -89.5
t80 -27.5q22 0 42.5 7t36.5 21t25 35.5t9 50.5v22h-226v-19z" />
    <glyph glyph-name="Wgrave" unicode="&#x1e80;" horiz-adv-x="862" 
d="M428 524l-52 -216l-80 -308h-104l-182 689h100l78 -317l54 -228h5l55 229l80 316h97l82 -326l53 -219h5l52 222l80 323h100l-182 -689h-104l-81 312l-50 212h-6zM433 768l-170 103l59 61l148 -122z" />
    <glyph glyph-name="wgrave" unicode="&#x1e81;" horiz-adv-x="702" 
d="M352 340l-50 -158l-59 -182h-82l-141 496h89l46 -180l47 -186h4l59 181l47 137h87l52 -156l52 -162h5l43 175l48 191h85l-134 -496h-82l-61 185l-51 155h-4zM336 551l-100 172l81 25l72 -177z" />
    <glyph glyph-name="Wacute" unicode="&#x1e82;" horiz-adv-x="862" 
d="M428 524l-52 -216l-80 -308h-104l-182 689h100l78 -317l54 -228h5l55 229l80 316h97l82 -326l53 -219h5l52 222l80 323h100l-182 -689h-104l-81 312l-50 212h-6zM398 780l148 122l59 -61l-170 -103z" />
    <glyph glyph-name="wacute" unicode="&#x1e83;" horiz-adv-x="702" 
d="M352 340l-50 -158l-59 -182h-82l-141 496h89l46 -180l47 -186h4l59 181l47 137h87l52 -156l52 -162h5l43 175l48 191h85l-134 -496h-82l-61 185l-51 155h-4zM325 571l72 177l81 -25l-100 -172z" />
    <glyph glyph-name="Wdieresis" unicode="&#x1e84;" horiz-adv-x="862" 
d="M428 524l-52 -216l-80 -308h-104l-182 689h100l78 -317l54 -228h5l55 229l80 316h97l82 -326l53 -219h5l52 222l80 323h100l-182 -689h-104l-81 312l-50 212h-6zM578 811q0 -20 -14.5 -34.5t-34.5 -14.5t-34.5 14.5t-14.5 34.5t14.5 34t34.5 14t34.5 -14t14.5 -34z
M382 811q0 -20 -14.5 -34.5t-34.5 -14.5t-34 14.5t-14 34.5t14 34t34 14t34.5 -14t14.5 -34z" />
    <glyph glyph-name="wdieresis" unicode="&#x1e85;" horiz-adv-x="702" 
d="M352 340l-50 -158l-59 -182h-82l-141 496h89l46 -180l47 -186h4l59 181l47 137h87l52 -156l52 -162h5l43 175l48 191h85l-134 -496h-82l-61 185l-51 155h-4zM497 642q0 -20 -14.5 -34.5t-34.5 -14.5t-34.5 14.5t-14.5 34.5t14.5 34t34.5 14t34.5 -14t14.5 -34zM301 642
q0 -20 -14.5 -34.5t-34.5 -14.5t-34 14.5t-14 34.5t14 34t34 14t34.5 -14t14.5 -34z" />
    <glyph glyph-name="Ygrave" unicode="&#x1ef2;" horiz-adv-x="537" 
d="M272 364l74 166l78 159h100l-209 -424v-265h-93v264l-210 425h101l80 -164l72 -161h7zM287 738l-170 103l59 61l148 -122z" />
    <glyph glyph-name="ygrave" unicode="&#x1ef3;" horiz-adv-x="468" 
d="M113 -201l73 210l-42 35l-134 452h93l60 -218l55 -198h3l70 198l75 218h92l-253 -697h-92zM217 551l-100 172l81 25l72 -177z" />
    <glyph glyph-name="endash" unicode="&#x2013;" horiz-adv-x="500" 
d="M20 230v77h460v-77h-460z" />
    <glyph glyph-name="emdash" unicode="&#x2014;" horiz-adv-x="1000" 
d="M20 230v77h960v-77h-960z" />
    <glyph glyph-name="afii00208" unicode="&#x2015;" horiz-adv-x="1000" 
d="M20 230v77h960v-77h-960z" />
    <glyph glyph-name="quoteleft" unicode="&#x2018;" horiz-adv-x="294" 
d="M209 542q0 -22 -16 -40t-44 -18q-19 0 -32 7.5t-21 19t-11.5 25.5t-3.5 28q0 28 9 53.5t23.5 46.5t33.5 37.5t39 25.5l30 -39q-23 -17 -37 -37.5t-16 -50.5q21 -2 33.5 -18.5t12.5 -39.5z" />
    <glyph glyph-name="quoteright" unicode="&#x2019;" horiz-adv-x="294" 
d="M89 670q0 22 16 40t44 18q19 0 32 -7.5t21 -19t11.5 -26t3.5 -27.5q0 -28 -9 -53.5t-23.5 -46.5t-33.5 -37.5t-39 -25.5l-30 39q23 17 37 37.5t16 50.5q-21 2 -33.5 18.5t-12.5 39.5z" />
    <glyph glyph-name="quotesinglbase" unicode="&#x201a;" horiz-adv-x="250" 
d="M64 52q0 22 16 39.5t44 17.5q19 0 32 -7.5t21 -18.5t11.5 -25.5t3.5 -27.5q0 -28 -9 -53.5t-23.5 -46.5t-33.5 -37.5t-39 -25.5l-30 39q23 17 37 37.5t16 50.5q-26 2 -36 17t-10 41z" />
    <glyph glyph-name="quotedblleft" unicode="&#x201c;" horiz-adv-x="404" 
d="M189 542q0 -22 -16 -40t-44 -18q-19 0 -32 7.5t-21 19t-11.5 25.5t-3.5 28q0 28 9 53.5t23.5 46.5t33.5 37.5t39 25.5l30 -39q-23 -17 -37 -37.5t-16 -50.5q21 -2 33.5 -18.5t12.5 -39.5zM341 542q0 -22 -16 -40t-44 -18q-19 0 -32 7.5t-21 19t-11.5 25.5t-3.5 28
q0 28 9 53.5t23.5 46.5t33.5 37.5t39 25.5l30 -39q-23 -17 -37 -37.5t-16 -50.5q21 -2 33.5 -18.5t12.5 -39.5z" />
    <glyph glyph-name="quotedblright" unicode="&#x201d;" horiz-adv-x="404" 
d="M221 670q0 22 16 40t44 18q19 0 32 -7.5t21 -19t11.5 -26t3.5 -27.5q0 -28 -9 -53.5t-23.5 -46.5t-33.5 -37.5t-39 -25.5l-30 39q23 17 37 37.5t16 50.5q-21 2 -33.5 18.5t-12.5 39.5zM69 670q0 22 16 40t44 18q19 0 32 -7.5t21 -19t11.5 -26t3.5 -27.5q0 -28 -9 -53.5
t-23.5 -46.5t-33.5 -37.5t-39 -25.5l-30 39q23 17 37 37.5t16 50.5q-21 2 -33.5 18.5t-12.5 39.5z" />
    <glyph glyph-name="quotedblbase" unicode="&#x201e;" horiz-adv-x="422" 
d="M64 52q0 22 16 39.5t44 17.5q19 0 32 -7.5t21 -18.5t11.5 -25.5t3.5 -27.5q0 -28 -9 -53.5t-23.5 -46.5t-33.5 -37.5t-39 -25.5l-30 39q23 17 37 37.5t16 50.5q-26 2 -36 17t-10 41zM242 52q0 22 16 39.5t44 17.5q19 0 32 -7.5t21 -18.5t11.5 -25.5t3.5 -27.5
q0 -28 -9 -53.5t-23.5 -46.5t-33.5 -37.5t-39 -25.5l-30 39q23 17 37 37.5t16 50.5q-26 2 -36 17t-10 41z" />
    <glyph glyph-name="dagger" unicode="&#x2020;" horiz-adv-x="466" 
d="M273 390v-576h-80v576h-170v66h170v240h80v-240h170v-66h-170z" />
    <glyph glyph-name="daggerdbl" unicode="&#x2021;" horiz-adv-x="466" 
d="M193 390h-170v66h170v240h80v-240h170v-66h-170v-190h170v-66h-170v-320h-80v320h-170v66h170v190z" />
    <glyph glyph-name="bullet" unicode="&#x2022;" horiz-adv-x="408" 
d="M338 274q0 -27 -10.5 -51t-28.5 -41.5t-42 -28t-51 -10.5t-51 10.5t-42 28t-28 41.5t-10 51t10 51t28 41.5t42 28t51 10.5t51 -10.5t42 -28t28.5 -41.5t10.5 -51z" />
    <glyph glyph-name="trianglebullet" unicode="&#x2023;" horiz-adv-x="506" 
d="M474 277l-393 -211v411z" />
    <glyph glyph-name="ellipsis" unicode="&#x2026;" horiz-adv-x="777" 
d="M63 55q0 21 14.5 39t42.5 18q29 0 45 -18t16 -39q0 -25 -16 -42.5t-45 -17.5q-28 0 -42.5 17t-14.5 43zM325 55q0 21 14.5 39t42.5 18q29 0 45 -18t16 -39q0 -25 -16 -42.5t-45 -17.5q-28 0 -42.5 17t-14.5 43zM592 55q0 21 14.5 39t42.5 18q29 0 45 -18t16 -39
q0 -25 -16 -42.5t-45 -17.5q-28 0 -42.5 17t-14.5 43z" />
    <glyph glyph-name="perthousand" unicode="&#x2030;" horiz-adv-x="1133" 
d="M332 386q0 -27 -11.5 -48.5t-31 -36.5t-45 -23t-54.5 -8q-30 0 -56 8t-45 23t-30 36.5t-11 48.5v191q0 27 11.5 48.5t31 36.5t45 23t54.5 8q28 0 54 -8t45.5 -23t31 -36.5t11.5 -48.5v-191zM261 567q0 17 -7 28.5t-17.5 19t-23 10.5t-23.5 3t-23 -3t-22.5 -10.5t-17 -19
t-6.5 -28.5v-173q0 -17 6.5 -28.5t17 -18.5t22.5 -10t23 -3t23.5 3t23 10t17.5 18.5t7 28.5v173zM751 112q0 -27 -11.5 -48.5t-31 -36.5t-45 -23t-54.5 -8q-30 0 -56 8t-45 23t-30 36.5t-11 48.5v191q0 27 11.5 48.5t31 36.5t45 23t54.5 8q28 0 54 -8t45.5 -23t31 -36.5
t11.5 -48.5v-191zM680 293q0 17 -7 28.5t-17.5 19t-23 10.5t-23.5 3t-23 -3t-22.5 -10.5t-17 -19t-6.5 -28.5v-173q0 -17 6.5 -28.5t17 -18.5t22.5 -10t23 -3t23.5 3t23 10t17.5 18.5t7 28.5v173zM221 -17h-66l425 730h67zM1085 112q0 -27 -11.5 -48.5t-31 -36.5t-45 -23
t-54.5 -8q-30 0 -56 8t-45 23t-30 36.5t-11 48.5v191q0 27 11.5 48.5t31 36.5t45 23t54.5 8q28 0 54 -8t45.5 -23t31 -36.5t11.5 -48.5v-191zM1014 293q0 17 -7 28.5t-17.5 19t-23 10.5t-23.5 3t-23 -3t-22.5 -10.5t-17 -19t-6.5 -28.5v-173q0 -17 6.5 -28.5t17 -18.5
t22.5 -10t23 -3t23.5 3t23 10t17.5 18.5t7 28.5v173z" />
    <glyph glyph-name="guilsinglleft" unicode="&#x2039;" horiz-adv-x="300" 
d="M173 46l-127 186l127 186h78l-123 -186l123 -186h-78z" />
    <glyph glyph-name="guilsinglright" unicode="&#x203a;" horiz-adv-x="300" 
d="M45 46l123 186l-123 186h78l127 -186l-127 -186h-78z" />
    <glyph glyph-name="fraction" unicode="&#x2044;" horiz-adv-x="150" 
d="M-105 -17h-66l425 730h67z" />
    <glyph glyph-name="fraction" unicode="&#x2215;" horiz-adv-x="150" 
d="M-105 -17h-66l425 730h67z" />
    <glyph glyph-name="zerosuperior" unicode="&#x2070;" horiz-adv-x="326" 
d="M305 476q0 -27 -11.5 -48.5t-31 -36.5t-45 -23t-54.5 -8q-30 0 -56 8t-45 23t-30 36.5t-11 48.5v191q0 27 11.5 48.5t31 36.5t45 23t54.5 8q28 0 54 -8t45.5 -23t31 -36.5t11.5 -48.5v-191zM234 657q0 17 -7 28.5t-17.5 19t-23 10.5t-23.5 3t-23 -3t-22.5 -10.5t-17 -19
t-6.5 -28.5v-173q0 -17 6.5 -28.5t17 -18.5t22.5 -10t23 -3t23.5 3t23 10t17.5 18.5t7 28.5v173z" />
    <glyph glyph-name="foursuperior" unicode="&#x2074;" horiz-adv-x="326" 
d="M276 425v-61h-73v61h-191v54l149 299h76l-145 -292h111v120h73v-120h38v-61h-38z" />
    <glyph glyph-name="fivesuperior" unicode="&#x2075;" horiz-adv-x="326" 
d="M301 474q0 -26 -12 -47t-32 -36t-46 -23t-55 -8q-44 0 -76 14.5t-58 34.5l42 52q45 -36 90 -36q8 0 21 2.5t25 8.5t20.5 17t8.5 28v51q0 26 -14 37.5t-34 11.5q-9 0 -21.5 -3.5t-25.5 -8.5t-24.5 -11.5t-20.5 -12.5l-59 27v207h258v-64h-186v-95q23 13 44.5 21t38.5 8
q54 0 85 -30.5t31 -80.5v-64v0z" />
    <glyph glyph-name="sixsuperior" unicode="&#x2076;" horiz-adv-x="326" 
d="M23 669q0 27 11.5 48t31 35.5t45.5 22.5t54 8q44 0 74.5 -14t56.5 -35l-41 -52q-44 35 -88 35q-11 0 -23 -3t-23 -10t-18 -18.5t-7 -27.5v-56q28 16 52 23.5t41 7.5q54 0 84 -30.5t30 -78.5v-50q0 -27 -12.5 -48t-32.5 -36t-45 -22.5t-51 -7.5t-51 7.5t-44.5 22
t-31.5 35.5t-12 48v196zM230 518q0 26 -14 38t-35 12q-20 0 -41.5 -9.5t-43.5 -21.5v-53q0 -16 6.5 -27.5t16 -18.5t21 -10t22.5 -3t23 3.5t22 10.5t16.5 18t6.5 27v34z" />
    <glyph glyph-name="sevensuperior" unicode="&#x2077;" horiz-adv-x="326" 
d="M139 364h-79l158 352h-124v-60h-70v122h278v-53z" />
    <glyph glyph-name="eightsuperior" unicode="&#x2078;" horiz-adv-x="326" 
d="M162 782q26 0 50.5 -7.5t44 -23t31.5 -38.5t12 -53q0 -26 -15 -49.5t-41 -35.5q29 -12 44.5 -38t15.5 -51q0 -32 -12.5 -55.5t-32.5 -39.5t-45.5 -23.5t-50.5 -7.5q-26 0 -51 7.5t-45 23t-32.5 38.5t-12.5 54q0 28 15 52t44 39q-26 11 -40 35t-14 52q0 30 11.5 52.5
t30.5 38t43 23t50 7.5zM163 540q-28 0 -47.5 -15.5t-19.5 -42.5q0 -28 19 -42.5t48 -14.5t48 14.5t19 43.5q0 26 -20 41.5t-47 15.5zM163 717q-25 0 -45 -13.5t-20 -42.5q0 -26 19.5 -41.5t45.5 -15.5t45.5 16t19.5 42q0 28 -21 41.5t-44 13.5z" />
    <glyph glyph-name="ninesuperior" unicode="&#x2079;" horiz-adv-x="325" 
d="M296 474q0 -27 -11.5 -48t-31 -36t-45.5 -22.5t-54 -7.5q-44 0 -76 14.5t-55 34.5l42 52q43 -35 87 -35q10 0 22.5 3t23.5 9.5t18 18t7 28.5v58q-26 -15 -50.5 -23t-41.5 -8q-53 0 -83.5 30.5t-30.5 80.5v46q0 27 12.5 48t32 36t44.5 22.5t51 7.5t51 -7.5t44.5 -22
t31.5 -35.5t12 -48v-196zM89 627q0 -25 14 -37.5t35 -12.5q20 0 41.5 10t43.5 21v51q0 16 -6 27.5t-16 18.5t-21.5 10t-22.5 3t-23 -3t-22 -10t-16.5 -18.5t-6.5 -27.5v-32z" />
    <glyph glyph-name="plussuperior" unicode="&#x207a;" horiz-adv-x="325" 
d="M190 516v-112h-55v112h-121v51h121v110h55v-110h121v-51h-121z" />
    <glyph glyph-name="hyphensuperior" unicode="&#x207b;" horiz-adv-x="255" 
d="M28 497v59h199v-59h-199z" />
    <glyph glyph-name="equalsuperior" unicode="&#x207c;" horiz-adv-x="325" 
d="M14 459v55h297v-55h-297zM14 570v54h297v-54h-297z" />
    <glyph glyph-name="parenleftsuperior" unicode="&#x207d;" horiz-adv-x="201" 
d="M101 552q0 -61 25.5 -122t65.5 -109l-39 -30q-26 25 -48.5 54.5t-40 62.5t-27.5 68t-10 73t10 74t27 68t39.5 61t46.5 54l45 -26q-43 -49 -68.5 -110.5t-25.5 -117.5z" />
    <glyph glyph-name="parenrightsuperior" unicode="&#x207e;" horiz-adv-x="197" 
d="M15 321q41 48 66 109t25 122q0 57 -25.5 118t-67.5 110l44 26q24 -25 46.5 -54t40 -61t27.5 -68t10 -74t-10.5 -73.5t-28 -68t-40.5 -62t-48 -53.5z" />
    <glyph glyph-name="nsuperior" unicode="&#x207f;" horiz-adv-x="343" 
d="M205 607q53 0 82.5 -31t29.5 -88v-214h-72v206q0 34 -14.5 47.5t-37.5 12.5q-20 0 -45 -9.5t-50 -23.5v-233h-72v329h65l5 -30q40 22 65.5 28t43.5 6z" />
    <glyph glyph-name="zeroinferior" unicode="&#x2080;" horiz-adv-x="326" 
d="M305 22q0 -27 -11.5 -48.5t-31 -36.5t-45 -23t-54.5 -8q-30 0 -56 8t-45 23t-30 36.5t-11 48.5v191q0 27 11.5 48.5t31 36.5t45 23t54.5 8q28 0 54 -8t45.5 -23t31 -36.5t11.5 -48.5v-191zM234 203q0 17 -7 28.5t-17.5 19t-23 10.5t-23.5 3t-23 -3t-22.5 -10.5t-17 -19
t-6.5 -28.5v-173q0 -17 6.5 -28.5t17 -18.5t22.5 -10t23 -3t23.5 3t23 10t17.5 18.5t7 28.5v173z" />
    <glyph glyph-name="oneinferior" unicode="&#x2081;" horiz-adv-x="285" 
d="M129 -90v328l-52 -39l-39 50l98 76h64v-415h-71z" />
    <glyph glyph-name="twoinferior" unicode="&#x2082;" horiz-adv-x="326" 
d="M303 217q0 -21 -9.5 -40t-24.5 -36.5t-33.5 -32.5t-36.5 -27q-14 -9 -32 -20.5t-34 -25t-26.5 -27.5t-10.5 -29v-7h207v-62h-281v56q0 28 10 50.5t26.5 40.5t38 33.5t43.5 30.5q11 7 26.5 17t29.5 22t24 26t10 29q0 26 -24.5 38t-51.5 12q-26 0 -48.5 -9t-42.5 -24
l-39 50q26 20 60 34t72 14q28 0 55 -5.5t47 -19t32.5 -35t12.5 -53.5z" />
    <glyph glyph-name="threeinferior" unicode="&#x2083;" horiz-adv-x="325" 
d="M148 328q25 0 49.5 -6t44 -19.5t31 -35t11.5 -52.5q0 -28 -15 -52.5t-47 -35.5q38 -17 51.5 -41.5t13.5 -51.5q0 -32 -11.5 -56t-31.5 -40.5t-47 -24.5t-57 -8q-42 0 -77 12.5t-59 30.5l39 53q20 -15 46 -23t47 -8q34 0 56 15.5t22 44.5t-19.5 45t-48.5 16h-53v63h54
q10 0 22 3.5t21.5 11t16 19t6.5 27.5q0 13 -6.5 22.5t-17 15.5t-23.5 9t-26 3q-21 0 -47 -7.5t-46 -23.5l-35 51q23 20 59 31.5t77 11.5z" />
    <glyph glyph-name="fourinferior" unicode="&#x2084;" horiz-adv-x="326" 
d="M276 -29v-61h-73v61h-191v54l149 299h76l-145 -292h111v120h73v-120h38v-61h-38z" />
    <glyph glyph-name="fiveinferior" unicode="&#x2085;" horiz-adv-x="326" 
d="M301 20q0 -26 -12 -47t-32 -36t-46 -23t-55 -8q-44 0 -76 14.5t-58 34.5l42 52q45 -36 90 -36q8 0 21 2.5t25 8.5t20.5 17t8.5 28v51q0 26 -14 37.5t-34 11.5q-9 0 -21.5 -3.5t-25.5 -8.5t-24.5 -11.5t-20.5 -12.5l-59 27v207h258v-64h-186v-95q23 13 44.5 21t38.5 8
q54 0 85 -30.5t31 -80.5v-64v0z" />
    <glyph glyph-name="sixinferior" unicode="&#x2086;" horiz-adv-x="326" 
d="M23 215q0 27 11.5 48t31 35.5t45.5 22.5t54 8q44 0 75.5 -14t57.5 -35l-43 -52q-44 35 -88 35q-11 0 -23 -3t-23 -10t-18 -18.5t-7 -27.5v-56q28 16 52 23.5t41 7.5q54 0 84 -30.5t30 -78.5v-50q0 -27 -12.5 -48t-32.5 -36t-45 -22.5t-51 -7.5t-51 7.5t-44.5 22
t-31.5 35.5t-12 48v196zM230 64q0 26 -14 38t-35 12q-20 0 -41.5 -9.5t-43.5 -21.5v-53q0 -16 6.5 -27.5t16 -18.5t21 -10t22.5 -3t23 3.5t22 10.5t16.5 18t6.5 27v34z" />
    <glyph glyph-name="seveninferior" unicode="&#x2087;" horiz-adv-x="326" 
d="M139 -90h-79l158 352h-124v-60h-70v122h278v-53z" />
    <glyph glyph-name="eightinferior" unicode="&#x2088;" horiz-adv-x="326" 
d="M162 328q26 0 50.5 -7.5t44 -23t31.5 -38.5t12 -53q0 -26 -15 -49.5t-41 -35.5q29 -12 44.5 -38t15.5 -51q0 -32 -12.5 -55.5t-32.5 -39.5t-45.5 -23.5t-50.5 -7.5q-26 0 -51 7.5t-45 23t-32.5 38.5t-12.5 54q0 28 15 52t44 39q-26 11 -40 35t-14 52q0 30 11.5 52.5
t30.5 38t43 23t50 7.5zM163 86q-28 0 -47.5 -15.5t-19.5 -42.5q0 -28 19 -42.5t48 -14.5t48 14.5t19 43.5q0 26 -20 41.5t-47 15.5zM163 263q-25 0 -45 -13.5t-20 -42.5q0 -26 19.5 -41.5t45.5 -15.5t45.5 16t19.5 42q0 28 -21 41.5t-44 13.5z" />
    <glyph glyph-name="nineinferior" unicode="&#x2089;" horiz-adv-x="325" 
d="M296 20q0 -27 -11.5 -48t-31 -36t-45.5 -22.5t-54 -7.5q-44 0 -76 14.5t-55 34.5l42 52q43 -35 87 -35q10 0 22.5 3t23.5 9.5t18 18t7 28.5v58q-26 -15 -50.5 -23t-41.5 -8q-53 0 -83.5 30.5t-30.5 80.5v46q0 27 12.5 48t32 36t44.5 22.5t51 7.5t51 -7.5t44.5 -22
t31.5 -35.5t12 -48v-196zM89 173q0 -25 14 -37.5t35 -12.5q20 0 41.5 10t43.5 21v51q0 16 -6 27.5t-16 18.5t-21.5 10t-22.5 3t-23 -3t-22 -10t-16.5 -18.5t-6.5 -27.5v-32z" />
    <glyph glyph-name="plusinferior" unicode="&#x208a;" horiz-adv-x="325" 
d="M190 62v-112h-55v112h-121v51h121v110h55v-110h121v-51h-121z" />
    <glyph glyph-name="hypheninferior" unicode="&#x208b;" horiz-adv-x="255" 
d="M28 43v59h199v-59h-199z" />
    <glyph glyph-name="equalinferior" unicode="&#x208c;" horiz-adv-x="325" 
d="M14 5v55h297v-55h-297zM14 116v54h297v-54h-297z" />
    <glyph glyph-name="parenleftinferior" unicode="&#x208d;" horiz-adv-x="201" 
d="M101 123q0 -61 25.5 -122t65.5 -109l-39 -30q-26 25 -48.5 54.5t-40 62.5t-27.5 68t-10 73t10 74t27 68t39.5 61t46.5 54l45 -26q-43 -49 -68.5 -110.5t-25.5 -117.5z" />
    <glyph glyph-name="parenrightinferior" unicode="&#x208e;" horiz-adv-x="197" 
d="M15 -108q41 48 66 109t25 122q0 57 -25.5 118t-67.5 110l44 26q24 -25 46.5 -54t40 -61t27.5 -68t10 -74t-10.5 -73.5t-28 -68t-40.5 -62t-48 -53.5z" />
    <glyph glyph-name="dong" unicode="&#x20ab;" horiz-adv-x="500" 
d="M256 623h85v74h77v-74h44v-60h-44v-436h-68l-8 38q-44 -26 -77.5 -34t-53.5 -8q-58 0 -95 34.5t-37 106.5v118q0 33 10.5 59t29.5 44.5t44.5 28t54.5 9.5q20 0 54 -4t69 -15v59h-85v60zM341 428q-29 11 -62 17t-55 6q-29 1 -49 -17t-20 -60v-106q0 -41 17 -56.5t46 -15.5
q10 0 26 3t33.5 9t34.5 14t29 17v189zM76 69h363v-69h-363v69z" />
    <glyph glyph-name="Euro" unicode="&#x20ac;" horiz-adv-x="500" 
d="M47 371v63h45v33q0 52 19 94.5t52.5 72.5t79 46t97.5 16q50 0 92 -10.5t79 -34.5l-45 -74q-27 16 -60.5 25t-65.5 9t-60.5 -9t-49.5 -28t-33 -49t-12 -73v-18h255v-63h-393zM440 324v-63h-255v-24q0 -42 12 -72.5t33 -49.5t48.5 -28t59.5 -9q34 0 69.5 7.5t64.5 26.5
l41 -72q-32 -20 -77 -33.5t-96 -13.5q-57 0 -103 16t-78 46t-49.5 72.5t-17.5 95.5v38h-45v63h393z" />
    <glyph glyph-name="centigrade" unicode="&#x2103;" horiz-adv-x="823" 
d="M599 696q56 0 105 -15t88 -47l-46 -72q-27 23 -67.5 36t-79.5 13q-29 0 -57 -9t-50 -28t-35.5 -49t-13.5 -73v-215q0 -42 14 -72.5t36 -49.5t49.5 -28t54.5 -9q39 0 79.5 11t72.5 37l44 -71q-32 -26 -83 -44t-111 -18q-50 0 -95.5 15.5t-79.5 44.5t-54 71t-20 95v252
q0 52 20.5 93.5t54.5 71t79 45t95 15.5zM289 568q0 -28 -10.5 -52t-28.5 -42t-42.5 -28.5t-52.5 -10.5t-52.5 10.5t-43 28.5t-29 42t-10.5 52t10.5 52.5t29 42.5t43 28.5t52.5 10.5t52.5 -10.5t42.5 -28.5t28.5 -42.5t10.5 -52.5zM232 568q0 32 -22.5 54.5t-54.5 22.5
t-54.5 -22.5t-22.5 -54.5t22.5 -54.5t54.5 -22.5t54.5 22.5t22.5 54.5z" />
    <glyph glyph-name="afii61248" unicode="&#x2105;" horiz-adv-x="753" 
d="M195 693q30 0 62.5 -9t59.5 -38l-43 -52q-23 23 -42.5 28.5t-33.5 5.5q-13 0 -26 -4t-23.5 -13t-17.5 -23.5t-7 -35.5v-78q0 -41 22.5 -58t51.5 -17q14 0 35.5 7t38.5 24l44 -50q-28 -26 -59 -36.5t-60 -10.5q-32 0 -58 9.5t-44.5 26t-29 40t-10.5 51.5v102
q0 30 11.5 54.5t30.5 41.5t44.5 26t53.5 9zM722 125q0 -31 -12 -55t-32 -40.5t-47 -25t-57 -8.5t-56.5 8.5t-46 25t-31 40.5t-11.5 55v100q0 31 11.5 55t31.5 41t46.5 26t56.5 9q65 0 106 -34.5t41 -96.5v-100zM653 215q0 21 -7 35.5t-18.5 23.5t-25 13t-26.5 4
q-14 0 -28 -4t-25 -13t-18 -23.5t-7 -35.5v-78q0 -42 22.5 -58.5t55.5 -16.5q13 0 26.5 4t25 13t18.5 23t7 35v78zM213 -17h-66l425 730h67z" />
    <glyph glyph-name="fahrenheit" unicode="&#x2109;" horiz-adv-x="811" 
d="M429 605v-218h315v-84h-315v-303h-92v689h460v-84h-368zM289 568q0 -28 -10.5 -52t-28.5 -42t-42.5 -28.5t-52.5 -10.5t-52.5 10.5t-43 28.5t-29 42t-10.5 52t10.5 52.5t29 42.5t43 28.5t52.5 10.5t52.5 -10.5t42.5 -28.5t28.5 -42.5t10.5 -52.5zM232 568
q0 32 -22.5 54.5t-54.5 22.5t-54.5 -22.5t-22.5 -54.5t22.5 -54.5t54.5 -22.5t54.5 22.5t22.5 54.5z" />
    <glyph glyph-name="afii61289" unicode="&#x2113;" horiz-adv-x="504" 
d="M458 137q-29 -67 -74 -107t-105 -40q-35 0 -64.5 13t-50.5 36t-33 53t-12 65v46q-20 -14 -35 -23t-32 -18l-22 51q20 11 42.5 25t45.5 32v221q0 59 12 100.5t33 67.5t49 37.5t60 11.5q22 0 44.5 -7.5t40 -23t28.5 -39t11 -54.5q0 -83 -52.5 -163.5t-152.5 -174.5v-52
q0 -39 8.5 -66t22 -43.5t30.5 -23.5t34 -7q32 0 63 28t53 79zM191 320q67 76 102.5 137.5t35.5 125.5q0 10 -3 22.5t-9.5 23t-18.5 17.5t-30 7q-14 0 -27.5 -8t-24.5 -25.5t-18 -45t-7 -66.5v-188z" />
    <glyph glyph-name="afii61352" unicode="&#x2116;" horiz-adv-x="945" 
d="M629 235v69h270v-69h-270zM470 0l-204 343l-105 184h-3v-527h-88v688h87l224 -373l82 -141h3v514h87v-688h-83zM910 487q0 -29 -12 -52.5t-32 -40t-46.5 -25t-55.5 -8.5q-30 0 -56.5 8.5t-46 25t-31 40t-11.5 52.5v83q0 28 11.5 51.5t31.5 40.5t46.5 26t56.5 9
q31 0 58 -9t46 -26t30 -40.5t11 -51.5v-83zM839 561q0 19 -7 32.5t-17.5 22.5t-23.5 13t-26 4t-26 -4t-24 -13t-18 -22.5t-7 -32.5v-64q0 -38 22 -54.5t53 -16.5q13 0 26 4t23.5 12.5t17.5 22t7 32.5v64z" />
    <glyph glyph-name="published" unicode="&#x2117;" horiz-adv-x="803" 
d="M585 412q0 -23 -9 -46t-26.5 -42t-43 -30.5t-58.5 -11.5h-104v-171h-64v434h160q28 0 54 -7.5t46 -23.5t32.5 -41t12.5 -61zM519 414q0 36 -22 54t-55 18h-98v-145h100q19 0 33 6.5t23.5 17t14 23.5t4.5 26zM404 -8q-76 0 -139.5 26.5t-110 73.5t-72.5 110.5t-26 138.5
t26.5 139.5t73.5 111.5t110.5 73.5t137.5 26.5t138 -26.5t111 -73.5t73.5 -111.5t26.5 -139.5t-26.5 -138.5t-73.5 -110.5t-111 -73.5t-138 -26.5zM404 631q-61 0 -113 -22t-90.5 -61t-60 -92t-21.5 -115t21.5 -114.5t60 -91t90.5 -60.5t113 -22t113 22t90.5 60.5t60 91
t21.5 114.5t-21.5 115t-60 92t-90.5 61t-113 22z" />
    <glyph glyph-name="trademark" unicode="&#x2122;" horiz-adv-x="855" 
d="M223 637v-352h-61v352h-124v59h308v-59h-123zM591 417l54 109l89 168h54v-410h-59v279h-3l-40 -79l-75 -139h-44l-71 128l-47 90h-3v-279h-59v410h56l89 -168l56 -109h3z" />
    <glyph glyph-name="Ohm" unicode="&#x2126;" horiz-adv-x="621" 
d="M362 0v101q21 6 41 18.5t35.5 31t24.5 44t9 58.5v200q0 42 -13 71.5t-35 49t-51.5 28.5t-61.5 9q-33 0 -62.5 -9t-51.5 -28.5t-35 -49t-13 -71.5v-200q0 -33 9.5 -58.5t25 -44t35.5 -31t41 -18.5v-101h-217v82h91q-35 28 -56.5 68.5t-21.5 93.5v224q0 52 20 94t54.5 72
t81 46t99.5 16q52 0 98.5 -16t81 -46t54.5 -72t20 -94v-224q0 -53 -21 -93.5t-56 -68.5h92v-82h-218z" />
    <glyph glyph-name="angstrom" unicode="&#x212b;" horiz-adv-x="597" 
d="M490 0l-54 155h-274l-53 -155h-96l240 689h93l241 -689h-97zM297 563l-50 -160l-55 -164h215l-55 164l-51 160h-4zM403 800q0 -21 -8 -40t-22 -33t-33 -22t-40 -8t-40 8t-33.5 22t-22.5 33t-8 40t8 40t22.5 32.5t33.5 21.5t40 8t40 -8t33 -21.5t22 -32.5t8 -40zM355 800
q0 23 -16 38.5t-39 15.5t-39.5 -15.5t-16.5 -38.5t16.5 -39t39.5 -16t39 16t16 39z" />
    <glyph glyph-name="estimated" unicode="&#x212e;" horiz-adv-x="817" 
d="M195 316l1 -184q16 -26 40 -47t52.5 -36t60.5 -23.5t64 -8.5q66 0 123 29t97 79h62q-51 -63 -125 -99.5t-158 -36.5q-72 0 -136 27t-112 73.5t-75.5 108.5t-27.5 131t27.5 129.5t75.5 105.5t112 71t136 26q74 0 137 -26t109.5 -71.5t74 -109t30.5 -138.5h-568zM627 521
q-15 25 -39 46t-52.5 35.5t-60.5 22.5t-62 8q-57 0 -114.5 -31.5t-102.5 -84.5l-1 -175h432v179z" />
    <glyph glyph-name="onethird" unicode="&#x2153;" horiz-adv-x="800" 
d="M183 -17h-66l425 730h67zM156 274v328l-52 -39l-39 50l98 76h64v-415h-71zM596 418q25 0 49.5 -6t44 -19.5t31 -35t11.5 -52.5q0 -28 -15 -52.5t-47 -35.5q38 -17 51.5 -41.5t13.5 -51.5q0 -32 -11.5 -56t-31.5 -40.5t-47 -24.5t-57 -8q-42 0 -77 12.5t-59 30.5l39 53
q20 -15 46 -23t47 -8q34 0 56 15.5t22 44.5t-19.5 45t-48.5 16h-53v63h54q10 0 22 3.5t21.5 11t16 19t6.5 27.5q0 13 -6.5 22.5t-17 15.5t-23.5 9t-26 3q-21 0 -47 -7.5t-46 -23.5l-35 51q23 20 59 31.5t77 11.5z" />
    <glyph glyph-name="twothirds" unicode="&#x2154;" horiz-adv-x="800" 
d="M226 -17h-66l425 730h67zM302 581q0 -21 -9.5 -40t-24.5 -36.5t-33.5 -32.5t-36.5 -27q-14 -9 -32 -20.5t-34 -25t-26.5 -27.5t-10.5 -29v-7h207v-62h-281v56q0 28 10 50.5t26.5 40.5t38 33.5t43.5 30.5q11 7 26.5 17t29.5 22t24 26t10 29q0 26 -24.5 38t-51.5 12
q-26 0 -48.5 -9t-42.5 -24l-39 50q26 20 60 34t72 14q28 0 55 -5.5t47 -19t32.5 -35t12.5 -53.5zM639 418q25 0 49.5 -6t44 -19.5t31 -35t11.5 -52.5q0 -28 -15 -52.5t-47 -35.5q38 -17 51.5 -41.5t13.5 -51.5q0 -32 -11.5 -56t-31.5 -40.5t-47 -24.5t-57 -8q-42 0 -77 12.5
t-59 30.5l39 53q20 -15 46 -23t47 -8q34 0 56 15.5t22 44.5t-19.5 45t-48.5 16h-53v63h54q10 0 22 3.5t21.5 11t16 19t6.5 27.5q0 13 -6.5 22.5t-17 15.5t-23.5 9t-26 3q-21 0 -47 -7.5t-46 -23.5l-35 51q23 20 59 31.5t77 11.5z" />
    <glyph glyph-name="onefifth" unicode="&#x2155;" horiz-adv-x="800" 
d="M172 -17h-66l425 730h67zM155 274v328l-52 -39l-39 50l98 76h64v-415h-71zM735 110q0 -26 -12 -47t-32 -36t-46 -23t-55 -8q-44 0 -76 14.5t-58 34.5l42 52q45 -36 90 -36q8 0 21 2.5t25 8.5t20.5 17t8.5 28v51q0 26 -14 37.5t-34 11.5q-9 0 -21.5 -3.5t-25.5 -8.5
t-24.5 -11.5t-20.5 -12.5l-59 27v207h258v-64h-186v-95q23 13 44.5 21t38.5 8q54 0 85 -30.5t31 -80.5v-64z" />
    <glyph glyph-name="twofifths" unicode="&#x2156;" horiz-adv-x="800" 
d="M223 -17h-66l425 730h67zM290 581q0 -21 -9.5 -40t-24.5 -36.5t-33.5 -32.5t-36.5 -27q-14 -9 -32 -20.5t-34 -25t-26.5 -27.5t-10.5 -29v-7h207v-62h-281v56q0 28 10 50.5t26.5 40.5t38 33.5t43.5 30.5q11 7 26.5 17t29.5 22t24 26t10 29q0 26 -24.5 38t-51.5 12
q-26 0 -48.5 -9t-42.5 -24l-39 50q26 20 60 34t72 14q28 0 55 -5.5t47 -19t32.5 -35t12.5 -53.5zM790 110q0 -26 -12 -47t-32 -36t-46 -23t-55 -8q-44 0 -76 14.5t-58 34.5l42 52q45 -36 90 -36q8 0 21 2.5t25 8.5t20.5 17t8.5 28v51q0 26 -14 37.5t-34 11.5
q-9 0 -21.5 -3.5t-25.5 -8.5t-24.5 -11.5t-20.5 -12.5l-59 27v207h258v-64h-186v-95q23 13 44.5 21t38.5 8q54 0 85 -30.5t31 -80.5v-64z" />
    <glyph glyph-name="threefifths" unicode="&#x2157;" horiz-adv-x="800" 
d="M219 -17h-66l425 730h67zM158 692q25 0 50 -6t44.5 -19.5t31.5 -35t12 -52.5q0 -28 -15.5 -52.5t-47.5 -35.5q38 -17 51.5 -41.5t13.5 -51.5q0 -32 -11.5 -56t-31.5 -40.5t-47 -24.5t-57 -8q-42 0 -77 12.5t-59 30.5l39 53q20 -15 46 -23t47 -8q34 0 56 15.5t22 44.5
t-19.5 45t-48.5 16h-53v63h54q10 0 22 3.5t22 11t16.5 19t6.5 27.5q0 13 -7 22.5t-17.5 15.5t-24 9t-26.5 3q-21 0 -47 -7.5t-46 -23.5l-35 51q23 20 59 31.5t77 11.5zM785 110q0 -26 -12 -47t-32 -36t-46 -23t-55 -8q-44 0 -76 14.5t-58 34.5l42 52q45 -36 90 -36
q8 0 21 2.5t25 8.5t20.5 17t8.5 28v51q0 26 -14 37.5t-34 11.5q-9 0 -21.5 -3.5t-25.5 -8.5t-24.5 -11.5t-20.5 -12.5l-59 27v207h258v-64h-186v-95q23 13 44.5 21t38.5 8q54 0 85 -30.5t31 -80.5v-64z" />
    <glyph glyph-name="fourfifths" unicode="&#x2158;" horiz-adv-x="800" 
d="M226 -17h-66l425 730h67zM272 335v-61h-73v61h-191v54l149 299h76l-145 -292h111v120h73v-120h38v-61h-38zM791 110q0 -26 -12 -47t-32 -36t-46 -23t-55 -8q-44 0 -76 14.5t-58 34.5l42 52q45 -36 90 -36q8 0 21 2.5t25 8.5t20.5 17t8.5 28v51q0 26 -14 37.5t-34 11.5
q-9 0 -21.5 -3.5t-25.5 -8.5t-24.5 -11.5t-20.5 -12.5l-59 27v207h258v-64h-186v-95q23 13 44.5 21t38.5 8q54 0 85 -30.5t31 -80.5v-64z" />
    <glyph glyph-name="onesixth" unicode="&#x2159;" horiz-adv-x="800" 
d="M192 -17h-66l425 730h67zM135 274v328l-52 -39l-39 50l98 76h64v-415h-71zM476 305q0 27 11.5 48t31 35.5t45.5 22.5t54 8q44 0 75.5 -14t57.5 -35l-43 -52q-44 35 -88 35q-11 0 -23 -3t-23 -10t-18 -18.5t-7 -27.5v-56q28 16 52 23.5t41 7.5q54 0 84 -30.5t30 -78.5v-50
q0 -27 -12.5 -48t-32.5 -36t-45 -22.5t-51 -7.5t-51 7.5t-44.5 22t-31.5 35.5t-12 48v196zM683 154q0 26 -14 38t-35 12q-20 0 -41.5 -9.5t-43.5 -21.5v-53q0 -16 6.5 -27.5t16 -18.5t21 -10t22.5 -3t23 3.5t22 10.5t16.5 18t6.5 27v34z" />
    <glyph glyph-name="fivesixths" unicode="&#x215a;" horiz-adv-x="800" 
d="M213 -17h-66l425 730h67zM301 384q0 -26 -12 -47t-32 -36t-46 -23t-55 -8q-44 0 -76 14.5t-58 34.5l42 52q45 -36 90 -36q8 0 21 2.5t25 8.5t20.5 17t8.5 28v51q0 26 -14 37.5t-34 11.5q-9 0 -21.5 -3.5t-25.5 -8.5t-24.5 -11.5t-20.5 -12.5l-59 27v207h258v-64h-186v-95
q23 13 44.5 21t38.5 8q54 0 85 -30.5t31 -80.5v-64zM498 305q0 27 11.5 48t31 35.5t45.5 22.5t54 8q44 0 75.5 -14t57.5 -35l-43 -52q-44 35 -88 35q-11 0 -23 -3t-23 -10t-18 -18.5t-7 -27.5v-56q28 16 52 23.5t41 7.5q54 0 84 -30.5t30 -78.5v-50q0 -27 -12.5 -48
t-32.5 -36t-45 -22.5t-51 -7.5t-51 7.5t-44.5 22t-31.5 35.5t-12 48v196zM705 154q0 26 -14 38t-35 12q-20 0 -41.5 -9.5t-43.5 -21.5v-53q0 -16 6.5 -27.5t16 -18.5t21 -10t22.5 -3t23 3.5t22 10.5t16.5 18t6.5 27v34z" />
    <glyph glyph-name="oneeighth" unicode="&#x215b;" horiz-adv-x="800" 
d="M175 -17h-66l425 730h67zM149 274v328l-52 -39l-39 50l98 76h64v-415h-71zM599 418q26 0 50.5 -7.5t44 -23t31.5 -38.5t12 -53q0 -26 -15 -49.5t-41 -35.5q29 -12 44.5 -38t15.5 -51q0 -32 -12.5 -55.5t-32.5 -39.5t-45.5 -23.5t-50.5 -7.5q-26 0 -51 7.5t-45 23
t-32.5 38.5t-12.5 54q0 28 15 52t44 39q-26 11 -40 35t-14 52q0 30 11.5 52.5t30.5 38t43 23t50 7.5zM600 176q-28 0 -47.5 -15.5t-19.5 -42.5q0 -28 19 -42.5t48 -14.5t48 14.5t19 43.5q0 26 -20 41.5t-47 15.5zM600 353q-25 0 -45 -13.5t-20 -42.5q0 -26 19.5 -41.5
t45.5 -15.5t45.5 16t19.5 42q0 28 -21 41.5t-44 13.5z" />
    <glyph glyph-name="threeeighths" unicode="&#x215c;" horiz-adv-x="800" 
d="M215 -17h-66l425 730h67zM162 692q25 0 50 -6t44.5 -19.5t31.5 -35t12 -52.5q0 -28 -15.5 -52.5t-47.5 -35.5q38 -17 51.5 -41.5t13.5 -51.5q0 -32 -11.5 -56t-31.5 -40.5t-47 -24.5t-57 -8q-42 0 -77 12.5t-59 30.5l39 53q20 -15 46 -23t47 -8q34 0 56 15.5t22 44.5
t-19.5 45t-48.5 16h-53v63h54q10 0 22 3.5t22 11t16.5 19t6.5 27.5q0 13 -7 22.5t-17.5 15.5t-24 9t-26.5 3q-21 0 -47 -7.5t-46 -23.5l-35 51q23 20 59 31.5t77 11.5zM639 418q26 0 50.5 -7.5t44 -23t31.5 -38.5t12 -53q0 -26 -15 -49.5t-41 -35.5q29 -12 44.5 -38
t15.5 -51q0 -32 -12.5 -55.5t-32.5 -39.5t-45.5 -23.5t-50.5 -7.5q-26 0 -51 7.5t-45 23t-32.5 38.5t-12.5 54q0 28 15 52t44 39q-26 11 -40 35t-14 52q0 30 11.5 52.5t30.5 38t43 23t50 7.5zM640 176q-28 0 -47.5 -15.5t-19.5 -42.5q0 -28 19 -42.5t48 -14.5t48 14.5
t19 43.5q0 26 -20 41.5t-47 15.5zM640 353q-25 0 -45 -13.5t-20 -42.5q0 -26 19.5 -41.5t45.5 -15.5t45.5 16t19.5 42q0 28 -21 41.5t-44 13.5z" />
    <glyph glyph-name="fiveeighths" unicode="&#x215d;" horiz-adv-x="800" 
d="M219 -17h-66l425 730h67zM302 384q0 -26 -12 -47t-32 -36t-46 -23t-55 -8q-44 0 -76 14.5t-58 34.5l42 52q45 -36 90 -36q8 0 21 2.5t25 8.5t20.5 17t8.5 28v51q0 26 -14 37.5t-34 11.5q-9 0 -21.5 -3.5t-25.5 -8.5t-24.5 -11.5t-20.5 -12.5l-59 27v207h258v-64h-186v-95
q23 13 44.5 21t38.5 8q54 0 85 -30.5t31 -80.5v-64zM635 418q26 0 50.5 -7.5t44 -23t31.5 -38.5t12 -53q0 -26 -15 -49.5t-41 -35.5q29 -12 44.5 -38t15.5 -51q0 -32 -12.5 -55.5t-32.5 -39.5t-45.5 -23.5t-50.5 -7.5q-26 0 -51 7.5t-45 23t-32.5 38.5t-12.5 54q0 28 15 52
t44 39q-26 11 -40 35t-14 52q0 30 11.5 52.5t30.5 38t43 23t50 7.5zM636 176q-28 0 -47.5 -15.5t-19.5 -42.5q0 -28 19 -42.5t48 -14.5t48 14.5t19 43.5q0 26 -20 41.5t-47 15.5zM636 353q-25 0 -45 -13.5t-20 -42.5q0 -26 19.5 -41.5t45.5 -15.5t45.5 16t19.5 42
q0 28 -21 41.5t-44 13.5z" />
    <glyph glyph-name="seveneighths" unicode="&#x215e;" horiz-adv-x="800" 
d="M187 -17h-66l425 730h67zM162 274h-79l158 352h-124v-60h-70v122h278v-53zM611 418q26 0 50.5 -7.5t44 -23t31.5 -38.5t12 -53q0 -26 -15 -49.5t-41 -35.5q29 -12 44.5 -38t15.5 -51q0 -32 -12.5 -55.5t-32.5 -39.5t-45.5 -23.5t-50.5 -7.5q-26 0 -51 7.5t-45 23
t-32.5 38.5t-12.5 54q0 28 15 52t44 39q-26 11 -40 35t-14 52q0 30 11.5 52.5t30.5 38t43 23t50 7.5zM612 176q-28 0 -47.5 -15.5t-19.5 -42.5q0 -28 19 -42.5t48 -14.5t48 14.5t19 43.5q0 26 -20 41.5t-47 15.5zM612 353q-25 0 -45 -13.5t-20 -42.5q0 -26 19.5 -41.5
t45.5 -15.5t45.5 16t19.5 42q0 28 -21 41.5t-44 13.5z" />
    <glyph glyph-name="uni215F" unicode="&#x215f;" horiz-adv-x="438" 
d="M183 -17h-66l425 730h67zM128 274v328l-52 -39l-39 50l98 76h64v-415h-71z" />
    <glyph glyph-name="arrowleft" unicode="&#x2190;" horiz-adv-x="840" 
d="M779 353v-64l-577 1l146 -145l-46 -45l-220 221l220 222l46 -45l-146 -145h577z" />
    <glyph glyph-name="arrowup" unicode="&#x2191;" horiz-adv-x="485" 
d="M279 1h-64v573l-144 -142l-45 46l221 220l222 -220l-45 -46l-145 142v-573z" />
    <glyph glyph-name="arrowright" unicode="&#x2192;" horiz-adv-x="840" 
d="M660 353l-146 145l46 45l220 -222l-220 -221l-46 45l146 145l-577 -1v64h577z" />
    <glyph glyph-name="arrowdown" unicode="&#x2193;" horiz-adv-x="485" 
d="M279 122l145 146l45 -46l-222 -220l-221 220l45 46l145 -146l-1 577h64v-577z" />
    <glyph glyph-name="arrowupleft" unicode="&#x2196;" horiz-adv-x="840" 
d="M231 581l535 -536l-44 -45l-535 536l1 -205h-65l1 312l312 1l1 -64z" />
    <glyph glyph-name="arrowdownright" unicode="&#x2198;" horiz-adv-x="840" 
d="M657 63l-535 536l44 45l535 -536l-1 205h65l-1 -312l-312 -1l-1 64z" />
    <glyph glyph-name="arrowhookleft" unicode="&#x21a9;" horiz-adv-x="840" 
d="M154 353h485q55 0 77.5 31t22.5 77v80q0 45 -23.5 69.5t-76.5 24.5h-74v62h79q44 0 74.5 -12t49 -33.5t27 -51t8.5 -63.5v-76q0 -78 -42 -125t-130 -47l-477 1l146 -145l-46 -45l-220 221l220 222l46 -45z" />
    <glyph glyph-name="arrowhookright" unicode="&#x21aa;" horiz-adv-x="828" 
d="M538 498l46 45l220 -222l-220 -221l-46 45l146 145l-477 -1q-88 0 -130 47t-42 125v76q0 34 8.5 63.5t27 51t49 33.5t74.5 12h79v-62h-74q-53 0 -76.5 -24.5t-23.5 -69.5v-80q0 -23 5 -42.5t17 -34t31 -23t47 -8.5h485z" />
    <glyph glyph-name="carriagereturnright" unicode="&#x21b3;" horiz-adv-x="840" 
d="M177 353h511l-146 145l46 45l220 -222l-220 -221l-46 45l146 145l-576 -1v403h65v-339z" />
    <glyph glyph-name="carriagereturn" unicode="&#x21b5;" horiz-adv-x="840" 
d="M713 692h65v-403l-576 1l146 -145l-46 -45l-220 221l220 222l46 -45l-146 -145h511v339z" />
    <glyph glyph-name="pageup" unicode="&#x21de;" horiz-adv-x="485" 
d="M280 376h110v-64h-110v-76h110v-64h-110v-172h-65v172h-110v64h110v76h-110v64h110l1 198l-145 -142l-45 46l221 220l222 -220l-45 -46l-145 142z" />
    <glyph glyph-name="pagedown" unicode="&#x21df;" horiz-adv-x="485" 
d="M279 121l145 145l45 -46l-222 -220l-221 220l45 46l145 -145l-1 201h-110v64h110v76h-110v64h110v172h65v-172h110v-64h-110v-76h110v-64h-110z" />
    <glyph glyph-name="arrowdashleft" unicode="&#x21e0;" horiz-adv-x="840" 
d="M381 353h80v-64h-80v64zM529 353h81v-64h-81v64zM678 353h81v-64h-81v64zM314 353v-64l-133 1l148 -145l-46 -45l-220 221l220 222l46 -45l-148 -145h133z" />
    <glyph glyph-name="arrowdashup" unicode="&#x21e1;" horiz-adv-x="485" 
d="M277 379v-80h-64v80h64zM277 231v-81h-64v81h64zM277 82v-81h-64v81h64zM277 446h-64l1 131l-145 -146l-45 46l221 220l222 -220l-45 -46l-145 146v-131z" />
    <glyph glyph-name="arrowdashright" unicode="&#x21e2;" horiz-adv-x="840" 
d="M441 289h-80v64h80v-64zM293 289h-81v64h81v-64zM144 289h-81v64h81v-64zM641 353l-148 145l46 45l220 -222l-220 -221l-46 45l148 145l-133 -1v64h133z" />
    <glyph glyph-name="arrowdashdown" unicode="&#x21e3;" horiz-adv-x="485" 
d="M213 319v80h64v-80h-64zM213 467v81h64v-81h-64zM213 616v81h64v-81h-64zM277 121l145 146l45 -46l-222 -220l-221 220l45 46l145 -146l-1 131h64v-131z" />
    <glyph glyph-name="arrowtableft" unicode="&#x21e4;" horiz-adv-x="840" 
d="M75 104v435h65v-435h-65zM816 353v-64l-493 1l146 -145l-46 -45l-220 221l220 222l46 -45l-146 -145h493z" />
    <glyph glyph-name="arrowtabright" unicode="&#x21e5;" horiz-adv-x="840" 
d="M752 104v435h65v-435h-65zM569 353l-146 145l46 45l220 -222l-220 -221l-46 45l146 145l-493 -1v64h493z" />
    <glyph glyph-name="shift" unicode="&#x21e7;" horiz-adv-x="840" 
d="M55 318l370 379l370 -379h-185v-318h-370v318h-185zM425 621l-246 -255h115v-313h263v313h114z" />
    <glyph glyph-name="capslock" unicode="&#x21ea;" horiz-adv-x="840" 
d="M230 0h370v-188h-370v188zM284 -53v-81h263v81h-263zM45 318l370 379l370 -379h-185v-217h-370v217h-185zM415 621l-246 -255h115v-210h263v210h114z" />
    <glyph glyph-name="partialdiff" unicode="&#x2202;" horiz-adv-x="530" 
d="M123 218q0 -42 11 -72.5t29 -49.5t41.5 -28t49.5 -9q40 0 68 21t45 54.5t25.5 75t10.5 83.5q-40 46 -79.5 65.5t-71.5 19.5q-30 0 -54 -14t-40.5 -36.5t-25.5 -51t-9 -58.5zM44 216q0 52 15.5 94t43 71t64.5 45t79 16q39 0 75.5 -15t79.5 -50q-3 58 -16.5 109t-38 89
t-60 60t-83.5 22q-16 0 -33 -1.5t-34 -6.5v63q39 9 75 9q76 0 128.5 -30t85.5 -81t47.5 -118t14.5 -141q0 -90 -17.5 -157.5t-49 -112.5t-75 -68t-95.5 -23q-44 0 -81.5 14.5t-65.5 43t-43.5 70.5t-15.5 98z" />
    <glyph glyph-name="gradient" unicode="&#x2207;" horiz-adv-x="597" 
d="M587 690l-240 -689h-93l-241 689h574zM304 130l74 229l83 247h-320l80 -238l77 -238h6z" />
    <glyph glyph-name="product" unicode="&#x220f;" horiz-adv-x="609" 
d="M469 -82v687h-323v-687h-92v771h509v-771h-94z" />
    <glyph glyph-name="summation" unicode="&#x2211;" horiz-adv-x="503" 
d="M31 -82v80l166 312l-166 302v77h432v-85h-321l162 -294l-168 -310h336v-82h-441z" />
    <glyph glyph-name="minus" unicode="&#x2212;" horiz-adv-x="500" 
d="M29 262v64h441v-64h-441z" />
    <glyph glyph-name="radical" unicode="&#x221a;" horiz-adv-x="562" 
d="M334 -81h-68l-158 414l-71 -24l-21 57l139 46l141 -376l174 761h75z" />
    </font>
</defs>
</svg>
